<?xml version="1.0" encoding="utf-8"?>
<!-- Generator: Adobe Illustrator 16.0.0, SVG Export Plug-In . SVG Version: 6.00 Build 0)  -->
<!DOCTYPE svg PUBLIC "-//W3C//DTD SVG 1.1//EN" "http://www.w3.org/Graphics/SVG/1.1/DTD/svg11.dtd">
<svg version="1.1" id="Layer_1" xmlns="http://www.w3.org/2000/svg" xmlns:xlink="http://www.w3.org/1999/xlink" x="0px" y="0px"
	 width="249.105px" height="535.475px" viewBox="0 0 249.105 535.475" enable-background="new 0 0 249.105 535.475"
	 xml:space="preserve">
<path fill="#231F20" d="M137.447-126.778l-44.025,24.27c0,0-7.902,9.598-3.385,19.191c4.516,9.592,18.623,36.686,23.703,49.102
	c5.078,12.414,14.115,23.705,7.902,41.764c-6.207,18.06-3.387,18.628-15.803,31.043c-12.418,12.414-11.855,14.67-24.27,20.88
	c-12.416,6.211-28.785,12.415-33.299,13.546c-4.512,1.131-10.158,0.564-10.158,0.564s33.303-1.691,61.52-13.545
	c28.218-11.852,45.152-23.709,52.488-41.201c7.336-17.494,12.416-34.988,6.207-51.357c-6.207-16.37-9.594-28.785-19.752-44.588
	C128.416-92.915,118.254-110.411,137.447-126.778z"/>
</svg>
