<?xml version="1.0" encoding="utf-8"?>
<!-- Generator: Adobe Illustrator 16.0.0, SVG Export Plug-In . SVG Version: 6.00 Build 0)  -->
<!DOCTYPE svg PUBLIC "-//W3C//DTD SVG 1.1//EN" "http://www.w3.org/Graphics/SVG/1.1/DTD/svg11.dtd">
<svg version="1.1" id="Layer_1" xmlns="http://www.w3.org/2000/svg" xmlns:xlink="http://www.w3.org/1999/xlink" x="0px" y="0px"
	 width="249.105px" height="535.475px" viewBox="0 0 249.105 535.475" enable-background="new 0 0 249.105 535.475"
	 xml:space="preserve">
<path fill="#231F20" d="M-77.545-151.938c0,0-9.029,12.98-11.287,28.785c-2.258,15.804-7.902,25.959,29.348,37.25
	c41.549,12.594,56.438,15.8,61.518,24.267c5.082,8.465,8.467,20.88,2.822,33.864C-0.787-14.79-4.17-7.456-12.074-0.682
	s-11.287,11.852-22.574,15.238c-11.289,3.387-18.062,3.387-18.062,3.387s33.301-9.028,37.248-23.14
	c3.951-14.11,1.129-24.835-14.672-29.349c-15.803-4.514-40.072-3.953-58.133-11.854c-18.062-7.899-25.963-31.042-23.141-45.715
	S-102.381-133.312-77.545-151.938z"/>
</svg>
