<?xml version="1.0" encoding="utf-8"?>
<!-- Generator: Adobe Illustrator 16.0.0, SVG Export Plug-In . SVG Version: 6.00 Build 0)  -->
<!DOCTYPE svg PUBLIC "-//W3C//DTD SVG 1.1//EN" "http://www.w3.org/Graphics/SVG/1.1/DTD/svg11.dtd">
<svg version="1.1" id="Layer_1" xmlns="http://www.w3.org/2000/svg" xmlns:xlink="http://www.w3.org/1999/xlink" x="0px" y="0px"
	 width="249.105px" height="535.475px" viewBox="0 0 249.105 535.475" enable-background="new 0 0 249.105 535.475"
	 xml:space="preserve">
<path fill="#231F20" d="M173.64,101.8l-40.07,12.98c0,0,7.338,70.548,11.854,90.867c4.514,20.316,12.984,57.006,39.506,63.78
	c26.527,6.771,36.688,5.639,46.281-2.26c9.592-7.898,11.854-18.627,16.365-30.477c4.52-11.854,5.08-22.012,5.08-22.012
	s-9.029,20.318-21.445,20.318c-12.418,0-34.992-2.262-44.023-27.092c-9.031-24.832-6.771-30.479-10.158-55.875
	C173.64,126.633,171.949,110.267,173.64,101.8z"/>
</svg>
