<?xml version="1.0" encoding="utf-8"?>
<!-- Generator: Adobe Illustrator 16.0.0, SVG Export Plug-In . SVG Version: 6.00 Build 0)  -->
<!DOCTYPE svg PUBLIC "-//W3C//DTD SVG 1.1//EN" "http://www.w3.org/Graphics/SVG/1.1/DTD/svg11.dtd">
<svg version="1.1" id="Layer_1" xmlns="http://www.w3.org/2000/svg" xmlns:xlink="http://www.w3.org/1999/xlink" x="0px" y="0px"
	 width="249.105px" height="535.475px" viewBox="0 0 249.105 535.475" enable-background="new 0 0 249.105 535.475"
	 xml:space="preserve">
<path fill="#231F20" d="M-118.506,143.565v-42.33c0,0,11.008-7.621,20.316-4.233c9.314,3.386,33.863,7.62,56.721,26.245
	c22.859,18.625,30.479,25.396,49.951,44.869c19.469,19.471,27.936,27.09,34.711,36.402c6.771,9.312,15.516,24.555,21.445,23.711
	c5.926-0.85,8.188,3.379,5.646-7.625c-2.539-11.006-1.697-16.086-1.697-16.086l3.389,56.723c0,0-3.389,16.932-12.697,14.391
	c-9.314-2.539-32.172-27.938-48.26-48.254c-16.082-20.318-47.406-52.49-61.799-64.342c-14.391-11.854-32.17-24.551-45.717-27.09
	C-110.037,133.406-113.427,132.559-118.506,143.565z"/>
</svg>
