<?xml version="1.0" encoding="utf-8"?>
<!-- Generator: Adobe Illustrator 16.0.0, SVG Export Plug-In . SVG Version: 6.00 Build 0)  -->
<!DOCTYPE svg PUBLIC "-//W3C//DTD SVG 1.1//EN" "http://www.w3.org/Graphics/SVG/1.1/DTD/svg11.dtd">
<svg version="1.1" id="Layer_1" xmlns="http://www.w3.org/2000/svg" xmlns:xlink="http://www.w3.org/1999/xlink" x="0px" y="0px"
	 width="249.105px" height="535.475px" viewBox="0 0 249.105 535.475" enable-background="new 0 0 249.105 535.475"
	 xml:space="preserve">
<path fill="#231F20" d="M-14.315,36.494c0,0-25.396,46.562-19.471,76.192c5.251,26.25,16.932,63.494,33.016,98.205
	c16.086,34.709,26.245,45.715,37.251,55.873c11.008,10.161,14.392,10.161,24.553,9.313c12.079-1.004,15.237-2.539,22.856-12.698
	c6.623-8.83,14.393-24.551,14.393-24.551s-9.312,44.022-23.708,55.03c-14.388,11.004-49.944,39.789-91.429-20.32
	c-41.482-60.108-42.329-87.2-44.87-120.216C-64.263,120.306-68.497,86.443-14.315,36.494z"/>
</svg>
