<?xml version="1.0" encoding="utf-8"?>
<!-- Generator: Adobe Illustrator 16.0.0, SVG Export Plug-In . SVG Version: 6.00 Build 0)  -->
<!DOCTYPE svg PUBLIC "-//W3C//DTD SVG 1.1//EN" "http://www.w3.org/Graphics/SVG/1.1/DTD/svg11.dtd">
<svg version="1.1" id="Layer_1" xmlns="http://www.w3.org/2000/svg" xmlns:xlink="http://www.w3.org/1999/xlink" x="0px" y="0px"
	 width="249.105px" height="535.475px" viewBox="0 0 249.105 535.475" enable-background="new 0 0 249.105 535.475"
	 xml:space="preserve">
<path fill="#231F20" d="M189.447-118.312c0,0-45.715,18.621-49.102,22.573c-3.389,3.952-6.213,11.29-5.646,31.043
	c0.566,19.752,2.258,47.975,3.385,73.372c1.131,25.397-2.256,42.326-2.818,49.664c-0.566,7.339-0.561,14.677-4.516,18.062
	c-3.949,3.387,29.912-14.107,35.555-18.624c5.645-4.518,8.463-10.729,8.463-33.301c0-22.574,0.568-44.586-0.561-73.37
	C173.076-77.677,170.252-107.022,189.447-118.312z"/>
</svg>
