<?xml version="1.0" encoding="utf-8"?>
<!-- Generator: Adobe Illustrator 16.0.0, SVG Export Plug-In . SVG Version: 6.00 Build 0)  -->
<!DOCTYPE svg PUBLIC "-//W3C//DTD SVG 1.1//EN" "http://www.w3.org/Graphics/SVG/1.1/DTD/svg11.dtd">
<svg version="1.1" id="Layer_1" xmlns="http://www.w3.org/2000/svg" xmlns:xlink="http://www.w3.org/1999/xlink" x="0px" y="0px"
	 width="249.105px" height="535.475px" viewBox="0 0 249.105 535.475" enable-background="new 0 0 249.105 535.475"
	 xml:space="preserve">
<path fill="#231F20" d="M251.195-173.344c0,0-48.256,19.473-80.426,69.42c-32.17,49.949-47.41,76.193-76.192,124.449
	C65.792,68.781,21.769,141.587-7.015,177.143c-28.782,35.557-48.254,58.416-59.261,69.42c-11.004,11.006-37.25,39.792-58.415,53.336
	c-21.164,13.545-52.487,30.479-52.487,30.479s49.103-10.16,100.744-55.877c51.641-45.715,108.364-106.67,132.07-154.079
	C79.338,73.014,132.674-2.333,162.304-54.821S243.576-166.572,251.195-173.344z"/>
</svg>
