<?xml version="1.0" encoding="utf-8"?>
<!-- Generator: Adobe Illustrator 16.0.0, SVG Export Plug-In . SVG Version: 6.00 Build 0)  -->
<!DOCTYPE svg PUBLIC "-//W3C//DTD SVG 1.1//EN" "http://www.w3.org/Graphics/SVG/1.1/DTD/svg11.dtd">
<svg version="1.1" id="Layer_1" xmlns="http://www.w3.org/2000/svg" xmlns:xlink="http://www.w3.org/1999/xlink" x="0px" y="0px"
	 width="249.105px" height="535.475px" viewBox="0 0 249.105 535.475" enable-background="new 0 0 249.105 535.475"
	 xml:space="preserve">
<path fill="#231F20" d="M88.306,126.368c0,0-5.926,9.312,0.848,16.932s24.552,33.863,33.862,47.41
	c9.316,13.545,24.554,42.328,22.013,56.721c-2.539,14.393-9.312,16.932-22.013,28.784c-12.698,11.854-31.322,22.859-31.322,22.859
	s20.318-22.859,16.083-35.559c-4.231-12.697-22.009-44.867-33.86-64.34c-11.853-19.471-22.012-38.096-22.012-38.096
	s-3.386-11.852,7.618-18.624C70.531,135.681,82.38,130.602,88.306,126.368z"/>
</svg>
