<?xml version="1.0" encoding="utf-8"?>
<!-- Generator: Adobe Illustrator 16.0.0, SVG Export Plug-In . SVG Version: 6.00 Build 0)  -->
<!DOCTYPE svg PUBLIC "-//W3C//DTD SVG 1.1//EN" "http://www.w3.org/Graphics/SVG/1.1/DTD/svg11.dtd">
<svg version="1.1" id="Layer_1" xmlns="http://www.w3.org/2000/svg" xmlns:xlink="http://www.w3.org/1999/xlink" x="0px" y="0px"
	 width="249.105px" height="535.475px" viewBox="0 0 249.105 535.475" enable-background="new 0 0 249.105 535.475"
	 xml:space="preserve">
<path fill="#231F20" d="M287.617,87.362l-43.459,14.674c0,0-3.951,5.08-3.951,19.191c0,14.109-1.125,57.006,3.951,76.758
	c5.08,19.75,2.262,40.637,27.094,57.002c24.832,16.368,38.377,20.883,50.23,8.465c11.852-12.416,19.189-29.912,23.139-49.102
	c3.953-19.189,8.467-51.924,8.467-51.924s-6.209,39.51-15.24,49.104c-9.027,9.594-34.992,29.916-47.971-13.545
	c-12.67-42.426-8.465-24.832-9.598-59.262C279.15,104.296,278.588,95.262,287.617,87.362z"/>
</svg>
