<?xml version="1.0" encoding="utf-8"?>
<!-- Generator: Adobe Illustrator 16.0.0, SVG Export Plug-In . SVG Version: 6.00 Build 0)  -->
<!DOCTYPE svg PUBLIC "-//W3C//DTD SVG 1.1//EN" "http://www.w3.org/Graphics/SVG/1.1/DTD/svg11.dtd">
<svg version="1.1" id="Layer_1" xmlns="http://www.w3.org/2000/svg" xmlns:xlink="http://www.w3.org/1999/xlink" x="0px" y="0px"
	 width="249.105px" height="535.475px" viewBox="0 0 249.105 535.475" enable-background="new 0 0 249.105 535.475"
	 xml:space="preserve">
<path fill="#231F20" d="M235.441-196.378c0,0-11.852,74.5-20.318,82.967c-8.465,8.465-19.469,16.084-32.17,14.391
	c-12.697-1.693-26.244-4.232-50.795-5.08c-24.55-0.846-40.636,1.693-46.562,6.773c-5.926,5.079-16.932,25.398-16.932,44.869
	s1.975,32.736,1.975,32.736s-7.902-50.799-4.516-68.857c3.391-18.061,12.982-52.486,33.861-54.744
	c20.885-2.26,48.541-2.26,72.808-2.26C197.062-145.583,225.845-146.71,235.441-196.378z"/>
</svg>
