<?xml version="1.0" encoding="utf-8"?>
<!-- Generator: Adobe Illustrator 16.0.0, SVG Export Plug-In . SVG Version: 6.00 Build 0)  -->
<!DOCTYPE svg PUBLIC "-//W3C//DTD SVG 1.1//EN" "http://www.w3.org/Graphics/SVG/1.1/DTD/svg11.dtd">
<svg version="1.1" id="Layer_1" xmlns="http://www.w3.org/2000/svg" xmlns:xlink="http://www.w3.org/1999/xlink" x="0px" y="0px"
	 width="249.105px" height="535.475px" viewBox="0 0 249.105 535.475" enable-background="new 0 0 249.105 535.475"
	 xml:space="preserve">
<path fill="#231F20" d="M86.29-11.602c0,0-47.407-83.812-61.801-106.671c-14.392-22.857-44.868-99.051-46.562-135.454
	c-1.27-27.273,13.545-75.347,34.711-93.972c21.166-18.624,56.724-36.403,82.968-27.091c26.242,9.312,34.708,23.705,38.095,43.177
	c3.385,19.472,5.924,66.88,5.924,66.88s-11.852-74.5-26.242-85.506c-14.393-11.006-47.409-31.323-72.808-12.698
	C15.179-344.313-12.76-300.29-5.987-259.653c6.774,40.637,11.006,93.125,33.864,134.607C50.735-83.563,77.826-38.694,86.29-11.602z"
	/>
</svg>
