<?xml version="1.0" encoding="utf-8"?>
<!-- Generator: Adobe Illustrator 16.0.0, SVG Export Plug-In . SVG Version: 6.00 Build 0)  -->
<!DOCTYPE svg PUBLIC "-//W3C//DTD SVG 1.1//EN" "http://www.w3.org/Graphics/SVG/1.1/DTD/svg11.dtd">
<svg version="1.1" id="Layer_1" xmlns="http://www.w3.org/2000/svg" xmlns:xlink="http://www.w3.org/1999/xlink" x="0px" y="0px"
	 width="249.105px" height="535.475px" viewBox="0 0 249.105 535.475" enable-background="new 0 0 249.105 535.475"
	 xml:space="preserve">
<path fill="#231F20" d="M5.771-26.3c0,0-5.08-39.79-0.844-50.796c4.23-11.006,13.545-31.324,13.545-31.324
	s32.17,4.233,56.719,11.008c24.553,6.771,55.032,13.545,69.422,9.311c14.391-4.232,25.396-8.465,29.631-15.238
	c4.23-6.771,5.926-11.006,5.926-11.006l-17.777,45.717c0,0-11.006,11.852-22.861,15.238c-11.85,3.387-32.168,8.466-55.874,0.847
	c-23.703-7.619-57.568-12.699-64.342-11.005C12.546-61.857-0.153-45.772,5.771-26.3z"/>
</svg>
