<?xml version="1.0" encoding="utf-8"?>
<!-- Generator: Adobe Illustrator 16.0.0, SVG Export Plug-In . SVG Version: 6.00 Build 0)  -->
<!DOCTYPE svg PUBLIC "-//W3C//DTD SVG 1.1//EN" "http://www.w3.org/Graphics/SVG/1.1/DTD/svg11.dtd">
<svg version="1.1" id="Layer_1" xmlns="http://www.w3.org/2000/svg" xmlns:xlink="http://www.w3.org/1999/xlink" x="0px" y="0px"
	 width="249.105px" height="535.475px" viewBox="0 0 249.105 535.475" enable-background="new 0 0 249.105 535.475"
	 xml:space="preserve">
<path fill="#231F20" d="M56.663,103.534c0,0-33.865,13.544-42.332,18.624C5.866,127.238,0.787,134.01,1.633,141.63
	c0.847,7.619,0,41.482,0.847,53.335c0.846,11.852,3.387,64.338,69.419,77.885c66.035,13.547,112.599,9.312,132.914-2.539
	c20.318-11.852,42.33-31.325,38.945-69.42c-3.389-38.097-10.16-73.654-9.314-88.892c0.85-15.239-1.691-22.858,5.926-27.092
	c7.621-4.232,11.008-5.925,11.008-5.925S203.121,99.3,200.58,102.687c-2.537,3.387-5.078,12.698-3.387,25.397
	c1.693,12.698,0,45.717-3.387,60.954c-3.385,15.238-6.77,26.244-33.018,37.25c-26.24,11.006-52.486,6.773-75.345,0
	c-22.856-6.773-39.788-11.852-41.481-38.943C42.269,160.255,36.344,115.385,56.663,103.534z"/>
</svg>
