<?xml version="1.0" encoding="utf-8"?>
<!-- Generator: Adobe Illustrator 16.0.0, SVG Export Plug-In . SVG Version: 6.00 Build 0)  -->
<!DOCTYPE svg PUBLIC "-//W3C//DTD SVG 1.1//EN" "http://www.w3.org/Graphics/SVG/1.1/DTD/svg11.dtd">
<svg version="1.1" id="Layer_1" xmlns="http://www.w3.org/2000/svg" xmlns:xlink="http://www.w3.org/1999/xlink" x="0px" y="0px"
	 width="249.105px" height="535.475px" viewBox="0 0 249.105 535.475" enable-background="new 0 0 249.105 535.475"
	 xml:space="preserve">
<path fill="#231F20" d="M51.463,107.624L8.004,123.429c0,0,1.125,6.772,2.258,34.992c1.129,28.216,2.82,47.412,1.691,71.677
	s-1.131,48.534-3.387,64.905c-2.256,16.369-3.951,26.523-10.158,30.477c-6.207,3.951-10.721,3.387-10.721,3.387
	s54.744,4.518,63.775,2.258c9.029-2.258,16.367-5.078,15.236-18.625c-1.127-13.545-2.82-28.783-7.898-55.875
	c-5.08-27.09-7.338-45.717-9.031-79.578C48.076,143.181,43.561,117.783,51.463,107.624z"/>
</svg>
