<?xml version="1.0" encoding="utf-8"?>
<!-- Generator: Adobe Illustrator 16.0.0, SVG Export Plug-In . SVG Version: 6.00 Build 0)  -->
<!DOCTYPE svg PUBLIC "-//W3C//DTD SVG 1.1//EN" "http://www.w3.org/Graphics/SVG/1.1/DTD/svg11.dtd">
<svg version="1.1" id="Layer_1" xmlns="http://www.w3.org/2000/svg" xmlns:xlink="http://www.w3.org/1999/xlink" x="0px" y="0px"
	 width="249.105px" height="535.475px" viewBox="0 0 249.105 535.475" enable-background="new 0 0 249.105 535.475"
	 xml:space="preserve">
<path fill="#231F20" d="M151.662,96.388c0,0-6.771,0.424-7.193,10.583s1.268,43.6,0.846,61.8
	c-0.424,18.203,1.268,29.208-4.656,47.833c-5.928,18.625-7.195,26.244-17.357,35.98c-10.158,9.734-11.006,8.889-24.125,12.699
	c-13.123,3.809-22.857,6.348-32.17,8.465c-9.314,2.117-16.934,0-16.934,0s23.283,2.963,37.674-22.858
	c14.393-25.822,18.201-33.441,17.779-66.459c-0.424-33.016,0.422-55.45-2.541-63.493s-2.963-15.238-2.963-15.238
	S144.047,94.696,151.662,96.388z"/>
</svg>
