<?xml version="1.0" encoding="utf-8"?>
<!-- Generator: Adobe Illustrator 16.0.0, SVG Export Plug-In . SVG Version: 6.00 Build 0)  -->
<!DOCTYPE svg PUBLIC "-//W3C//DTD SVG 1.1//EN" "http://www.w3.org/Graphics/SVG/1.1/DTD/svg11.dtd">
<svg version="1.1" id="Layer_1" xmlns="http://www.w3.org/2000/svg" xmlns:xlink="http://www.w3.org/1999/xlink" x="0px" y="0px"
	 width="249.105px" height="535.475px" viewBox="0 0 249.105 535.475" enable-background="new 0 0 249.105 535.475"
	 xml:space="preserve">
<path fill="#231F20" d="M520.717,396.913c0,0-38.094,31.324-53.332,38.943c-15.24,7.617-38.1,34.711-82.121-7.619
	c-44.021-42.328-106.67-122.754-160.006-190.483c-53.334-67.727-102.435-139.687-119.371-154.08
	C88.955,69.283,92.344,68.437,84.721,65.05c-7.617-3.387-23.703-6.771-23.703-6.771l54.182-17.779c0,0,22.011,12.699,42.33,39.79
	c20.316,27.09,93.127,106.67,115.982,136.299c22.861,29.631,66.881,81.274,94.82,112.598
	C396.269,360.511,458.918,441.782,520.717,396.913z"/>
</svg>
