<?xml version="1.0" encoding="utf-8"?>
<!-- Generator: Adobe Illustrator 16.0.0, SVG Export Plug-In . SVG Version: 6.00 Build 0)  -->
<!DOCTYPE svg PUBLIC "-//W3C//DTD SVG 1.1//EN" "http://www.w3.org/Graphics/SVG/1.1/DTD/svg11.dtd">
<svg version="1.1" id="Layer_1" xmlns="http://www.w3.org/2000/svg" xmlns:xlink="http://www.w3.org/1999/xlink" x="0px" y="0px"
	 width="249.105px" height="535.475px" viewBox="0 0 249.105 535.475" enable-background="new 0 0 249.105 535.475"
	 xml:space="preserve">
<path fill="#231F20" d="M165.689-172.176c0,0-18.062,27.652-10.723,46.843s28.783,73.934,36.123,90.866
	c7.34,16.932,27.094,90.869,29.35,133.198c2.254,42.33,2.254,76.193-4.518,94.82c-6.771,18.623-22.576,40.635-31.039,48.535
	c-8.467,7.9-23.145,10.721-29.352,11.287c-6.205,0.564-32.167-4.516-32.167-4.516s56.441-23.705,57.566-81.837
	c1.127-58.129-1.697-98.203-17.496-148.998c-15.803-50.795-30.479-87.483-33.865-98.205c-3.387-10.721-9.027-18.06,0.564-34.992
	C139.728-132.105,163.998-169.351,165.689-172.176z"/>
</svg>
