<?xml version="1.0" encoding="utf-8"?>
<!-- Generator: Adobe Illustrator 16.0.0, SVG Export Plug-In . SVG Version: 6.00 Build 0)  -->
<!DOCTYPE svg PUBLIC "-//W3C//DTD SVG 1.1//EN" "http://www.w3.org/Graphics/SVG/1.1/DTD/svg11.dtd">
<svg version="1.1" id="Layer_1" xmlns="http://www.w3.org/2000/svg" xmlns:xlink="http://www.w3.org/1999/xlink" x="0px" y="0px"
	 width="249.105px" height="535.475px" viewBox="0 0 249.105 535.475" enable-background="new 0 0 249.105 535.475"
	 xml:space="preserve">
<path fill="#231F20" d="M-23.815,236.577l-0.564-66.597c0,0,16.369-11.854,34.992-8.466c18.625,3.386,46.844,11.851,73.938,27.655
	c27.088,15.805,37.812,21.447,70.547,30.479c34.051,9.395,46.846,12.418,58.697,10.158c11.852-2.258,19.193-3.953,23.141-25.398
	c3.951-21.445,6.771-57.568,6.771-57.568l3.953,81.839c0,0,6.207,27.656-10.725,38.943c-16.932,11.286-57.004,23.7-90.303,5.641
	c-33.299-18.059-78.451-48.54-104.413-57.569C16.256,206.667-10.268,186.35-23.815,236.577z"/>
</svg>
