<?xml version="1.0" encoding="utf-8"?>
<!-- Generator: Adobe Illustrator 16.0.0, SVG Export Plug-In . SVG Version: 6.00 Build 0)  -->
<!DOCTYPE svg PUBLIC "-//W3C//DTD SVG 1.1//EN" "http://www.w3.org/Graphics/SVG/1.1/DTD/svg11.dtd">
<svg version="1.1" id="Layer_1" xmlns="http://www.w3.org/2000/svg" xmlns:xlink="http://www.w3.org/1999/xlink" x="0px" y="0px"
	 width="249.105px" height="535.475px" viewBox="0 0 249.105 535.475" enable-background="new 0 0 249.105 535.475"
	 xml:space="preserve">
<path fill="#231F20" d="M177,84.8c0,0-7.338,5.645-6.775,15.239c0.562,9.594,1.693,32.171,3.389,54.183
	c1.691,22.011,1.691,38.375,10.719,47.97c9.035,9.596,22.582,18.625,35.557,23.143c12.986,4.516,22.58,9.027,34.434,7.336
	c11.854-1.695,23.135-12.416,23.135-12.416s-12.414,24.268-20.314,34.988c-7.9,10.729-12.979,14.676-27.656,16.37
	c-14.676,1.693-37.248-6.774-49.664-13.547c-12.422-6.771-45.717-33.297-46.846-52.77c-1.133-19.471-2.256-31.884-2.256-54.461
	s0-51.36,0-51.36S163.455,87.06,177,84.8z"/>
</svg>
