<?xml version="1.0" encoding="utf-8"?>
<!-- Generator: Adobe Illustrator 16.0.0, SVG Export Plug-In . SVG Version: 6.00 Build 0)  -->
<!DOCTYPE svg PUBLIC "-//W3C//DTD SVG 1.1//EN" "http://www.w3.org/Graphics/SVG/1.1/DTD/svg11.dtd">
<svg version="1.1" id="Layer_1" xmlns="http://www.w3.org/2000/svg" xmlns:xlink="http://www.w3.org/1999/xlink" x="0px" y="0px"
	 width="249.105px" height="535.475px" viewBox="0 0 249.105 535.475" enable-background="new 0 0 249.105 535.475"
	 xml:space="preserve">
<path fill="#231F20" d="M-112.07,187.485c0,0-0.062-1.025-0.162-2.811c-0.648-11.469-2.92-54.314-0.969-58.709
	c2.258-5.079,5.641-10.724,20.883-6.772c15.236,3.952,35.559,10.159,54.182,22.012c18.623,11.852,32.17,20.883,60.953,39.507
	c28.785,18.627,56.445,36.682,84.1,42.893c27.65,6.211,40.066,12.982,53.05,7.338c12.982-5.646,19.75-7.904,27.088-24.27
	c7.338-16.367,9.6-31.039,9.6-31.039s-9.033,47.408-14.111,58.695c-5.08,11.285-8.465,23.701-22.012,29.912
	c-13.547,6.209-24.838,9.596-59.828-2.256c-34.992-11.852-67.158-29.354-93.689-45.154c-26.527-15.799-58.695-38.943-71.676-43.457
	c-12.982-4.515-31.041-9.593-34.994-8.467C-103.605,166.036-109.25,166.039-112.07,187.485z"/>
</svg>
