<?xml version="1.0" encoding="utf-8"?>
<!-- Generator: Adobe Illustrator 16.0.0, SVG Export Plug-In . SVG Version: 6.00 Build 0)  -->
<!DOCTYPE svg PUBLIC "-//W3C//DTD SVG 1.1//EN" "http://www.w3.org/Graphics/SVG/1.1/DTD/svg11.dtd">
<svg version="1.1" id="Layer_1" xmlns="http://www.w3.org/2000/svg" xmlns:xlink="http://www.w3.org/1999/xlink" x="0px" y="0px"
	 width="249.105px" height="535.475px" viewBox="0 0 249.105 535.475" enable-background="new 0 0 249.105 535.475"
	 xml:space="preserve">
<path fill="#231F20" d="M90.647-117.253c0,0-80.426,8.466-79.58,11.005c0.848,2.54,11.006,48.255,10.16,86.353
	c-0.846,38.096,0,64.342,0.846,113.443s-3.385,80.426,2.541,108.363c5.926,27.938,6.771,50.795,26.244,62.646
	c19.471,11.854,26.514,13.344,37.25,8.467c18.621-8.467,21.162-19.471,28.783-33.864c7.619-14.393,13.544-27.092,16.085-33.865
	c2.539-6.771-12.701,19.473-19.472,23.705c-6.775,4.234-24.551,5.926-29.629-11.852c0,0-11.852-24.551-12.699-54.182
	c-0.848-29.63-5.928-101.589-6.773-137.147c-0.848-35.555-0.848-74.499,0-92.277C65.248-84.237,65.248-108.787,90.647-117.253z"/>
</svg>
