<?xml version="1.0" encoding="utf-8"?>
<!-- Generator: Adobe Illustrator 16.0.0, SVG Export Plug-In . SVG Version: 6.00 Build 0)  -->
<!DOCTYPE svg PUBLIC "-//W3C//DTD SVG 1.1//EN" "http://www.w3.org/Graphics/SVG/1.1/DTD/svg11.dtd">
<svg version="1.1" id="Layer_1" xmlns="http://www.w3.org/2000/svg" xmlns:xlink="http://www.w3.org/1999/xlink" x="0px" y="0px"
	 width="249.105px" height="535.475px" viewBox="0 0 249.105 535.475" enable-background="new 0 0 249.105 535.475"
	 xml:space="preserve">
<path fill="#231F20" d="M206.072-156.403c0,0-6.773-25.967-11.854-29.915c-5.078-3.948-16.934-3.388-21.447,0
	c-4.512,3.386-18.621,15.801-23.141,28.784c-4.514,12.982-17.494,56.439-19.188,90.303c-0.152,3.017-0.273,6.013-0.375,8.989
	c-1.045,30.441,0.223,59.087-1.318,91.475c-1.693,35.557,2.258,103.847,2.258,103.847s0-169.319,1.691-189.637
	c1.697-20.317,10.162-96.511,22.012-108.363c11.855-11.852,22.014-19.753,32.736-15.238
	C197.386-171.975,203.25-169.384,206.072-156.403z"/>
</svg>
