<?xml version="1.0" encoding="utf-8"?>
<!-- Generator: Adobe Illustrator 16.0.0, SVG Export Plug-In . SVG Version: 6.00 Build 0)  -->
<!DOCTYPE svg PUBLIC "-//W3C//DTD SVG 1.1//EN" "http://www.w3.org/Graphics/SVG/1.1/DTD/svg11.dtd">
<svg version="1.1" id="Layer_1" xmlns="http://www.w3.org/2000/svg" xmlns:xlink="http://www.w3.org/1999/xlink" x="0px" y="0px"
	 width="249.105px" height="535.475px" viewBox="0 0 249.105 535.475" enable-background="new 0 0 249.105 535.475"
	 xml:space="preserve">
<path fill="#231F20" d="M181.511,86.798l-38.377,8.465c0,0-10.727,3.387-7.902,16.934c2.82,13.545,2.256,31.604,5.078,60.953
	c2.824,29.35,6.207,40.074,3.387,66.6s-3.953,22.576-8.465,27.09c-4.516,4.516-12.417,5.645-12.417,5.645s22.574,3.385,36.121,0.562
	c13.545-2.82,19.756-5.075,24.271-14.108c4.514-9.031,5.645-10.723,2.256-37.814c-3.387-27.092-2.822-42.326-6.209-70.549
	S170.224,98.085,181.511,86.798z"/>
</svg>
