<?xml version="1.0" encoding="utf-8"?>
<!-- Generator: Adobe Illustrator 16.0.0, SVG Export Plug-In . SVG Version: 6.00 Build 0)  -->
<!DOCTYPE svg PUBLIC "-//W3C//DTD SVG 1.1//EN" "http://www.w3.org/Graphics/SVG/1.1/DTD/svg11.dtd">
<svg version="1.1" id="Layer_1" xmlns="http://www.w3.org/2000/svg" xmlns:xlink="http://www.w3.org/1999/xlink" x="0px" y="0px"
	 width="249.105px" height="535.475px" viewBox="0 0 249.105 535.475" enable-background="new 0 0 249.105 535.475"
	 xml:space="preserve">
<path fill="#231F20" d="M4.496,97.585c0,0-47.41-33.018-48.259-88.046c-0.844-55.028,2.541-95.665,40.638-96.511
	C34.973-87.819,55.29-79.352,99.312-80.2c44.022-0.846,58.417,3.388,65.19-7.619c6.771-11.006,11.006-44.869,11.006-44.869
	s0,66.034-4.234,75.348c-4.232,9.312-7.621,25.396-36.404,23.704c-28.785-1.694-60.953-4.233-88.046-7.62
	c-27.091-3.385-65.187-3.385-69.42,10.16C-26.828-17.552-46.301,34.091,4.496,97.585z"/>
</svg>
