<?xml version="1.0" encoding="utf-8"?>
<!-- Generator: Adobe Illustrator 16.0.0, SVG Export Plug-In . SVG Version: 6.00 Build 0)  -->
<!DOCTYPE svg PUBLIC "-//W3C//DTD SVG 1.1//EN" "http://www.w3.org/Graphics/SVG/1.1/DTD/svg11.dtd">
<svg version="1.1" id="Layer_1" xmlns="http://www.w3.org/2000/svg" xmlns:xlink="http://www.w3.org/1999/xlink" x="0px" y="0px"
	 width="249.105px" height="535.475px" viewBox="0 0 249.105 535.475" enable-background="new 0 0 249.105 535.475"
	 xml:space="preserve">
<path fill="#231F20" d="M335.027,80.284c0,0-10.158,5.082-7.898,26.527c2.256,21.445,1.691,54.182,1.127,67.162
	c-0.566,12.978-2.258,24.832-7.9,40.07c-5.648,15.238-10.158,20.318-21.449,31.043c-11.289,10.725-32.168,18.062-45.152,20.885
	c-12.977,2.821-35.557-1.695-35.557-1.695s44.592,7.336,57.006-27.654c12.414-34.992,13.547-59.266,13.547-83.532
	c0-24.267-2.826-57.568-2.826-57.568S325.998,82.538,335.027,80.284z"/>
</svg>
