<?xml version="1.0" encoding="utf-8"?>
<!-- Generator: Adobe Illustrator 16.0.0, SVG Export Plug-In . SVG Version: 6.00 Build 0)  -->
<!DOCTYPE svg PUBLIC "-//W3C//DTD SVG 1.1//EN" "http://www.w3.org/Graphics/SVG/1.1/DTD/svg11.dtd">
<svg version="1.1" id="Layer_1" xmlns="http://www.w3.org/2000/svg" xmlns:xlink="http://www.w3.org/1999/xlink" x="0px" y="0px"
	 width="249.105px" height="535.475px" viewBox="0 0 249.105 535.475" enable-background="new 0 0 249.105 535.475"
	 xml:space="preserve">
<path fill="#231F20" d="M200.703-172.001c0,0-27.656,9.598-41.768,16.369c-14.107,6.773-27.088,16.93-28.215,22.574
	c-1.131,5.646-0.006,20.322,1.123,34.994c1.133,14.674,2.26,31.603,3.389,58.131c1.129,26.527,1.695,45.716,0,60.955
	c-1.695,15.238-2.256,24.267-8.467,28.783c-6.205,4.518-14.669,6.772-14.669,6.772s37.248-7.335,44.023-10.721
	c6.771-3.387,16.365-8.466,18.623-31.043s2.818-39.508,0.562-74.499c-2.254-34.992-4.518-58.701-1.691-71.68
	C176.437-144.344,177-158.455,200.703-172.001z"/>
</svg>
