<?xml version="1.0" encoding="utf-8"?>
<!-- Generator: Adobe Illustrator 16.0.0, SVG Export Plug-In . SVG Version: 6.00 Build 0)  -->
<!DOCTYPE svg PUBLIC "-//W3C//DTD SVG 1.1//EN" "http://www.w3.org/Graphics/SVG/1.1/DTD/svg11.dtd">
<svg version="1.1" id="Layer_1" xmlns="http://www.w3.org/2000/svg" xmlns:xlink="http://www.w3.org/1999/xlink" x="0px" y="0px"
	 width="249.105px" height="535.475px" viewBox="0 0 249.105 535.475" enable-background="new 0 0 249.105 535.475"
	 xml:space="preserve">
<path fill="#231F20" d="M-52.396,75.838c0,0,44.021,10.158,69.42-9.313C42.422,47.054,72.899,8.956,75.438-17.288
	c2.541-26.244,3.385-64.34-15.238-84.658c-18.625-20.318-38.943-36.404-55.027-38.097c-16.086-1.693-23.705-5.081-33.863,1.692
	c-10.162,6.773-18.627,17.779-18.627,17.779l36.404-41.483c0,0,11.006-6.772,30.477-6.772c19.473,0,44.025,13.545,56.723,26.244
	s26.242,34.711,29.631,50.796c3.385,16.085,8.465,38.943,2.541,63.494c-5.93,24.55-11.008,39.79-22.859,56.722
	C73.746,45.36,47.5,66.525,37.342,70.758C27.184,74.99-11.76,88.536-52.396,75.838z"/>
</svg>
