<?xml version="1.0" encoding="utf-8"?>
<!-- Generator: Adobe Illustrator 16.0.0, SVG Export Plug-In . SVG Version: 6.00 Build 0)  -->
<!DOCTYPE svg PUBLIC "-//W3C//DTD SVG 1.1//EN" "http://www.w3.org/Graphics/SVG/1.1/DTD/svg11.dtd">
<svg version="1.1" id="Layer_1" xmlns="http://www.w3.org/2000/svg" xmlns:xlink="http://www.w3.org/1999/xlink" x="0px" y="0px"
	 width="249.105px" height="535.475px" viewBox="0 0 249.105 535.475" enable-background="new 0 0 249.105 535.475"
	 xml:space="preserve">
<path fill="#231F20" d="M-57.937-29.827c0,0-1.691-31.324,9.311-41.483c11.006-10.159,34.711-24.55,66.883-22.011
	c32.17,2.539,69.42,2.539,99.898,6.773c30.476,4.232,56.718,7.619,70.265,1.692c13.545-5.927,17.779-15.239,20.32-30.478
	c2.537-15.238,8.465-56.722,8.465-56.722s-2.541,26.245-16.084,32.171c-13.547,5.926-33.867,9.312-61.805,7.619
	c-27.933-1.693-58.412-0.846-90.585-2.539c-32.168-1.693-45.715-0.848-63.49,3.385c-17.781,4.233-49.949,21.166-53.336,34.711
	C-71.484-83.162-75.717-63.69-57.937-29.827z"/>
</svg>
