<?xml version="1.0" encoding="utf-8"?>
<!-- Generator: Adobe Illustrator 16.0.0, SVG Export Plug-In . SVG Version: 6.00 Build 0)  -->
<!DOCTYPE svg PUBLIC "-//W3C//DTD SVG 1.1//EN" "http://www.w3.org/Graphics/SVG/1.1/DTD/svg11.dtd">
<svg version="1.1" id="Layer_1" xmlns="http://www.w3.org/2000/svg" xmlns:xlink="http://www.w3.org/1999/xlink" x="0px" y="0px"
	 width="249.105px" height="535.475px" viewBox="0 0 249.105 535.475" enable-background="new 0 0 249.105 535.475"
	 xml:space="preserve">
<path fill="#231F20" d="M196.172,9.311l-65.473,25.397c0,0-2.816,7.334-2.256,18.059c0.562,10.727,2.826,162.545-0.561,201.488
	c-3.387,38.943-28.788,207.416-120.217,302.232c-91.432,94.818-126.143,121.91-194.715,146.461
	c-68.574,24.553-147.307,48.256-215.033,33.018c-67.73-15.24-116.832-36.406-161.701-93.125
	c-44.867-56.723-49.945-77.041-53.334-93.973c-3.385-16.932-7.619-48.254-7.619-48.254s17.779,343.715,342.871,276.832
	C43.22,710.566,138.041,502.308,156.666,382.091c18.627-120.214,25.398-243.818,24.549-291.226
	C180.369,43.456,177.269,15.802,196.172,9.311z"/>
</svg>
