<?xml version="1.0" encoding="utf-8"?>
<!-- Generator: Adobe Illustrator 16.0.0, SVG Export Plug-In . SVG Version: 6.00 Build 0)  -->
<!DOCTYPE svg PUBLIC "-//W3C//DTD SVG 1.1//EN" "http://www.w3.org/Graphics/SVG/1.1/DTD/svg11.dtd">
<svg version="1.1" id="Layer_1" xmlns="http://www.w3.org/2000/svg" xmlns:xlink="http://www.w3.org/1999/xlink" x="0px" y="0px"
	 width="249.105px" height="535.475px" viewBox="0 0 249.105 535.475" enable-background="new 0 0 249.105 535.475"
	 xml:space="preserve">
<path fill="#231F20" d="M26.731,469.857c0,0,58.896,15.162,98.625-10.865c40.922-26.803,46.24-28.432,60.955-66.6
	c13.545-35.131,15.238-48.254,16.086-56.297c0.846-8.043,2.539-28.785,2.539-28.785s-0.42,49.527-23.703,79.156
	c-23.285,29.633-44.449,42.754-63.919,49.102c-19.467,6.352-37.672,10.16-57.986,6.352c-20.322-3.809-55.033-21.588-62.229-27.514
	c-7.195-5.928-10.16-6.773-10.16-6.773S11.49,458.003,26.731,469.857z"/>
</svg>
