<?xml version="1.0" encoding="utf-8"?>
<!-- Generator: Adobe Illustrator 16.0.0, SVG Export Plug-In . SVG Version: 6.00 Build 0)  -->
<!DOCTYPE svg PUBLIC "-//W3C//DTD SVG 1.1//EN" "http://www.w3.org/Graphics/SVG/1.1/DTD/svg11.dtd">
<svg version="1.1" id="Layer_1" xmlns="http://www.w3.org/2000/svg" xmlns:xlink="http://www.w3.org/1999/xlink" x="0px" y="0px"
	 width="249.105px" height="535.475px" viewBox="0 0 249.105 535.475" enable-background="new 0 0 249.105 535.475"
	 xml:space="preserve">
<path fill="#231F20" d="M-93.925,272.034c0,0-2.539-52.488,1.693-68.574c4.232-16.084,5.926-25.397,17.777-22.857
	c11.854,2.539,30.477,13.545,54.182,22.01c23.705,8.468,43.176,17.779,66.033,18.627c22.861,0.846,38.945,2.539,48.256-17.779
	c9.312-20.318,5.078-17.778,9.312-45.716c4.232-27.937,6.773-89.739,7.621-104.13c0.844-14.393,2.539-44.023,2.539-44.023
	s-5.08,146.461-9.312,173.551c-4.234,27.092,0.846,56.723-19.471,69.421c-20.322,12.698-35.557,19.471-63.494,8.466
	c-27.938-11.006-65.189-30.478-80.43-33.018C-74.454,225.472-93.925,207.694-93.925,272.034z"/>
</svg>
