<?xml version="1.0" encoding="utf-8"?>
<!-- Generator: Adobe Illustrator 16.0.0, SVG Export Plug-In . SVG Version: 6.00 Build 0)  -->
<!DOCTYPE svg PUBLIC "-//W3C//DTD SVG 1.1//EN" "http://www.w3.org/Graphics/SVG/1.1/DTD/svg11.dtd">
<svg version="1.1" id="Layer_1" xmlns="http://www.w3.org/2000/svg" xmlns:xlink="http://www.w3.org/1999/xlink" x="0px" y="0px"
	 width="249.105px" height="535.475px" viewBox="0 0 249.105 535.475" enable-background="new 0 0 249.105 535.475"
	 xml:space="preserve">
<path fill="#231F20" d="M159.224-129.665c0,0-22.859,15.238-20.318,22.857c2.539,7.619,2.539,31.324,16.93,54.182
	s20.32,40.637,16.088,51.643c-4.234,11.006-7.623,17.778-26.246,27.938c-18.625,10.158-51.642,21.164-59.259,22.011
	c-7.621,0.847-11.854,0.847-11.854,0.847s46.561-15.238,54.181-27.091c7.619-11.853,11.006-16.085,3.385-29.63
	c-7.617-13.546-19.47-33.864-25.396-50.796S92.344-92.415,159.224-129.665z"/>
</svg>
