<?xml version="1.0" encoding="utf-8"?>
<!-- Generator: Adobe Illustrator 16.0.0, SVG Export Plug-In . SVG Version: 6.00 Build 0)  -->
<!DOCTYPE svg PUBLIC "-//W3C//DTD SVG 1.1//EN" "http://www.w3.org/Graphics/SVG/1.1/DTD/svg11.dtd">
<svg version="1.1" id="Layer_1" xmlns="http://www.w3.org/2000/svg" xmlns:xlink="http://www.w3.org/1999/xlink" x="0px" y="0px"
	 width="249.105px" height="535.475px" viewBox="0 0 249.105 535.475" enable-background="new 0 0 249.105 535.475"
	 xml:space="preserve">
<path fill="#231F20" d="M67.166-160.227c0,0-0.203-0.808-0.6-2.242c-2.711-9.831-14.553-49.148-33.264-60.969
	c-21.449-13.545-33.863-12.418-44.588-10.158s-32.172,11.852-38.943,30.477c-6.773,18.625-12.416,45.151-8.467,63.211
	c5.006,22.874,8.467,39.504,20.316,55.874c11.854,16.37,9.031,15.239,20.32,25.964S5.647-36.626,5.647-36.626
	s-35.557-28.783-41.203-67.161c-5.639-38.378-3.385-68.29,12.984-80.708c16.365-12.417,31.041-21.448,44.021-19.189
	c12.982,2.259,36.283,9.672,45.514,42.649"/>
</svg>
