<?xml version="1.0" encoding="utf-8"?>
<!-- Generator: Adobe Illustrator 16.0.0, SVG Export Plug-In . SVG Version: 6.00 Build 0)  -->
<!DOCTYPE svg PUBLIC "-//W3C//DTD SVG 1.1//EN" "http://www.w3.org/Graphics/SVG/1.1/DTD/svg11.dtd">
<svg version="1.1" id="Layer_1" xmlns="http://www.w3.org/2000/svg" xmlns:xlink="http://www.w3.org/1999/xlink" x="0px" y="0px"
	 width="249.105px" height="535.475px" viewBox="0 0 249.105 535.475" enable-background="new 0 0 249.105 535.475"
	 xml:space="preserve">
<path fill="#231F20" d="M124.168-10.662c0,0,30.476-5.081,35.556-23.704c5.08-18.627,10.725-38.379-2.822-48.537
	c-13.545-10.16-22.012-13.546-27.656-11.853c-5.642,1.692-14.105,2.259-19.75,10.159c-5.646,7.9-12.418,16.932-13.545,22.012
	c-1.131,5.08-3.387,12.979-3.387,12.979s0-32.734,3.949-44.588c3.951-11.852,14.111-29.908,21.447-34.425
	c7.337-4.519,27.654-10.722,37.812-6.772c10.16,3.948,20.32,9.031,27.094,15.238s15.803,22.574,19.754,31.039
	c3.951,8.466,7.336,19.752,6.771,32.17c-0.566,12.418-2.824,21.449-7.34,29.351c-4.51,7.9-11.287,16.932-21.441,20.317
	C170.449-3.889,141.099-0.503,124.168-10.662z"/>
</svg>
