<?xml version="1.0" encoding="utf-8"?>
<!-- Generator: Adobe Illustrator 16.0.0, SVG Export Plug-In . SVG Version: 6.00 Build 0)  -->
<!DOCTYPE svg PUBLIC "-//W3C//DTD SVG 1.1//EN" "http://www.w3.org/Graphics/SVG/1.1/DTD/svg11.dtd">
<svg version="1.1" id="Layer_1" xmlns="http://www.w3.org/2000/svg" xmlns:xlink="http://www.w3.org/1999/xlink" x="0px" y="0px"
	 width="249.105px" height="535.475px" viewBox="0 0 249.105 535.475" enable-background="new 0 0 249.105 535.475"
	 xml:space="preserve">
<path fill="#231F20" d="M215.558-7.092c0,0-17.779-0.423-20.742,13.969c-2.965,14.393-2.965,52.065-0.846,67.728
	c2.117,15.661,3.088,26.568,4.232,52.488c1.271,28.785,1.271,33.439-0.424,48.677c-1.607,14.459-2.395,12.354-4.23,20.318
	c-2.539,11.006-6.35,14.816-6.35,14.816s-15.238,5.08-22.012,8.891c-6.773,3.809-23.281,13.967-23.281,13.967
	s11.426-16.508,13.123-26.244c1.691-9.736,4.652-36.402,3.807-60.531c-0.846-24.128-2.115-55.027-4.656-80.002
	c-2.539-24.975-3.389-45.294-1.691-51.219c1.691-5.926,4.656-12.699,20.74-16.51C189.314-4.552,200.742-7.092,215.558-7.092z"/>
</svg>
