<?xml version="1.0" encoding="utf-8"?>
<!-- Generator: Adobe Illustrator 16.0.0, SVG Export Plug-In . SVG Version: 6.00 Build 0)  -->
<!DOCTYPE svg PUBLIC "-//W3C//DTD SVG 1.1//EN" "http://www.w3.org/Graphics/SVG/1.1/DTD/svg11.dtd">
<svg version="1.1" id="Layer_1" xmlns="http://www.w3.org/2000/svg" xmlns:xlink="http://www.w3.org/1999/xlink" x="0px" y="0px"
	 width="249.105px" height="535.475px" viewBox="0 0 249.105 535.475" enable-background="new 0 0 249.105 535.475"
	 xml:space="preserve">
<path fill="#231F20" d="M74.039,223.325c0,0-8.469-171.009-6.209-198.666c2.258-27.656,9.596-95.381,19.754-121.344
	c10.162-25.963,23.139-68.858,41.765-82.966c14.979-11.343,25.959-16.932,36.684-12.418c10.725,4.515,18.062,8.47,22.578,19.19
	c4.514,10.721,5.078,23.705,5.078,23.705s-9.031-15.801-19.191-18.625s-34.994,3.949-45.717,15.801
	c-10.718,11.853-17.494,17.494-27.652,44.021c-10.158,26.529-24.266,87.48-27.09,120.217S68.959,99.162,74.039,223.325z"/>
</svg>
