<?xml version="1.0" encoding="utf-8"?>
<!-- Generator: Adobe Illustrator 16.0.0, SVG Export Plug-In . SVG Version: 6.00 Build 0)  -->
<!DOCTYPE svg PUBLIC "-//W3C//DTD SVG 1.1//EN" "http://www.w3.org/Graphics/SVG/1.1/DTD/svg11.dtd">
<svg version="1.1" id="Layer_1" xmlns="http://www.w3.org/2000/svg" xmlns:xlink="http://www.w3.org/1999/xlink" x="0px" y="0px"
	 width="249.105px" height="535.475px" viewBox="0 0 249.105 535.475" enable-background="new 0 0 249.105 535.475"
	 xml:space="preserve">
<path fill="#231F20" d="M9.664,114.505c0,0,4.518,51.358,8.465,65.468c3.951,14.109,12.982,41.768,20.881,51.361
	c7.904,9.592,22.012,27.092,45.717,31.604c23.705,4.514,33.865,9.598,51.925,7.338c18.059-2.258,26.525-9.596,33.863-17.497
	s9.031-18.064,12.416-31.045c3.389-12.979,6.771-25.395,6.771-25.395s-14.111,20.889-19.754,21.447
	c-5.643,0.562-32.73,9.029-51.921,3.947c-19.191-5.076-38.945-13.543-46.281-23.703c-7.338-10.16-14.672-22.012-15.805-36.683
	c-1.127-14.674-3.949-41.765-2.82-52.489c1.129-10.724,3.387-22.575,3.387-22.575S13.051,111.119,9.664,114.505z"/>
</svg>
