<?xml version="1.0" encoding="utf-8"?>
<!-- Generator: Adobe Illustrator 16.0.0, SVG Export Plug-In . SVG Version: 6.00 Build 0)  -->
<!DOCTYPE svg PUBLIC "-//W3C//DTD SVG 1.1//EN" "http://www.w3.org/Graphics/SVG/1.1/DTD/svg11.dtd">
<svg version="1.1" id="Layer_1" xmlns="http://www.w3.org/2000/svg" xmlns:xlink="http://www.w3.org/1999/xlink" x="0px" y="0px"
	 width="249.105px" height="535.475px" viewBox="0 0 249.105 535.475" enable-background="new 0 0 249.105 535.475"
	 xml:space="preserve">
<path fill="#231F20" d="M293.293,102.362l-47.969,16.37c0,0,0.561,18.058,4.51,44.586c3.953,26.527,2.822,34.429,2.822,51.361
	c0,16.93,0.564,21.445-4.514,33.297c-5.08,11.854-7.9,14.111-16.932,19.191c-9.033,5.077-19.189,5.645-19.189,5.645
	s35.555-5.081,51.361-15.805c15.803-10.725,24.266-12.979,26.527-33.863c2.254-20.883,0.002-46.279-2.26-63.212
	C285.39,142.999,283.133,107.443,293.293,102.362z"/>
</svg>
