<?xml version="1.0" encoding="utf-8"?>
<!-- Generator: Adobe Illustrator 16.0.0, SVG Export Plug-In . SVG Version: 6.00 Build 0)  -->
<!DOCTYPE svg PUBLIC "-//W3C//DTD SVG 1.1//EN" "http://www.w3.org/Graphics/SVG/1.1/DTD/svg11.dtd">
<svg version="1.1" id="Layer_1" xmlns="http://www.w3.org/2000/svg" xmlns:xlink="http://www.w3.org/1999/xlink" x="0px" y="0px"
	 width="249.105px" height="535.475px" viewBox="0 0 249.105 535.475" enable-background="new 0 0 249.105 535.475"
	 xml:space="preserve">
<path fill="#231F20" d="M7.229-144.952c0,0-47.409,26.528-55.313,31.609c-7.9,5.078-22.576,20.883-12.98,37.25
	c9.596,16.365,35.558,51.921,60.955,97.638c25.396,45.716,31.604,68.293,35.555,95.383c3.955,27.092,10.281,51.308-6.207,82.965
	c-14.109,27.092-31.041,38.377-43.457,34.992c-12.415-3.387-20.322-9.033-28.219-27.09c-7.902-18.062-9.031-26.525-9.031-26.525
	s9.926,64.734,36.685,73.367c34.991,11.291,75.631-5.641,88.046-36.684c12.416-31.043,25.962-98.202,2.258-151.821
	C51.814,12.514,17.948-47.309,1.018-69.321c-16.933-22.011-34.991-42.333,3.952-75.631"/>
</svg>
