<?xml version="1.0" encoding="utf-8"?>
<!-- Generator: Adobe Illustrator 16.0.0, SVG Export Plug-In . SVG Version: 6.00 Build 0)  -->
<!DOCTYPE svg PUBLIC "-//W3C//DTD SVG 1.1//EN" "http://www.w3.org/Graphics/SVG/1.1/DTD/svg11.dtd">
<svg version="1.1" id="Layer_1" xmlns="http://www.w3.org/2000/svg" xmlns:xlink="http://www.w3.org/1999/xlink" x="0px" y="0px"
	 width="249.105px" height="535.475px" viewBox="0 0 249.105 535.475" enable-background="new 0 0 249.105 535.475"
	 xml:space="preserve">
<path fill="#231F20" d="M-616.27,432.04c0,0-13.547,38.943-9.312,62.646c4.232,23.703,2.541,50.795,38.096,57.568
	c35.559,6.773,141.379,12.699,226.887,12.699c85.504,0,198.102,3.387,300.541,0c102.436-3.389,162.543,2.539,226.885,7.619
	c64.34,5.078,88.889,5.926,96.51,16.932c7.617,11.006,10.158,17.779,8.465,28.783c-1.691,11.006-7.619,23.707-7.619,23.707
	s26.244-58.414,31.326-75.348c5.078-16.932,6.771-41.484-13.549-44.869c-20.316-3.389-74.496-11.852-135.451-9.314
	c-60.956,2.541-369.116,4.234-446.155,6.775c-77.039,2.539-242.971,4.234-261.596-2.541
	C-579.866,509.927-624.737,498.075-616.27,432.04z"/>
</svg>
