<?xml version="1.0" encoding="utf-8"?>
<!-- Generator: Adobe Illustrator 16.0.0, SVG Export Plug-In . SVG Version: 6.00 Build 0)  -->
<!DOCTYPE svg PUBLIC "-//W3C//DTD SVG 1.1//EN" "http://www.w3.org/Graphics/SVG/1.1/DTD/svg11.dtd">
<svg version="1.1" id="Layer_1" xmlns="http://www.w3.org/2000/svg" xmlns:xlink="http://www.w3.org/1999/xlink" x="0px" y="0px"
	 width="249.105px" height="535.475px" viewBox="0 0 249.105 535.475" enable-background="new 0 0 249.105 535.475"
	 xml:space="preserve">
<path fill="#231F20" d="M146.066-125.76c0,0-0.805,0.01-2.234,0.035c-9.332,0.182-45.206,1.125-56.46,5.043
	c-12.98,4.518-45.153,20.881-20.318,49.103s48.536,50.229,59.261,67.728c10.725,17.497,12.98,28.218,4.514,38.943
	c-8.465,10.724-12.415,12.982-12.415,12.982s26.524-16.935,37.813-34.995c11.289-18.059,17.498-21.448,4.516-42.329
	c-12.98-20.881-34.428-45.716-41.766-55.309C111.638-94.153,101.481-115.602,146.066-125.76z"/>
</svg>
