<?xml version="1.0" encoding="utf-8"?>
<!-- Generator: Adobe Illustrator 16.0.0, SVG Export Plug-In . SVG Version: 6.00 Build 0)  -->
<!DOCTYPE svg PUBLIC "-//W3C//DTD SVG 1.1//EN" "http://www.w3.org/Graphics/SVG/1.1/DTD/svg11.dtd">
<svg version="1.1" id="Layer_1" xmlns="http://www.w3.org/2000/svg" xmlns:xlink="http://www.w3.org/1999/xlink" x="0px" y="0px"
	 width="249.105px" height="535.475px" viewBox="0 0 249.105 535.475" enable-background="new 0 0 249.105 535.475"
	 xml:space="preserve">
<path fill="#231F20" d="M-452.32,188.149c0,0-11.006,75.346,8.464,88.891c19.473,13.547,29.632,19.473,82.967,16.086
	c53.335-3.385,167.625-3.385,255.67-8.467c88.044-5.078,165.086-12.697,177.784-6.771c12.697,5.926,12.697,10.16,15.237,19.471
	c2.54,9.312,2.54,13.545,2.54,13.545l3.387-64.34c0,0,5.079-14.393-15.238-14.393c-20.316,0-100.745-1.691-184.557,3.389
	c-83.811,5.078-233.658,12.697-269.214,11.004S-461.632,257.569-452.32,188.149z"/>
</svg>
