<?xml version="1.0" encoding="utf-8"?>
<!-- Generator: Adobe Illustrator 16.0.0, SVG Export Plug-In . SVG Version: 6.00 Build 0)  -->
<!DOCTYPE svg PUBLIC "-//W3C//DTD SVG 1.1//EN" "http://www.w3.org/Graphics/SVG/1.1/DTD/svg11.dtd">
<svg version="1.1" id="Layer_1" xmlns="http://www.w3.org/2000/svg" xmlns:xlink="http://www.w3.org/1999/xlink" x="0px" y="0px"
	 width="249.105px" height="535.475px" viewBox="0 0 249.105 535.475" enable-background="new 0 0 249.105 535.475"
	 xml:space="preserve">
<path fill="#231F20" d="M-71.869,164.73l5.078-64.342c0,0,13.547-12.699,32.174,4.234c18.625,16.931,38.098,42.328,54.18,62.646
	c16.086,20.318,30.479,38.097,44.869,47.41s31.326,27.936,41.484,8.465s15.238-33.016,16.084-50.794
	c0.846-17.778,7.619-128.682,8.464-158.312c0.848-29.63-0.846-54.182-0.846-54.182s-0.846,260.75-7.619,281.914
	c-6.771,21.166-32.17,38.098-55.029,26.244c-22.855-11.852-48.254-37.25-60.107-52.488c-11.85-15.24-33.861-43.175-45.717-55.875
	C-50.703,146.95-67.633,124.94-71.869,164.73z"/>
</svg>
