<?xml version="1.0" encoding="utf-8"?>
<!-- Generator: Adobe Illustrator 16.0.0, SVG Export Plug-In . SVG Version: 6.00 Build 0)  -->
<!DOCTYPE svg PUBLIC "-//W3C//DTD SVG 1.1//EN" "http://www.w3.org/Graphics/SVG/1.1/DTD/svg11.dtd">
<svg version="1.1" id="Layer_1" xmlns="http://www.w3.org/2000/svg" xmlns:xlink="http://www.w3.org/1999/xlink" x="0px" y="0px"
	 width="249.105px" height="535.475px" viewBox="0 0 249.105 535.475" enable-background="new 0 0 249.105 535.475"
	 xml:space="preserve">
<path fill="#231F20" d="M33.625,187.341l21.441-29.914c0,0,11.289-10.155,30.479-7.898c19.193,2.255,34.992,5.641,54.183,17.492
	c19.193,11.851,37.818,21.449,60.391,37.816c22.574,16.365,39.506,28.785,59.824,42.33s22.012,19.188,34.428,19.752
	c12.418,0.564,21.447-6.207,21.447-6.207l-35.557,31.604c0,0-12.982,10.16-22.01,3.953c-9.029-6.207-25.4-19.189-53.619-39.508
	c-28.217-20.318-49.104-41.199-83.529-56.438C86.678,185.083,54.506,161.942,33.625,187.341z"/>
</svg>
