<?xml version="1.0" encoding="utf-8"?>
<!-- Generator: Adobe Illustrator 16.0.0, SVG Export Plug-In . SVG Version: 6.00 Build 0)  -->
<!DOCTYPE svg PUBLIC "-//W3C//DTD SVG 1.1//EN" "http://www.w3.org/Graphics/SVG/1.1/DTD/svg11.dtd">
<svg version="1.1" id="Layer_1" xmlns="http://www.w3.org/2000/svg" xmlns:xlink="http://www.w3.org/1999/xlink" x="0px" y="0px"
	 width="249.105px" height="535.475px" viewBox="0 0 249.105 535.475" enable-background="new 0 0 249.105 535.475"
	 xml:space="preserve">
<path fill="#231F20" d="M-21.994-144.276L-57.552-101.1c0,0-11.006,6.773-0.846,27.092s15.24,38.942,36.404,58.415
	C-0.83,3.877,7.637,14.882,14.408,32.661c6.775,17.779,11.006,30.478-1.691,44.022C0.018,90.23-2.523,91.075-14.375,94.462
	s-40.637,11.006-58.416,11.006c-17.775,0-60.955-1.693-60.955-1.693s74.5,6.773,111.752-3.387
	C15.254,90.23,38.959,80.917,46.578,60.599c7.621-20.318,15.24-30.478-2.539-55.027C26.262-18.981,0.018-50.303-16.07-69.776
	C-32.154-89.248-46.547-114.645-21.994-144.276z"/>
</svg>
