<?xml version="1.0" encoding="utf-8"?>
<!-- Generator: Adobe Illustrator 16.0.0, SVG Export Plug-In . SVG Version: 6.00 Build 0)  -->
<!DOCTYPE svg PUBLIC "-//W3C//DTD SVG 1.1//EN" "http://www.w3.org/Graphics/SVG/1.1/DTD/svg11.dtd">
<svg version="1.1" id="Layer_1" xmlns="http://www.w3.org/2000/svg" xmlns:xlink="http://www.w3.org/1999/xlink" x="0px" y="0px"
	 width="249.105px" height="535.475px" viewBox="0 0 249.105 535.475" enable-background="new 0 0 249.105 535.475"
	 xml:space="preserve">
<path fill="#231F20" d="M-50.102,280.167c0,0,11.844-36.681,23.135-44.022c11.289-7.338,42.328-7.341,59.83-2.823
	c17.492,4.516,97.635,14.107,141.659,25.398c44.023,11.289,124.164,33.3,157.467,39.507c33.301,6.207,76.193,14.674,99.896,4.514
	c23.703-10.158,34.432-16.363,41.205-37.81c6.773-21.451-20.879,59.822-29.914,69.98c-9.029,10.16-29.914,24.836-55.312,17.498
	s-107.795-28.783-158.027-40.635c-50.236-11.854-146.182-33.861-173.84-38.379C28.347,268.878-45.024,246.87-50.102,280.167z"/>
</svg>
