<?xml version="1.0" encoding="utf-8"?>
<!-- Generator: Adobe Illustrator 16.0.0, SVG Export Plug-In . SVG Version: 6.00 Build 0)  -->
<!DOCTYPE svg PUBLIC "-//W3C//DTD SVG 1.1//EN" "http://www.w3.org/Graphics/SVG/1.1/DTD/svg11.dtd">
<svg version="1.1" id="Layer_1" xmlns="http://www.w3.org/2000/svg" xmlns:xlink="http://www.w3.org/1999/xlink" x="0px" y="0px"
	 width="249.105px" height="535.475px" viewBox="0 0 249.105 535.475" enable-background="new 0 0 249.105 535.475"
	 xml:space="preserve">
<path fill="#231F20" d="M-21.805,113.073l33.017-36.404c0,0,29.629,16.933,44.868,42.33c15.239,25.398,31.324,49.947,45.717,72.806
	c14.394,22.859,21.165,35.557,33.863,31.324c12.699-4.232,22.859-8.465,23.705-27.938c0.844-19.471,0.844-30.476,0.844-30.476
	s7.705,84.353-8.463,99.048c-18.625,16.936-38.096,27.094-60.108,2.539c-22.011-24.549-48.255-68.572-63.495-100.742
	C12.905,133.392-1.486,107.148-21.805,113.073z"/>
</svg>
