<?xml version="1.0" encoding="utf-8"?>
<!-- Generator: Adobe Illustrator 16.0.0, SVG Export Plug-In . SVG Version: 6.00 Build 0)  -->
<!DOCTYPE svg PUBLIC "-//W3C//DTD SVG 1.1//EN" "http://www.w3.org/Graphics/SVG/1.1/DTD/svg11.dtd">
<svg version="1.1" id="Layer_1" xmlns="http://www.w3.org/2000/svg" xmlns:xlink="http://www.w3.org/1999/xlink" x="0px" y="0px"
	 width="249.105px" height="535.475px" viewBox="0 0 249.105 535.475" enable-background="new 0 0 249.105 535.475"
	 xml:space="preserve">
<path fill="#231F20" d="M93.065-129.278c0,0-1.248,0.036-3.361,0.122c-8.188,0.331-29.396,1.418-41.508,4.11
	c-15.24,3.386-42.329,4.233-43.177,33.864c-0.848,29.63,0.848,42.329,2.539,71.958c1.693,29.631,3.389,48.258,3.389,66.882
	c0,18.625-0.849,23.705-5.928,27.938c-5.081,4.233,39.789-7.62,44.023-16.933s5.08-17.777,2.539-60.107
	c-2.539-42.329-5.926-67.727-3.386-86.352C50.735-106.421,61.742-122.507,93.065-129.278z"/>
</svg>
