<?xml version="1.0" encoding="utf-8"?>
<!-- Generator: Adobe Illustrator 16.0.0, SVG Export Plug-In . SVG Version: 6.00 Build 0)  -->
<!DOCTYPE svg PUBLIC "-//W3C//DTD SVG 1.1//EN" "http://www.w3.org/Graphics/SVG/1.1/DTD/svg11.dtd">
<svg version="1.1" id="Layer_1" xmlns="http://www.w3.org/2000/svg" xmlns:xlink="http://www.w3.org/1999/xlink" x="0px" y="0px"
	 width="249.105px" height="535.475px" viewBox="0 0 249.105 535.475" enable-background="new 0 0 249.105 535.475"
	 xml:space="preserve">
<path fill="#231F20" d="M341.236-39.059l-50.797,16.366c0,0-19.752,1.692-20.883-16.933c-1.129-18.625-5.641-54.747-11.852-72.807
	c-6.209-18.059-21.443-30.48-29.912-25.964c-8.467,4.519-24.834,21.45-26.527,34.431c-1.693,12.979-2.822,19.752-2.822,19.752
	s1.129-37.812,10.723-56.438c9.598-18.625,17.496-39.508,41.768-37.249c23.637,2.198,36.686,16.928,42.328,37.812
	c5.645,20.885,7.902,55.311,14.676,71.113C314.709-53.172,313.582-35.108,341.236-39.059z"/>
</svg>
