<?xml version="1.0" encoding="utf-8"?>
<!-- Generator: Adobe Illustrator 16.0.0, SVG Export Plug-In . SVG Version: 6.00 Build 0)  -->
<!DOCTYPE svg PUBLIC "-//W3C//DTD SVG 1.1//EN" "http://www.w3.org/Graphics/SVG/1.1/DTD/svg11.dtd">
<svg version="1.1" id="Layer_1" xmlns="http://www.w3.org/2000/svg" xmlns:xlink="http://www.w3.org/1999/xlink" x="0px" y="0px"
	 width="249.105px" height="535.475px" viewBox="0 0 249.105 535.475" enable-background="new 0 0 249.105 535.475"
	 xml:space="preserve">
<path fill="#231F20" d="M-2.17-153.483c0,0-28.779-5.079-37.246,3.387c-8.465,8.465-10.162,11.852-10.725,19.752
	c-0.562,7.901,1.129,20.881,7.902,29.912s23.139,33.863,35.553,44.589C5.733-45.12,31.698-20.853,41.856-16.901
	C52.016-12.95,71.768-6.177,71.768-6.177S-20.791-37.219-60.301-109.461c-16.963-31.02-15.238-40.073-3.949-57.005
	c4.516-6.772,12.414-5.642,12.414-5.642S-11.76-159.124-2.17-153.483z"/>
</svg>
