<?xml version="1.0" encoding="utf-8"?>
<!-- Generator: Adobe Illustrator 16.0.0, SVG Export Plug-In . SVG Version: 6.00 Build 0)  -->
<!DOCTYPE svg PUBLIC "-//W3C//DTD SVG 1.1//EN" "http://www.w3.org/Graphics/SVG/1.1/DTD/svg11.dtd">
<svg version="1.1" id="Layer_1" xmlns="http://www.w3.org/2000/svg" xmlns:xlink="http://www.w3.org/1999/xlink" x="0px" y="0px"
	 width="249.105px" height="535.475px" viewBox="0 0 249.105 535.475" enable-background="new 0 0 249.105 535.475"
	 xml:space="preserve">
<path fill="#231F20" d="M219.088-8.639l-49.668-2.259c0,0-17.498-5.083-15.24-22.577c2.26-17.493,3.955-32.17-0.561-45.149
	c-4.518-12.979-10.723-22.574-19.191-24.833c-8.465-2.258-15.802-1.131-22.009,2.822c-6.209,3.951-10.164,9.027-14.115,12.979
	c-3.945,3.952-9.023,7.903-9.023,7.903s16.359-28.788,22.572-34.994c6.211-6.207,15.24-20.318,32.171-22.574
	c13.998-1.864,28.221,0,34.992,9.594c6.773,9.594,13.543,16.37,15.801,31.043c2.26,14.674,2.822,30.475,1.693,41.198
	C195.379-44.762,187.482-17.105,219.088-8.639z"/>
</svg>
