<?xml version="1.0" encoding="utf-8"?>
<!-- Generator: Adobe Illustrator 16.0.0, SVG Export Plug-In . SVG Version: 6.00 Build 0)  -->
<!DOCTYPE svg PUBLIC "-//W3C//DTD SVG 1.1//EN" "http://www.w3.org/Graphics/SVG/1.1/DTD/svg11.dtd">
<svg version="1.1" id="Layer_1" xmlns="http://www.w3.org/2000/svg" xmlns:xlink="http://www.w3.org/1999/xlink" x="0px" y="0px"
	 width="249.105px" height="535.475px" viewBox="0 0 249.105 535.475" enable-background="new 0 0 249.105 535.475"
	 xml:space="preserve">
<path fill="#231F20" d="M76.281-145.016c0,0-32.732,23.141-44.021,37.249C20.973-93.659,1.217-75.596,17.584-53.585
	C33.955-31.574,61.047,1.722,77.41,18.091c16.369,16.368,31.609,33.865,32.736,46.846c1.129,12.98,0.002,23.705-9.029,33.863
	c-9.029,10.16-18.061,19.188-35.557,29.347C48.063,138.306,20.975,146.21,1.219,151.29c-19.752,5.079-91.994,11.852-91.994,11.852
	s143.918-2.824,199.795-58.133c55.873-55.311,40.634-76.197,6.771-112.316C81.926-43.427,57.656-71.648,52.576-78.421
	C47.5-85.194,28.871-112.281,76.281-145.016z"/>
</svg>
