<?xml version="1.0" encoding="utf-8"?>
<!-- Generator: Adobe Illustrator 16.0.0, SVG Export Plug-In . SVG Version: 6.00 Build 0)  -->
<!DOCTYPE svg PUBLIC "-//W3C//DTD SVG 1.1//EN" "http://www.w3.org/Graphics/SVG/1.1/DTD/svg11.dtd">
<svg version="1.1" id="Layer_1" xmlns="http://www.w3.org/2000/svg" xmlns:xlink="http://www.w3.org/1999/xlink" x="0px" y="0px"
	 width="249.105px" height="535.475px" viewBox="0 0 249.105 535.475" enable-background="new 0 0 249.105 535.475"
	 xml:space="preserve">
<path fill="#231F20" d="M-86.574-143.472c0,0,6.771-15.8,21.447-25.397c14.67-9.596,40.068-27.09,63.773-15.237
	c23.703,11.853,42.895,22.011,55.314,57.566c12.414,35.558,20.314,57.007,12.414,88.046S57.908,2.703,38.721,21.327
	C19.53,39.954,9.938,47.858-20.541,60.839c-28.75,12.24-75.627,5.078-75.627,5.078s44.021-4.514,80.145-31.605
	c36.119-27.09,53.615-46.844,49.666-88.61C29.69-96.066,16.707-127.67-6.996-140.651C-30.697-153.632-39.73-159.838-86.574-143.472z
	"/>
</svg>
