<?xml version="1.0" encoding="utf-8"?>
<!-- Generator: Adobe Illustrator 16.0.0, SVG Export Plug-In . SVG Version: 6.00 Build 0)  -->
<!DOCTYPE svg PUBLIC "-//W3C//DTD SVG 1.1//EN" "http://www.w3.org/Graphics/SVG/1.1/DTD/svg11.dtd">
<svg version="1.1" id="Layer_1" xmlns="http://www.w3.org/2000/svg" xmlns:xlink="http://www.w3.org/1999/xlink" x="0px" y="0px"
	 width="249.105px" height="535.475px" viewBox="0 0 249.105 535.475" enable-background="new 0 0 249.105 535.475"
	 xml:space="preserve">
<path fill="#231F20" d="M-19.381-152.741c0,0-23.703,25.396-27.938,32.17c-4.232,6.771-9.311,25.396,8.465,38.097
	C-21.072-69.776-5.834-58.77,0.942-49.458c6.77,9.312,17.775,15.238,13.539,33.018C10.248,1.338-15.992,19.115-31.232,19.115
	c-15.238,0-23.703,4.233-29.631,0.847c-5.928-3.386,47.41,11.853,76.191-14.391c28.787-26.245,33.865-38.098,27.094-58.415
	C35.649-73.162,28.03-79.934,11.098-91.787S-38.004-127.344-19.381-152.741z"/>
</svg>
