<?xml version="1.0" encoding="utf-8"?>
<!-- Generator: Adobe Illustrator 16.0.0, SVG Export Plug-In . SVG Version: 6.00 Build 0)  -->
<!DOCTYPE svg PUBLIC "-//W3C//DTD SVG 1.1//EN" "http://www.w3.org/Graphics/SVG/1.1/DTD/svg11.dtd">
<svg version="1.1" id="Layer_1" xmlns="http://www.w3.org/2000/svg" xmlns:xlink="http://www.w3.org/1999/xlink" x="0px" y="0px"
	 width="249.105px" height="535.475px" viewBox="0 0 249.105 535.475" enable-background="new 0 0 249.105 535.475"
	 xml:space="preserve">
<path fill="#231F20" d="M-41.697,276.378c0,0,1.693-38.944,3.385-44.021c1.695-5.081,3.385-12.699,20.322-10.16
	c16.932,2.539,41.48,3.386,56.719,4.234c15.238,0.845,33.863,0.845,44.023-2.541c10.156-3.387,12.697-2.541,15.234-12.698
	c2.541-10.159,4.236-15.239,4.236-15.239s3.387,36.404-0.846,50.795c-4.232,14.393-10.158,30.478-28.785,27.937
	c-18.625-2.539-38.943-4.232-60.107-6.773C-8.681,265.373-40.851,256.06-41.697,276.378z"/>
</svg>
