<?xml version="1.0" encoding="utf-8"?>
<!-- Generator: Adobe Illustrator 16.0.0, SVG Export Plug-In . SVG Version: 6.00 Build 0)  -->
<!DOCTYPE svg PUBLIC "-//W3C//DTD SVG 1.1//EN" "http://www.w3.org/Graphics/SVG/1.1/DTD/svg11.dtd">
<svg version="1.1" id="Layer_1" xmlns="http://www.w3.org/2000/svg" xmlns:xlink="http://www.w3.org/1999/xlink" x="0px" y="0px"
	 width="249.105px" height="535.475px" viewBox="0 0 249.105 535.475" enable-background="new 0 0 249.105 535.475"
	 xml:space="preserve">
<path fill="#231F20" d="M0.725-197.909c0,0-20.312,31.602-1.121,49.664c19.184,18.063,38.373,42.893,62.078,64.342
	c23.703,21.449,50.793,49.67,58.697,68.857c7.906,19.188,16.931,40.633,7.906,63.209c-9.035,22.578-10.162,28.219-27.093,44.023
	c-16.93,15.805-48.539,38.381-71.109,45.153c-22.584,6.773-55.312,9.029-76.766,7.901c-21.441-1.128-84.656-5.646-84.656-5.646
	s115.139,3.389,154.648-12.414c39.502-15.803,75.623-42.891,79.008-67.727c3.387-24.836-6.771-55.312-30.477-80.145
	S10.891-70.358-7.17-91.803c-18.061-21.447-34.994-42.896-28.223-57.568C-28.619-164.046-10.56-179.845,0.725-197.909z"/>
</svg>
