<?xml version="1.0" encoding="utf-8"?>
<!-- Generator: Adobe Illustrator 16.0.0, SVG Export Plug-In . SVG Version: 6.00 Build 0)  -->
<!DOCTYPE svg PUBLIC "-//W3C//DTD SVG 1.1//EN" "http://www.w3.org/Graphics/SVG/1.1/DTD/svg11.dtd">
<svg version="1.1" id="Layer_1" xmlns="http://www.w3.org/2000/svg" xmlns:xlink="http://www.w3.org/1999/xlink" x="0px" y="0px"
	 width="249.105px" height="535.475px" viewBox="0 0 249.105 535.475" enable-background="new 0 0 249.105 535.475"
	 xml:space="preserve">
<path fill="#231F20" d="M307.894,251.364c0,0-11.285,42.899-15.24,53.057c-3.951,10.158-14.678,20.879-26.527,25.957
	c-11.854,5.082-31.602,7.34-46.277-9.594c-14.678-16.932-35.559-49.662-54.746-89.17c-19.191-39.508-38.381-66.598-50.796-91.433
	c-12.418-24.834-28.221-46.846-37.25-53.619c-9.033-6.772-17.498-11.85-31.045-10.722c-13.543,1.128-19.75,0.562-19.75,0.562
	l70.549-12.979c0,0,19.188-5.083,27.654,6.208c8.464,11.289,14.675,26.528,25.962,46.28c11.287,19.753,27.652,51.927,41.766,78.453
	c14.109,26.525,24.268,52.486,43.455,67.725C253.549,276.304,280.242,294.822,307.894,251.364z"/>
</svg>
