<?xml version="1.0" encoding="utf-8"?>
<!-- Generator: Adobe Illustrator 16.0.0, SVG Export Plug-In . SVG Version: 6.00 Build 0)  -->
<!DOCTYPE svg PUBLIC "-//W3C//DTD SVG 1.1//EN" "http://www.w3.org/Graphics/SVG/1.1/DTD/svg11.dtd">
<svg version="1.1" id="Layer_1" xmlns="http://www.w3.org/2000/svg" xmlns:xlink="http://www.w3.org/1999/xlink" x="0px" y="0px"
	 width="249.105px" height="535.475px" viewBox="0 0 249.105 535.475" enable-background="new 0 0 249.105 535.475"
	 xml:space="preserve">
<path fill="#231F20" d="M61.162-142.598c0,0-0.962,0.713-2.443,1.973c-5.757,4.898-19.374,18.086-15.336,30.199
	c5.079,15.238,21.165,58.415,31.324,82.966c10.16,24.552,24.551,55.876,23.703,73.653c-0.844,17.777,5.08,28.783-12.697,41.482
	c-17.78,12.699-44.022,17.779-55.876,21.164c-11.852,3.388-19.468,2.54-19.468,2.54s46.561-11.851,47.405-32.17
	c0.849-20.317-7.618-55.028-24.55-92.277C16.291-50.318,4.44-73.177,3.592-83.337c-0.844-10.158,38.717-47.68,56.608-58.549"/>
</svg>
