<?xml version="1.0" encoding="utf-8"?>
<!-- Generator: Adobe Illustrator 16.0.0, SVG Export Plug-In . SVG Version: 6.00 Build 0)  -->
<!DOCTYPE svg PUBLIC "-//W3C//DTD SVG 1.1//EN" "http://www.w3.org/Graphics/SVG/1.1/DTD/svg11.dtd">
<svg version="1.1" id="Layer_1" xmlns="http://www.w3.org/2000/svg" xmlns:xlink="http://www.w3.org/1999/xlink" x="0px" y="0px"
	 width="249.105px" height="535.475px" viewBox="0 0 249.105 535.475" enable-background="new 0 0 249.105 535.475"
	 xml:space="preserve">
<path fill="#231F20" d="M12.615,101.079c0,0,0.846,38.943,2.541,59.26c1.691,20.318-0.848,54.182,33.017,77.887
	c33.862,23.705,65.185,33.866,91.432,22.012c26.242-11.852,39.787-29.631,41.482-44.023c1.691-14.391,1.691-33.863,0.846-46.561
	c-0.846-12.699-3.387-58.416-3.387-58.416s2.541,47.41-10.158,68.574c-12.697,21.164-22.857,36.402-46.563,36.402
	c-23.705,0-56.722-5.926-61.801-33.863s-7.619-62.646-5.079-76.191c2.54-13.547,7.618-22.859,7.618-22.859
	S21.928,91.766,12.615,101.079z"/>
</svg>
