<?xml version="1.0" encoding="utf-8"?>
<!-- Generator: Adobe Illustrator 16.0.0, SVG Export Plug-In . SVG Version: 6.00 Build 0)  -->
<!DOCTYPE svg PUBLIC "-//W3C//DTD SVG 1.1//EN" "http://www.w3.org/Graphics/SVG/1.1/DTD/svg11.dtd">
<svg version="1.1" id="Layer_1" xmlns="http://www.w3.org/2000/svg" xmlns:xlink="http://www.w3.org/1999/xlink" x="0px" y="0px"
	 width="249.105px" height="535.475px" viewBox="0 0 249.105 535.475" enable-background="new 0 0 249.105 535.475"
	 xml:space="preserve">
<path fill="#231F20" d="M54.248-181.307L-4.17-126.278c0,0-14.391,15.237-15.238,49.947c-0.844,34.711,1.695,43.177,10.16,60.955
	C-0.781,2.403,4.297,22.721,10.227,40.499c5.924,17.779,8.465,22.012,0,36.403c-8.467,14.392-25.4,24.552-25.4,24.552
	s33.018-14.393,45.715-26.245c12.699-11.853,30.477-29.63,16.084-63.494C32.237-22.147,12.764-67.017,11.916-91.569
	C11.069-116.12,22.074-145.751,54.248-181.307z"/>
</svg>
