<?xml version="1.0" encoding="utf-8"?>
<!-- Generator: Adobe Illustrator 16.0.0, SVG Export Plug-In . SVG Version: 6.00 Build 0)  -->
<!DOCTYPE svg PUBLIC "-//W3C//DTD SVG 1.1//EN" "http://www.w3.org/Graphics/SVG/1.1/DTD/svg11.dtd">
<svg version="1.1" id="Layer_1" xmlns="http://www.w3.org/2000/svg" xmlns:xlink="http://www.w3.org/1999/xlink" x="0px" y="0px"
	 width="249.105px" height="535.475px" viewBox="0 0 249.105 535.475" enable-background="new 0 0 249.105 535.475"
	 xml:space="preserve">
<path fill="#231F20" d="M53.377,94.781c0,0-30.479,9.594-33.299,10.159c-2.822,0.565-10.723,10.158-9.594,22.011
	c1.127,11.854-1.695,42.327,0.564,57.001c2.258,14.678,2.258,30.479,10.723,44.023c8.467,13.547,20.881,27.654,41.762,32.172
	c20.885,4.516,45.719,9.026,64.91,1.691c19.188-7.334,32.73-12.975,41.762-24.266s22.01-41.201,22.01-41.201
	s-22.574,11.85-31.604,16.363c-9.031,4.52-33.297,8.467-44.023,7.34c-10.721-1.127-39.508,3.391-51.357-11.287
	c-11.854-14.676-17.496-20.883-17.496-47.973C47.735,133.723,46.037,102.681,53.377,94.781z"/>
</svg>
