<?xml version="1.0" encoding="utf-8"?>
<!-- Generator: Adobe Illustrator 16.0.0, SVG Export Plug-In . SVG Version: 6.00 Build 0)  -->
<!DOCTYPE svg PUBLIC "-//W3C//DTD SVG 1.1//EN" "http://www.w3.org/Graphics/SVG/1.1/DTD/svg11.dtd">
<svg version="1.1" id="Layer_1" xmlns="http://www.w3.org/2000/svg" xmlns:xlink="http://www.w3.org/1999/xlink" x="0px" y="0px"
	 width="249.105px" height="535.475px" viewBox="0 0 249.105 535.475" enable-background="new 0 0 249.105 535.475"
	 xml:space="preserve">
<path fill="#231F20" d="M-141.572,231.997l0.07-2.262l2.188-68.291c0,0,11.852-11.291,29.912-8.465
	c18.062,2.824,54.746,10.162,85.225,21.447c30.475,11.287,84.658,30.478,142.791,49.103c58.132,18.625,75.064,27.654,92.558,27.654
	c17.496,0,22.012,0.566,28.221-15.803s7.336-27.654,7.336-27.654s3.387,44.021,0.568,55.875
	c-2.824,11.85-13.551,32.735-23.145,32.735s-13.547,3.387-45.717-6.773c-32.168-10.158-104.408-34.991-151.818-52.489
	c-47.408-17.498-84.66-35.559-109.492-38.381C-107.709,195.872-141.01,187.411-141.572,231.997z"/>
</svg>
