<?xml version="1.0" encoding="utf-8"?>
<!-- Generator: Adobe Illustrator 16.0.0, SVG Export Plug-In . SVG Version: 6.00 Build 0)  -->
<!DOCTYPE svg PUBLIC "-//W3C//DTD SVG 1.1//EN" "http://www.w3.org/Graphics/SVG/1.1/DTD/svg11.dtd">
<svg version="1.1" id="Layer_1" xmlns="http://www.w3.org/2000/svg" xmlns:xlink="http://www.w3.org/1999/xlink" x="0px" y="0px"
	 width="249.105px" height="535.475px" viewBox="0 0 249.105 535.475" enable-background="new 0 0 249.105 535.475"
	 xml:space="preserve">
<path fill="#231F20" d="M82.744-82.517c0,0,1.691-25.96,5.078-42.329c3.387-16.37,7.902-38.943,15.805-41.202
	c7.898-2.259,25.394-5.645,36.119-5.08c16.033,0.847,25.965-0.003,31.043-0.564s10.721-3.387,12.418-8.466
	c1.691-5.079,2.256-13.547,2.256-13.547s-7.338,44.59-12.418,54.748c-5.078,10.158,0,16.936-16.932,14.111
	c-16.932-2.823-35.556-3.387-45.15,0C101.369-121.461,88.387-109.608,82.744-82.517z"/>
</svg>
