<?xml version="1.0" encoding="utf-8"?>
<!-- Generator: Adobe Illustrator 16.0.0, SVG Export Plug-In . SVG Version: 6.00 Build 0)  -->
<!DOCTYPE svg PUBLIC "-//W3C//DTD SVG 1.1//EN" "http://www.w3.org/Graphics/SVG/1.1/DTD/svg11.dtd">
<svg version="1.1" id="Layer_1" xmlns="http://www.w3.org/2000/svg" xmlns:xlink="http://www.w3.org/1999/xlink" x="0px" y="0px"
	 width="249.105px" height="535.475px" viewBox="0 0 249.105 535.475" enable-background="new 0 0 249.105 535.475"
	 xml:space="preserve">
<path fill="#231F20" d="M32.073-446.283c0,0-30.479,16.085-49.947,38.941c-19.471,22.859-28.783,40.638-25.398,66.882
	c3.387,26.244,14.395,93.124,24.552,139.687C-8.561-154.21,13.45-89.87,23.607-40.768c10.162,49.103,25.398,77.887,7.62,110.904
	c-17.776,33.017-36.403,38.097-45.716,42.329c-9.313,4.233-20.316,8.466-36.401,5.927c-16.085-2.54-40.638-4.233-40.638-4.233
	s43.176,11.852,70.267,6.772s65.188-16.086,79.583-46.562c14.387-30.477,19.47-91.432-1.697-159.159
	c-21.162-67.727-30.476-110.902-44.87-171.856C-2.635-317.601-18.72-376.016,32.073-446.283z"/>
</svg>
