<?xml version="1.0" encoding="utf-8"?>
<!-- Generator: Adobe Illustrator 16.0.0, SVG Export Plug-In . SVG Version: 6.00 Build 0)  -->
<!DOCTYPE svg PUBLIC "-//W3C//DTD SVG 1.1//EN" "http://www.w3.org/Graphics/SVG/1.1/DTD/svg11.dtd">
<svg version="1.1" id="Layer_1" xmlns="http://www.w3.org/2000/svg" xmlns:xlink="http://www.w3.org/1999/xlink" x="0px" y="0px"
	 width="249.105px" height="535.475px" viewBox="0 0 249.105 535.475" enable-background="new 0 0 249.105 535.475"
	 xml:space="preserve">
<path fill="#231F20" d="M98.836,90.129l32.169-18.625c0,0,5.08,13.546,17.779,38.098c12.697,24.55,18.623,40.635,30.479,59.262
	c11.85,18.623,25.396,44.869,35.557,52.486c10.158,7.62,15.238,4.233,19.467,0.848c4.236-3.387,13.547-21.164,13.547-21.164
	s-15.236,45.715-24.551,56.721c-9.312,11.005-23.703,14.392-33.016,2.541c-9.312-11.853-33.863-42.33-48.256-76.193
	C127.623,150.236,106.453,101.981,98.836,90.129z"/>
</svg>
