<?xml version="1.0" encoding="utf-8"?>
<!-- Generator: Adobe Illustrator 16.0.0, SVG Export Plug-In . SVG Version: 6.00 Build 0)  -->
<!DOCTYPE svg PUBLIC "-//W3C//DTD SVG 1.1//EN" "http://www.w3.org/Graphics/SVG/1.1/DTD/svg11.dtd">
<svg version="1.1" id="Layer_1" xmlns="http://www.w3.org/2000/svg" xmlns:xlink="http://www.w3.org/1999/xlink" x="0px" y="0px"
	 width="249.105px" height="535.475px" viewBox="0 0 249.105 535.475" enable-background="new 0 0 249.105 535.475"
	 xml:space="preserve">
<path fill="#231F20" d="M346.879-161.842c0,0-3.949,40.071-2.82,47.409c1.127,7.338-4.516,17.5-12.418,18.063
	c-7.898,0.562-22.576,0.562-37.252-2.259c-14.668-2.821-34.426-3.388-42.891,0c-8.467,3.386-27.09,14.11-30.475,27.654
	c-3.389,13.547-2.826,11.854-3.389,13.547s-6.773,27.654-7.336,40.071c-0.568,12.417-1.691,22.011-1.691,22.011
	s-2.262-62.082,4.51-86.352s24.836-58.695,64.91-60.39C318.094-143.778,345.75-139.268,346.879-161.842z"/>
</svg>
