<?xml version="1.0" encoding="utf-8"?>
<!-- Generator: Adobe Illustrator 16.0.0, SVG Export Plug-In . SVG Version: 6.00 Build 0)  -->
<!DOCTYPE svg PUBLIC "-//W3C//DTD SVG 1.1//EN" "http://www.w3.org/Graphics/SVG/1.1/DTD/svg11.dtd">
<svg version="1.1" id="Layer_1" xmlns="http://www.w3.org/2000/svg" xmlns:xlink="http://www.w3.org/1999/xlink" x="0px" y="0px"
	 width="249.105px" height="535.475px" viewBox="0 0 249.105 535.475" enable-background="new 0 0 249.105 535.475"
	 xml:space="preserve">
<path fill="#231F20" d="M-41.578,127.704c0,0,18.623-10.16,33.017-14.392c14.391-4.234,19.471,2.539,27.09,11.851
	c7.62,9.313,22.859,31.324,31.326,51.642c8.467,20.318,16.084,32.17,26.24,36.404c10.163,4.23,16.932,1.691,18.627-5.08
	c1.692-6.773,2.542-17.779,2.542-17.779l-0.85,59.262c0,0-1.692,15.238-19.47,13.545c-17.781-1.693-30.479-2.539-48.259-39.787
	C10.909,186.118-17.028,132.782-41.578,127.704z"/>
</svg>
