<?xml version="1.0" encoding="utf-8"?>
<!-- Generator: Adobe Illustrator 16.0.0, SVG Export Plug-In . SVG Version: 6.00 Build 0)  -->
<!DOCTYPE svg PUBLIC "-//W3C//DTD SVG 1.1//EN" "http://www.w3.org/Graphics/SVG/1.1/DTD/svg11.dtd">
<svg version="1.1" id="Layer_1" xmlns="http://www.w3.org/2000/svg" xmlns:xlink="http://www.w3.org/1999/xlink" x="0px" y="0px"
	 width="249.105px" height="535.475px" viewBox="0 0 249.105 535.475" enable-background="new 0 0 249.105 535.475"
	 xml:space="preserve">
<path fill="#231F20" d="M125.746,199.044c0,0,3.385,54.182,28.783,50.795c25.398-3.385,54.182-16.084,51.643-66.879
	c-2.539-50.797-12.699-88.893-36.404-108.364c-23.703-19.472-39.789-22.011-47.409-25.397c-7.619-3.387-29.631-7.619-29.631-7.619
	s49.95-5.08,76.194-1.693c26.244,3.385,43.176,13.545,59.262,35.557c16.084,22.011,23.703,60.955,26.244,82.119
	c2.539,21.166,0,87.199-33.863,102.438C186.701,275.238,131.672,290.476,125.746,199.044z"/>
</svg>
