<?xml version="1.0" encoding="utf-8"?>
<!-- Generator: Adobe Illustrator 16.0.0, SVG Export Plug-In . SVG Version: 6.00 Build 0)  -->
<!DOCTYPE svg PUBLIC "-//W3C//DTD SVG 1.1//EN" "http://www.w3.org/Graphics/SVG/1.1/DTD/svg11.dtd">
<svg version="1.1" id="Layer_1" xmlns="http://www.w3.org/2000/svg" xmlns:xlink="http://www.w3.org/1999/xlink" x="0px" y="0px"
	 width="249.105px" height="535.475px" viewBox="0 0 249.105 535.475" enable-background="new 0 0 249.105 535.475"
	 xml:space="preserve">
<path fill="#231F20" d="M79.34-179.514c0,0-18.623-5.645-24.834-5.08c-6.207,0.566-20.881,2.822-24.268,7.901
	c-3.389,5.079-7.902,10.728-8.467,16.37c-0.564,5.641-3.387,13.541-1.693,19.186c1.693,5.646,1.693,18.629,5.08,24.836
	c3.385,6.207,10.723,34.427,14.672,43.458c3.953,9.03,8.469,18.059,15.236,26.524c6.775,8.466,14.115,12.984,17.5,16.369
	c3.387,3.387,9.029,6.773,9.029,6.773S34.752-44.059,14.998-98.242c-19.752-54.182-16.73-74.866,0-89.738
	C30.239-201.526,46.041-204.346,79.34-179.514z"/>
</svg>
