<?xml version="1.0" encoding="utf-8"?>
<!-- Generator: Adobe Illustrator 16.0.0, SVG Export Plug-In . SVG Version: 6.00 Build 0)  -->
<!DOCTYPE svg PUBLIC "-//W3C//DTD SVG 1.1//EN" "http://www.w3.org/Graphics/SVG/1.1/DTD/svg11.dtd">
<svg version="1.1" id="Layer_1" xmlns="http://www.w3.org/2000/svg" xmlns:xlink="http://www.w3.org/1999/xlink" x="0px" y="0px"
	 width="249.105px" height="535.475px" viewBox="0 0 249.105 535.475" enable-background="new 0 0 249.105 535.475"
	 xml:space="preserve">
<path fill="#231F20" d="M34.623,96.884c0,0-55.873,28.784-68.854,50.229c-12.979,21.445-32.172,49.667-9.031,64.905
	c23.143,15.238,36.684,19.188,86.352,20.881c49.666,1.693,76.193,0.562,96.511-1.693c20.32-2.254,20.887,0.004,34.994-17.494
	c14.107-17.496,18.064-24.271,22.012-34.994c3.951-10.72,2.256-24.266,2.256-24.266s12.42,55.874,6.211,76.194
	c-6.211,20.316-14.113,33.863-28.223,40.635c-14.107,6.773-40.074,12.977-74.498,10.723c-34.426-2.258-94.258-4.52-120.215-8.467
	c-25.961-3.949-59.264-18.625-64.342-44.022c-5.08-25.4-3.957-50.797,18.623-71.115C-41.006,138.081,3.016,107.609,34.623,96.884z"
	/>
</svg>
