<?xml version="1.0" encoding="utf-8"?>
<!-- Generator: Adobe Illustrator 16.0.0, SVG Export Plug-In . SVG Version: 6.00 Build 0)  -->
<!DOCTYPE svg PUBLIC "-//W3C//DTD SVG 1.1//EN" "http://www.w3.org/Graphics/SVG/1.1/DTD/svg11.dtd">
<svg version="1.1" id="Layer_1" xmlns="http://www.w3.org/2000/svg" xmlns:xlink="http://www.w3.org/1999/xlink" x="0px" y="0px"
	 width="249.105px" height="535.475px" viewBox="0 0 249.105 535.475" enable-background="new 0 0 249.105 535.475"
	 xml:space="preserve">
<path fill="#231F20" d="M110.686-124.8l-34.986,23.705c0,0-14.678,12.98-9.596,26.525c5.078,13.545,11.85,26.529,18.623,39.51
	C91.5-22.08,97.707-4.016,100.53,7.835c2.822,11.853,6.775,31.602,5.646,44.585c-1.133,12.982-3.389,29.349-10.725,39.508
	c-7.34,10.159-12.418,18.063-20.883,22.577c-8.465,4.515-13.545,7.897-24.27,9.028c-10.721,1.131-37.248,5.642-41.762,5.079
	c-4.518-0.562-9.031-0.562-9.031-0.562s47.408,3.383,69.982-6.211c22.576-9.593,38.381-22.577,45.717-37.249
	c7.336-14.674,22.005-40.075,14.109-82.967c-7.902-42.891-19.751-64.34-25.962-79.58C97.141-93.194,95.451-110.687,110.686-124.8z"
	/>
</svg>
