<?xml version="1.0" encoding="utf-8"?>
<!-- Generator: Adobe Illustrator 16.0.0, SVG Export Plug-In . SVG Version: 6.00 Build 0)  -->
<!DOCTYPE svg PUBLIC "-//W3C//DTD SVG 1.1//EN" "http://www.w3.org/Graphics/SVG/1.1/DTD/svg11.dtd">
<svg version="1.1" id="Layer_1" xmlns="http://www.w3.org/2000/svg" xmlns:xlink="http://www.w3.org/1999/xlink" x="0px" y="0px"
	 width="249.105px" height="535.475px" viewBox="0 0 249.105 535.475" enable-background="new 0 0 249.105 535.475"
	 xml:space="preserve">
<path fill="#231F20" d="M-53.919,212.721c0,0,25.396-27.092,32.17-30.479c6.772-3.387,17.777-1.693,26.245,14.393
	c8.464,16.086,28.783,57.568,45.714,76.194c16.932,18.625,33.019,30.475,48.256,29.631c15.239-0.848,27.938-5.08,33.016-11.854
	c5.08-6.773,9.314-48.256,9.314-48.256s2.537,34.711-7.621,55.03c-10.16,20.32-21.164,47.408-52.487,39.789
	c-31.324-7.621-61.803-20.318-76.192-53.336C-9.899,250.817-27.675,195.788-53.919,212.721z"/>
</svg>
