<?xml version="1.0" encoding="utf-8"?>
<!-- Generator: Adobe Illustrator 16.0.0, SVG Export Plug-In . SVG Version: 6.00 Build 0)  -->
<!DOCTYPE svg PUBLIC "-//W3C//DTD SVG 1.1//EN" "http://www.w3.org/Graphics/SVG/1.1/DTD/svg11.dtd">
<svg version="1.1" id="Layer_1" xmlns="http://www.w3.org/2000/svg" xmlns:xlink="http://www.w3.org/1999/xlink" x="0px" y="0px"
	 width="249.105px" height="535.475px" viewBox="0 0 249.105 535.475" enable-background="new 0 0 249.105 535.475"
	 xml:space="preserve">
<path fill="#231F20" d="M-62.547-181.346c0,0-3.383,63.779-1.127,70.551c2.258,6.773,1.695,12.984,19.191,16.932
	c17.492,3.949,28.779,5.643,36.119,11.287c7.336,5.645,11.85,3.952,14.109,28.785C8.004-28.961,8.002-6.95,8.567,15.062
	s0.57,35.557-0.562,42.33c-1.129,6.771-2.822,9.031-2.822,9.031s10.16-6.773,16.932-8.467c6.771-1.692,18.625-2.82,22.01-5.079
	c3.389-2.259,7.336-3.948,6.773-21.446c-0.561-17.496-2.822-67.727-5.08-90.303c-2.256-22.577-5.076-48.537-19.188-57.568
	c-14.109-9.032-34.428-16.936-49.668-22.576C-38.277-144.659-67.627-153.693-62.547-181.346z"/>
</svg>
