<?xml version="1.0" encoding="utf-8"?>
<!-- Generator: Adobe Illustrator 16.0.0, SVG Export Plug-In . SVG Version: 6.00 Build 0)  -->
<!DOCTYPE svg PUBLIC "-//W3C//DTD SVG 1.1//EN" "http://www.w3.org/Graphics/SVG/1.1/DTD/svg11.dtd">
<svg version="1.1" id="Layer_1" xmlns="http://www.w3.org/2000/svg" xmlns:xlink="http://www.w3.org/1999/xlink" x="0px" y="0px"
	 width="249.105px" height="535.475px" viewBox="0 0 249.105 535.475" enable-background="new 0 0 249.105 535.475"
	 xml:space="preserve">
<path fill="#231F20" d="M96.427,35.892c0,0-14.392-22.012-33.863-44.023C43.093-30.142-2.623-86.017-15.322-127.5
	C-28.02-168.983-43.26-202-21.249-246.022c12.052-24.102,29.631-30.479,47.409-34.711s44.022-5.078,63.495,11.853
	c19.471,16.933,34.71,43.177,34.71,43.177s-29.63-60.955-80.427-44.87c-32.537,10.301-71.959,54.182-54.182,112.597
	C7.536-99.563,23.62-64.852,44.786-40.302C65.95-15.751,90.499,14.726,96.427,35.892z"/>
</svg>
