<?xml version="1.0" encoding="utf-8"?>
<!-- Generator: Adobe Illustrator 16.0.0, SVG Export Plug-In . SVG Version: 6.00 Build 0)  -->
<!DOCTYPE svg PUBLIC "-//W3C//DTD SVG 1.1//EN" "http://www.w3.org/Graphics/SVG/1.1/DTD/svg11.dtd">
<svg version="1.1" id="Layer_1" xmlns="http://www.w3.org/2000/svg" xmlns:xlink="http://www.w3.org/1999/xlink" x="0px" y="0px"
	 width="249.105px" height="535.475px" viewBox="0 0 249.105 535.475" enable-background="new 0 0 249.105 535.475"
	 xml:space="preserve">
<path fill="#231F20" d="M-58.695,138.337l0.092-2.266l2.732-68.848c0,0,10.723-3.948,36.121,9.031
	c25.396,12.98,35.557,26.523,46.279,44.585c10.723,18.062,18.625,31.604,27.654,47.409c9.029,15.802,17.496,31.607,23.707,37.816
	c6.207,6.205,15.232,11.285,15.799,1.127c0.566-10.16,2.824-31.039,2.824-31.039l0.564,72.805c0,0-5.078,10.723-15.242,10.723
	c-10.156,0-18.623-1.131-35.555-28.783c-16.93-27.654-30.477-53.619-40.635-71.114c-10.158-17.493-27.092-38.375-37.812-41.199
	C-42.892,115.761-54.742,106.732-58.695,138.337z"/>
</svg>
