<?xml version="1.0" encoding="utf-8"?>
<!-- Generator: Adobe Illustrator 16.0.0, SVG Export Plug-In . SVG Version: 6.00 Build 0)  -->
<!DOCTYPE svg PUBLIC "-//W3C//DTD SVG 1.1//EN" "http://www.w3.org/Graphics/SVG/1.1/DTD/svg11.dtd">
<svg version="1.1" id="Layer_1" xmlns="http://www.w3.org/2000/svg" xmlns:xlink="http://www.w3.org/1999/xlink" x="0px" y="0px"
	 width="249.105px" height="535.475px" viewBox="0 0 249.105 535.475" enable-background="new 0 0 249.105 535.475"
	 xml:space="preserve">
<path fill="#231F20" d="M184.06-140.602l-44.586,32.736c0,0-10.158,9.031-3.387,17.497c6.773,8.466,15.803,29.911,23.139,41.763
	c7.34,11.854,14.678,27.096,20.883,42.896c6.211,15.801,9.594,28.217,12.418,55.309c2.822,27.09,2.822,42.333,4.516,64.906
	c1.693,22.574,4.516,37.812,3.387,63.208c-1.131,25.398-0.566,29.352-9.031,45.154c-8.467,15.805-10.162,19.188-19.193,25.961
	c-9.027,6.773-9.027,6.209-23.699,11.289c-14.676,5.08-30.478,5.08-30.478,5.08s31.042,3.95,55.31-3.955
	c24.268-7.898,38.943-11.846,51.359-33.295s24.27-45.154,20.881-90.304c-3.385-45.15-2.822-89.734-15.238-126.422
	c-12.416-36.688-17.496-55.875-33.861-78.453C180.109-89.807,157.533-120.85,184.06-140.602z"/>
</svg>
