<?xml version="1.0" encoding="utf-8"?>
<!-- Generator: Adobe Illustrator 16.0.0, SVG Export Plug-In . SVG Version: 6.00 Build 0)  -->
<!DOCTYPE svg PUBLIC "-//W3C//DTD SVG 1.1//EN" "http://www.w3.org/Graphics/SVG/1.1/DTD/svg11.dtd">
<svg version="1.1" id="Layer_1" xmlns="http://www.w3.org/2000/svg" xmlns:xlink="http://www.w3.org/1999/xlink" x="0px" y="0px"
	 width="249.105px" height="535.475px" viewBox="0 0 249.105 535.475" enable-background="new 0 0 249.105 535.475"
	 xml:space="preserve">
<g>
	<path fill="#231F20" d="M94.449,140.34c6.209-5.646,7.342-9.03,7.342-9.03S89.934,109.866,75.26,98.577l-25.395,29.91
		c0,0,10.156,6.207,17.492,16.934c2.521,3.684,4.338,6.582,5.688,8.871l-22.049,24.992c18.803,15.793,24.318,35.332,25.574,46.121
		c0.557-4.551,1.477-10.047,2.078-13.951c1.123-7.34,9.596-14.674,13.543-24.271c3.951-9.596,5.082-10.721,0-19.75
		c-2.809-4.991-7.332-9.628-10.816-12.787C85.354,149.921,90.854,143.617,94.449,140.34z"/>
	<path fill="#231F20" d="M76.393,233.466c0.375,0.564,0.807-2.656,0.178-8.061C76.082,229.405,75.864,232.675,76.393,233.466z"/>
</g>
</svg>
