<?xml version="1.0" encoding="utf-8"?>
<!-- Generator: Adobe Illustrator 16.0.0, SVG Export Plug-In . SVG Version: 6.00 Build 0)  -->
<!DOCTYPE svg PUBLIC "-//W3C//DTD SVG 1.1//EN" "http://www.w3.org/Graphics/SVG/1.1/DTD/svg11.dtd">
<svg version="1.1" id="Layer_1" xmlns="http://www.w3.org/2000/svg" xmlns:xlink="http://www.w3.org/1999/xlink" x="0px" y="0px"
	 width="249.105px" height="535.475px" viewBox="0 0 249.105 535.475" enable-background="new 0 0 249.105 535.475"
	 xml:space="preserve">
<path fill="#231F20" d="M-101.812,41.647l2.256,49.102c0,0,3.949-13.541,10.16-10.721c6.209,2.82,21.445,11.85,33.863,32.732
	s30.48,59.83,42.895,79.018c12.414,19.186,25.961,37.25,47.408,58.695c21.447,21.446,31.607,24.833,44.023,21.446
	s19.193-4.518,18.623-22.012c-0.564-17.494-4.514-83.527-4.514-83.527s-0.566,25.398-3.391,36.686
	c-2.82,11.285-4.514,29.348-16.928,14.109c-12.418-15.238-39.508-49.102-57.004-75.064s-37.248-56.441-51.922-72.807
	C-51.017,52.936-75.287,27.536-101.812,41.647z"/>
</svg>
