<?xml version="1.0" encoding="utf-8"?>
<!-- Generator: Adobe Illustrator 16.0.0, SVG Export Plug-In . SVG Version: 6.00 Build 0)  -->
<!DOCTYPE svg PUBLIC "-//W3C//DTD SVG 1.1//EN" "http://www.w3.org/Graphics/SVG/1.1/DTD/svg11.dtd">
<svg version="1.1" id="Layer_1" xmlns="http://www.w3.org/2000/svg" xmlns:xlink="http://www.w3.org/1999/xlink" x="0px" y="0px"
	 width="249.105px" height="535.475px" viewBox="0 0 249.105 535.475" enable-background="new 0 0 249.105 535.475"
	 xml:space="preserve">
<path fill="#231F20" d="M26.53-136.523l-46.844,31.042c0,0-11.291,10.164-3.387,22.578s19.189,37.25,28.219,51.922
	c9.031,14.674,17.498,29.35,20.881,42.896c3.385,13.545,7.904,23.14-1.127,33.298C15.244,55.37,9.598,59.32-1.127,61.578
	c-10.719,2.26-27.652,2.824-33.299,2.26c-5.645-0.566-12.42-1.128-12.42-1.128s28.223,5.641,48.541,3.948
	c20.32-1.692,42.896-4.518,51.924-13.546c9.031-9.028,15.24-18.055,14.109-34.425c-1.127-16.37-8.465-38.946-15.801-51.928
	C44.59-46.219,28.221-75.565,22.016-86.29C15.805-97.015,1.131-111.691,26.53-136.523z"/>
</svg>
