<?xml version="1.0" encoding="utf-8"?>
<!-- Generator: Adobe Illustrator 16.0.0, SVG Export Plug-In . SVG Version: 6.00 Build 0)  -->
<!DOCTYPE svg PUBLIC "-//W3C//DTD SVG 1.1//EN" "http://www.w3.org/Graphics/SVG/1.1/DTD/svg11.dtd">
<svg version="1.1" id="Layer_1" xmlns="http://www.w3.org/2000/svg" xmlns:xlink="http://www.w3.org/1999/xlink" x="0px" y="0px"
	 width="249.105px" height="535.475px" viewBox="0 0 249.105 535.475" enable-background="new 0 0 249.105 535.475"
	 xml:space="preserve">
<path fill="#231F20" d="M63.582,81.716c0,0-11.332,4.667-11.332,28.334c0,23.666-1.334,56.667-2,66
	c-0.668,9.334-1.668,21.999,2.666,28.667c4.334,6.666,8,12,11,14.666c3,2.668,10.666,5,10.666,5l-27.666,34.334
	c0,0-29.667-5.668-33.667-27c-4-21.334-4.333-62-3.667-80.333c0.667-18.333-2.332-40,10.668-47.333
	C33.25,96.716,63.582,81.716,63.582,81.716z"/>
</svg>
