<?xml version="1.0" encoding="utf-8"?>
<!-- Generator: Adobe Illustrator 16.0.0, SVG Export Plug-In . SVG Version: 6.00 Build 0)  -->
<!DOCTYPE svg PUBLIC "-//W3C//DTD SVG 1.1//EN" "http://www.w3.org/Graphics/SVG/1.1/DTD/svg11.dtd">
<svg version="1.1" id="Layer_1" xmlns="http://www.w3.org/2000/svg" xmlns:xlink="http://www.w3.org/1999/xlink" x="0px" y="0px"
	 width="249.105px" height="535.475px" viewBox="0 0 249.105 535.475" enable-background="new 0 0 249.105 535.475"
	 xml:space="preserve">
<path fill="#231F20" d="M58.675,93.972c0,0-5.334,9.667-5.668,28.667c-0.332,19-0.333,37.334,0,52.667
	c0.334,15.333-2.332,22.333,4.668,30.999s11.666,10.334,11.666,10.334s4.666-17.666,5.666-24.334c1-6.667,1.334-9.999,1.334-9.999
	s-0.333,25.333-5.666,35.999c-5.334,10.666-10.334,17.666-15.334,25.666s-6.334,15.668-15,9.334s-12.478-9.256-16.167-14
	c-3.5-4.5-3.5-6.25-6-9.5c-0.905-1.178-3.332-6.834-3.75-9.25c-1.026-5.934-2.166-9.918-2.5-24.25c-0.332-14.333-0.917-60-0.917-60
	l1.668-18.667C12.675,117.639,55.675,94.305,58.675,93.972z"/>
</svg>
