<?xml version="1.0" encoding="utf-8"?>
<!-- Generator: Adobe Illustrator 16.0.0, SVG Export Plug-In . SVG Version: 6.00 Build 0)  -->
<!DOCTYPE svg PUBLIC "-//W3C//DTD SVG 1.1//EN" "http://www.w3.org/Graphics/SVG/1.1/DTD/svg11.dtd">
<svg version="1.1" id="Layer_1" xmlns="http://www.w3.org/2000/svg" xmlns:xlink="http://www.w3.org/1999/xlink" x="0px" y="0px"
	 width="249.105px" height="535.475px" viewBox="0 0 249.105 535.475" enable-background="new 0 0 249.105 535.475"
	 xml:space="preserve">
<path fill="#231F20" d="M129.675,82.639c0,0-27.001,15.333-35.668,21.333c-8.666,6-18.332,8.667-19.332,36.667
	s-0.001,65.333,0.332,79.333c0.334,14-0.666,30.334-6,39.668c-5.332,9.332-15.333,18.333-20,20.666
	c-4.666,2.334-7.332,2.666-7.332,2.666s22.332-5.332,43.666-24.666c21.334-19.334,27.666-20,29.666-60.334
	c2-40.333,0.334-71.333,2.668-81.333c2.332-10,3.666-24.001,12.166-35.667"/>
</svg>
