<?xml version="1.0" encoding="utf-8"?>
<!-- Generator: Adobe Illustrator 16.0.0, SVG Export Plug-In . SVG Version: 6.00 Build 0)  -->
<!DOCTYPE svg PUBLIC "-//W3C//DTD SVG 1.1//EN" "http://www.w3.org/Graphics/SVG/1.1/DTD/svg11.dtd">
<svg version="1.1" id="Layer_1" xmlns="http://www.w3.org/2000/svg" xmlns:xlink="http://www.w3.org/1999/xlink" x="0px" y="0px"
	 width="249.105px" height="535.475px" viewBox="0 0 249.105 535.475" enable-background="new 0 0 249.105 535.475"
	 xml:space="preserve">
<path fill="#231F20" d="M62.332,48.36c0,0-6,3.666-6,17s-2,59.666-3.666,81.666s-5,57.002,0.334,70.668
	c5.332,13.666,8.998,23,12.666,23.332c3.666,0.334,5.666-1.666,5.666-1.666s-7.666,8-13.666,12.666c-6,4.668-25,17.334-25,17.334
	s-4.668,4.332-9-4c-4.334-8.334-9.049-23.879-10-28.834c-0.834-4.332-1.894-8.482-2.167-11.666c-0.132-1.535-0.333-4.5-0.333-6.166
	c0-1.414-0.5-5.668-0.167-14.5c0.306-8.104,0-22.168,2-67.168s-0.333-52.332,0.333-56c0.667-3.666,1.334-6.998,12.667-13.332
	S57.332,49.36,62.332,48.36z"/>
</svg>
