<?xml version="1.0" encoding="utf-8"?>
<!-- Generator: Adobe Illustrator 16.0.0, SVG Export Plug-In . SVG Version: 6.00 Build 0)  -->
<!DOCTYPE svg PUBLIC "-//W3C//DTD SVG 1.1//EN" "http://www.w3.org/Graphics/SVG/1.1/DTD/svg11.dtd">
<svg version="1.1" id="Layer_1" xmlns="http://www.w3.org/2000/svg" xmlns:xlink="http://www.w3.org/1999/xlink" x="0px" y="0px"
	 width="249.105px" height="535.475px" viewBox="0 0 249.105 535.475" enable-background="new 0 0 249.105 535.475"
	 xml:space="preserve">
<path fill="#231F20" d="M62.072,172.525c0,0,26.998-1.833,32.332-3.333s10.668-2.667,10.668-2.667s3.332,1.166,3.832,12.333
	c0.5,11.168,0.002,25.334,3.334,46.5c3.334,21.168,3.666,30.168,9.334,35.168c5.666,5,7.499,5.666,9.333,6.5
	c1.834,0.832-12.167,3.334-19.333,3.167c-7.168-0.166-23.5,1.166-28.5-0.834c-5-2-8.834-4.5-11.168-21.5
	c-2.332-17-4.666-38.5-4.832-48.332C66.904,189.692,64.738,175.192,62.072,172.525z"/>
</svg>
