<?xml version="1.0" encoding="utf-8"?>
<!-- Generator: Adobe Illustrator 16.0.0, SVG Export Plug-In . SVG Version: 6.00 Build 0)  -->
<!DOCTYPE svg PUBLIC "-//W3C//DTD SVG 1.1//EN" "http://www.w3.org/Graphics/SVG/1.1/DTD/svg11.dtd">
<svg version="1.1" id="Layer_1" xmlns="http://www.w3.org/2000/svg" xmlns:xlink="http://www.w3.org/1999/xlink" x="0px" y="0px"
	 width="249.105px" height="535.475px" viewBox="0 0 249.105 535.475" enable-background="new 0 0 249.105 535.475"
	 xml:space="preserve">
<path fill="#231F20" d="M47.738,179.192c0,0-19.001,11.168-23.501,14.334s-15.332,11-15.332,11s-0.334,10,0.5,19.832
	c0.832,9.834,2.166,18.834,4.666,28.334s2.832,10.334,4.666,13.166c1.834,2.834,2.834,3.668,6.168,1.5
	c3.332-2.166,24.501-15.666,28.167-19.332c3.666-3.668,15.166-15.334,15.166-15.334s-9.168,9-11,7.666
	c-1.834-1.332-6.5-9.332-7.834-23.5C48.072,202.692,47.738,185.524,47.738,179.192z"/>
</svg>
