<?xml version="1.0" encoding="utf-8"?>
<!-- Generator: Adobe Illustrator 16.0.0, SVG Export Plug-In . SVG Version: 6.00 Build 0)  -->
<!DOCTYPE svg PUBLIC "-//W3C//DTD SVG 1.1//EN" "http://www.w3.org/Graphics/SVG/1.1/DTD/svg11.dtd">
<svg version="1.1" id="Layer_1" xmlns="http://www.w3.org/2000/svg" xmlns:xlink="http://www.w3.org/1999/xlink" x="0px" y="0px"
	 width="249.105px" height="535.475px" viewBox="0 0 249.105 535.475" enable-background="new 0 0 249.105 535.475"
	 xml:space="preserve">
<path fill="#231F20" d="M-3.595,144.192c0,0,8.998-6.668,23.332-12.334s21.668-6.666,21.668-6.666s10.5,2.833,12.334,14.333
	c1.832,11.5,1.666,37.667,1.332,48.5c-0.332,10.833-3.166,25.999,0.334,34.333s5.334,20.5,9.666,20.666c4.334,0.168,6-0.498,8-1.832
	s3.834-2.334,3.834-2.334s-7.5,7.5-14.334,12.5c-6.832,5-28.166,19.167-28.166,19.167s-6,0.168-9.166-3.5
	c-3.168-3.666-13.002-15-13.334-58c-0.334-42.999,1.834-53.166-16.166-64.999"/>
</svg>
