<?xml version="1.0" encoding="utf-8"?>
<!-- Generator: Adobe Illustrator 16.0.0, SVG Export Plug-In . SVG Version: 6.00 Build 0)  -->
<!DOCTYPE svg PUBLIC "-//W3C//DTD SVG 1.1//EN" "http://www.w3.org/Graphics/SVG/1.1/DTD/svg11.dtd">
<svg version="1.1" id="Layer_1" xmlns="http://www.w3.org/2000/svg" xmlns:xlink="http://www.w3.org/1999/xlink" x="0px" y="0px"
	 width="249.105px" height="535.475px" viewBox="0 0 249.105 535.475" enable-background="new 0 0 249.105 535.475"
	 xml:space="preserve">
<path fill="#231F20" d="M11.071,31.858c0,0,13.834-5.832,26.834-15.832s22.5-21.5,22.5-21.5s0.832,18.5-0.5,34.5
	c-1.334,16-2.166,27.833-2.834,68.166c-0.666,40.333-2,61.667-3,87c-1,25.332-2,31.666-2.334,33.666c-0.332,2-7.332,6-16.332,9.666
	c-9,3.668-26,7-26,7s1.666-11.666,4-58.666c2.332-47,5.332-71,4-99.333C16.071,48.192,13.739,35.858,11.071,31.858z"/>
</svg>
