<?xml version="1.0" encoding="utf-8"?>
<!-- Generator: Adobe Illustrator 16.0.0, SVG Export Plug-In . SVG Version: 6.00 Build 0)  -->
<!DOCTYPE svg PUBLIC "-//W3C//DTD SVG 1.1//EN" "http://www.w3.org/Graphics/SVG/1.1/DTD/svg11.dtd">
<svg version="1.1" id="Layer_1" xmlns="http://www.w3.org/2000/svg" xmlns:xlink="http://www.w3.org/1999/xlink" x="0px" y="0px"
	 width="249.105px" height="535.475px" viewBox="0 0 249.105 535.475" enable-background="new 0 0 249.105 535.475"
	 xml:space="preserve">
<path fill="#231F20" d="M-9.095,119.526c0,0,16.666-16.999,24-23.333s12.668-11.333,17.334-7s17.666,13.334,17.666,27
	s-0.334,33.999-1,43.666s-1.666,27.334-2.334,37.667c-0.666,10.332-2.666,16.666-4.666,19.332c-2,2.668-23,16.668-27.666,20.334
	c-4.668,3.666-12.668,6.334-12.668,6.334s9-5.666,9.334-11.334c0.334-5.666,0.666-34,1-59.333s-0.334-37.666-0.334-37.666
	s-2-6.334-6-9.667S-3.095,116.193-9.095,119.526z"/>
</svg>
