<?xml version="1.0" encoding="utf-8"?>
<!-- Generator: Adobe Illustrator 16.0.0, SVG Export Plug-In . SVG Version: 6.00 Build 0)  -->
<!DOCTYPE svg PUBLIC "-//W3C//DTD SVG 1.1//EN" "http://www.w3.org/Graphics/SVG/1.1/DTD/svg11.dtd">
<svg version="1.1" id="Layer_1" xmlns="http://www.w3.org/2000/svg" xmlns:xlink="http://www.w3.org/1999/xlink" x="0px" y="0px"
	 width="249.105px" height="535.475px" viewBox="0 0 249.105 535.475" enable-background="new 0 0 249.105 535.475"
	 xml:space="preserve">
<path fill="#231F20" d="M106.405,90.526c0,0-34.5,26-37,28s-2.75,5-3,9s-1,34.5-1,49s-2.5,41.25-0.5,51.5s2,18.25,5,27.25
	s2.5,12.25,6,10.25s9.75-5.25,19-13s18-15,20-17.5s3.75-5.5,3.75-5.5s-7.5,7.25-9.25,6.25s-4.5-14.25-5.25-22.5s-0.5-42.25,0.5-58.5
	S104.405,95.526,106.405,90.526z"/>
</svg>
