<?xml version="1.0" encoding="utf-8"?>
<!-- Generator: Adobe Illustrator 16.0.0, SVG Export Plug-In . SVG Version: 6.00 Build 0)  -->
<!DOCTYPE svg PUBLIC "-//W3C//DTD SVG 1.1//EN" "http://www.w3.org/Graphics/SVG/1.1/DTD/svg11.dtd">
<svg version="1.1" id="Layer_1" xmlns="http://www.w3.org/2000/svg" xmlns:xlink="http://www.w3.org/1999/xlink" x="0px" y="0px"
	 width="249.105px" height="535.475px" viewBox="0 0 249.105 535.475" enable-background="new 0 0 249.105 535.475"
	 xml:space="preserve">
<path fill="#231F20" d="M-4.229,111.86c0,0,22.332-23.666,28.332-27s10.334-2.668,13.334-0.334s16,18,18.666,25
	c2.668,7,3,33.667,2.668,45.667c-0.334,12-1.002,28-1.668,38.001c-0.666,10-3,61.332-5.332,68.332c-2.334,7-3.332,9.667-12.666,13
	S-1.563,287.86-1.563,287.86s7.334-1.668,10.668-12.668c3.332-11,6.664-52.333,7.998-86.333s1.334-46.668,0.334-53.334
	S8.771,115.194-4.229,111.86z"/>
</svg>
