<?xml version="1.0" encoding="utf-8"?>
<!-- Generator: Adobe Illustrator 16.0.0, SVG Export Plug-In . SVG Version: 6.00 Build 0)  -->
<!DOCTYPE svg PUBLIC "-//W3C//DTD SVG 1.1//EN" "http://www.w3.org/Graphics/SVG/1.1/DTD/svg11.dtd">
<svg version="1.1" id="Layer_1" xmlns="http://www.w3.org/2000/svg" xmlns:xlink="http://www.w3.org/1999/xlink" x="0px" y="0px"
	 width="249.105px" height="535.475px" viewBox="0 0 249.105 535.475" enable-background="new 0 0 249.105 535.475"
	 xml:space="preserve">
<path fill="#231F20" d="M57.269,92.859c0,0-4.666,7.667-5.334,20c-0.666,12.333-1.998,38.999-2.332,53.666
	c-0.334,14.667-2.168,29.167,1,38.334c2.521,7.301,3.943,10.941,11.082,13.082c7.5,2.25,15.25,1.584,15.25,1.584L52.603,253.86
	c0,0-5,4.332-9,4.666s-23.668-7.334-29.668-23s-4-43.668-3-67c1-23.333-3-37.333,5-42.333S53.601,100.193,57.269,92.859z"/>
</svg>
