<?xml version="1.0" encoding="utf-8"?>
<!-- Generator: Adobe Illustrator 16.0.0, SVG Export Plug-In . SVG Version: 6.00 Build 0)  -->
<!DOCTYPE svg PUBLIC "-//W3C//DTD SVG 1.1//EN" "http://www.w3.org/Graphics/SVG/1.1/DTD/svg11.dtd">
<svg version="1.1" id="Layer_1" xmlns="http://www.w3.org/2000/svg" xmlns:xlink="http://www.w3.org/1999/xlink" x="0px" y="0px"
	 width="249.105px" height="535.475px" viewBox="0 0 249.105 535.475" enable-background="new 0 0 249.105 535.475"
	 xml:space="preserve">
<path fill="#231F20" d="M-43.731,149.692c0,0,13.25-24.25,31.75-39.75s32.5-25.75,35.25-26.5s7.75-1.5,11.75,2s12,4.75,14.25,25
	s-0.75,45-2.75,59.25c-2,14.25-1.25,29.5-1.25,29.5s-25.75,16.25-31.5,21.25s-7.25,5.25-7.25,5.25s4.75-14,5.25-33.75
	c0.5-19.75-0.75-49.75-1.5-58s-1.75-12.25-8.5-17s-11.25-6.25-13.5-4.75S-41.231,142.942-43.731,149.692z"/>
</svg>
