<?xml version="1.0" encoding="utf-8"?>
<!-- Generator: Adobe Illustrator 16.0.0, SVG Export Plug-In . SVG Version: 6.00 Build 0)  -->
<!DOCTYPE svg PUBLIC "-//W3C//DTD SVG 1.1//EN" "http://www.w3.org/Graphics/SVG/1.1/DTD/svg11.dtd">
<svg version="1.1" id="Layer_1" xmlns="http://www.w3.org/2000/svg" xmlns:xlink="http://www.w3.org/1999/xlink" x="0px" y="0px"
	 width="249.105px" height="535.475px" viewBox="0 0 249.105 535.475" enable-background="new 0 0 249.105 535.475"
	 xml:space="preserve">
<path fill="#231F20" d="M-16.711,119.483c0,0,33.332-28.666,39.666-30.666s10.668-1.333,16.668,4s11.332,15.667,10.332,38
	s-5.332,46.666-3.666,64.334c1.666,17.666,3.666,25,13.666,30.666s14.668,1.666,14.668,1.666s-10,43.667-12,45.667
	s-25.668-3.334-36.668-16.667c-11-13.334-18.334-27-17-64s1.334-53-1.666-61.333s-12.668-16.001-14.334-15.667
	S-12.711,116.483-16.711,119.483z"/>
</svg>
