<?xml version="1.0" encoding="utf-8"?>
<!-- Generator: Adobe Illustrator 16.0.0, SVG Export Plug-In . SVG Version: 6.00 Build 0)  -->
<!DOCTYPE svg PUBLIC "-//W3C//DTD SVG 1.1//EN" "http://www.w3.org/Graphics/SVG/1.1/DTD/svg11.dtd">
<svg version="1.1" id="Layer_1" xmlns="http://www.w3.org/2000/svg" xmlns:xlink="http://www.w3.org/1999/xlink" x="0px" y="0px"
	 width="249.105px" height="535.475px" viewBox="0 0 249.105 535.475" enable-background="new 0 0 249.105 535.475"
	 xml:space="preserve">
<path fill="#231F20" d="M103.254,89.198c0,0-31.332,10.334-37,13.334c-5.666,3-7.332,9-7,13.333
	c0.334,4.333,0.334,48.666,0.334,65.333s3,34.333-5,45.333s-18.668,24.334-22,27.334c-3.334,3-5,5.332-5,5.332s20.334-15,28.666-24
	c8.334-9,38-24.666,40-60.999s-0.666-56.667,3-66s12.334-20.666,12.334-20.666S106.588,88.531,103.254,89.198z"/>
</svg>
