<?xml version="1.0" encoding="utf-8"?>
<!-- Generator: Adobe Illustrator 16.0.0, SVG Export Plug-In . SVG Version: 6.00 Build 0)  -->
<!DOCTYPE svg PUBLIC "-//W3C//DTD SVG 1.1//EN" "http://www.w3.org/Graphics/SVG/1.1/DTD/svg11.dtd">
<svg version="1.1" id="Layer_1" xmlns="http://www.w3.org/2000/svg" xmlns:xlink="http://www.w3.org/1999/xlink" x="0px" y="0px"
	 width="249.105px" height="535.475px" viewBox="0 0 249.105 535.475" enable-background="new 0 0 249.105 535.475"
	 xml:space="preserve">
<path fill="#231F20" d="M34.105,80.156c0,0-33.666,27.666-36,31.333c-2.332,3.667-4.332,5.667-4.332,5.667s6.666-5,10.666-2
	s8.332,7,9,16c0.666,9-1.334,36.999-1.334,47.666c0,10.668-2.998,35.666,2.668,53.666s9.666,23.334,12.332,25.334
	c2.668,2,4.334,1.666,4.334,1.666l29.666-34.332c0,0-8.334-10-9.666-19c-1.334-9-2-40.668-0.666-72.334
	C52.105,102.156,55.773,90.156,34.105,80.156z"/>
</svg>
