<?xml version="1.0" encoding="utf-8"?>
<!-- Generator: Adobe Illustrator 16.0.0, SVG Export Plug-In . SVG Version: 6.00 Build 0)  -->
<!DOCTYPE svg PUBLIC "-//W3C//DTD SVG 1.1//EN" "http://www.w3.org/Graphics/SVG/1.1/DTD/svg11.dtd">
<svg version="1.1" id="Layer_1" xmlns="http://www.w3.org/2000/svg" xmlns:xlink="http://www.w3.org/1999/xlink" x="0px" y="0px"
	 width="249.105px" height="535.475px" viewBox="0 0 249.105 535.475" enable-background="new 0 0 249.105 535.475"
	 xml:space="preserve">
<path fill="#231F20" d="M8.853,265.598c0,0-1.433-24.834,67.339-31.52c68.773-6.686,136.111-8.596,176.705-14.328
	c40.596-5.73,45.85-9.551,54.924-26.744s13.85-33.43,13.371-41.072c-0.477-7.642-3.342-12.417-3.342-12.417
	s2.389,18.625-10.508,24.356c-12.895,5.732-49.191,17.193-70.205,17.193c-21.012,0-75.934,3.344-116.53,9.074
	c-40.594,5.73-64.95,7.641-80.71,13.371C24.135,209.245,6.465,214.02,6.465,214.02L8.853,265.598z"/>
</svg>
