<?xml version="1.0" encoding="utf-8"?>
<!-- Generator: Adobe Illustrator 16.0.0, SVG Export Plug-In . SVG Version: 6.00 Build 0)  -->
<!DOCTYPE svg PUBLIC "-//W3C//DTD SVG 1.1//EN" "http://www.w3.org/Graphics/SVG/1.1/DTD/svg11.dtd">
<svg version="1.1" id="Layer_1" xmlns="http://www.w3.org/2000/svg" xmlns:xlink="http://www.w3.org/1999/xlink" x="0px" y="0px"
	 width="249.105px" height="535.475px" viewBox="0 0 249.105 535.475" enable-background="new 0 0 249.105 535.475"
	 xml:space="preserve">
<path fill="#231F20" d="M197.199,203.442c0,0,10.174-16.273,13.562-23.733s10.172-13.563,3.389-19.667
	c-6.781-6.104-29.838-16.953-44.756-25.77c-14.918-8.814-28.482-8.814-24.412-27.125c3.961-17.822,12.205-25.77,22.379-33.906
	c10.17-8.139,10.17-8.139,10.17-8.139s-29.836,13.561-37.975,24.414c-8.137,10.851-25.09,34.585-21.7,47.469
	c3.391,12.885,13.561,23.057,39.331,35.264C182.959,184.455,200.59,188.521,197.199,203.442z"/>
</svg>
