<?xml version="1.0" encoding="utf-8"?>
<!-- Generator: Adobe Illustrator 16.0.0, SVG Export Plug-In . SVG Version: 6.00 Build 0)  -->
<!DOCTYPE svg PUBLIC "-//W3C//DTD SVG 1.1//EN" "http://www.w3.org/Graphics/SVG/1.1/DTD/svg11.dtd">
<svg version="1.1" id="Layer_1" xmlns="http://www.w3.org/2000/svg" xmlns:xlink="http://www.w3.org/1999/xlink" x="0px" y="0px"
	 width="249.105px" height="535.475px" viewBox="0 0 249.105 535.475" enable-background="new 0 0 249.105 535.475"
	 xml:space="preserve">
<path fill="#231F20" d="M46.104-82.082c0,0-32.476,34.865-33.907,42.982C10.764-30.98-2.132,1.973,9.808,15.823
	C21.748,29.673,27.001,43.045,55.179,44c28.177,0.955,65.428-3.82,115.098-17.67c49.668-13.85,90.262-32.953,111.752-33.908
	c21.492-0.955,39.162-3.821,49.193,11.461c10.027,15.283,12.893,31.045,13.85,42.506c0.953,11.461-4.299,52.533-4.299,52.533
	c0,1.434,2.865-38.206-5.732-47.758c-8.596-9.551-30.086-19.581-49.668-15.283c-19.58,4.299-96.471,27.223-125.604,36.774
	S65.685,97.012,32.733,82.686c-32.954-14.328-47.76-36.774-47.76-59.698S0.735-48.174,46.104-82.082z"/>
</svg>
