<?xml version="1.0" encoding="utf-8"?>
<!-- Generator: Adobe Illustrator 16.0.0, SVG Export Plug-In . SVG Version: 6.00 Build 0)  -->
<!DOCTYPE svg PUBLIC "-//W3C//DTD SVG 1.1//EN" "http://www.w3.org/Graphics/SVG/1.1/DTD/svg11.dtd">
<svg version="1.1" id="Layer_1" xmlns="http://www.w3.org/2000/svg" xmlns:xlink="http://www.w3.org/1999/xlink" x="0px" y="0px"
	 width="249.105px" height="535.475px" viewBox="0 0 249.105 535.475" enable-background="new 0 0 249.105 535.475"
	 xml:space="preserve">
<path fill="#231F20" d="M101.861-3.202l27.7,17.672c0,0,18.148-24.357,31.521-23.881c13.371,0.479,23.4,6.209,27.221,13.851
	s3.82,20.536,0,27.223s-23.879,16.716-29.609,14.806c-5.73-1.912-11.939-2.389-17.67-9.074
	c-5.732-6.688-10.029-18.148-10.029-18.148l-29.133,18.148c0,0,13.85,40.116,35.34,45.371c21.492,5.252,41.551,6.686,56.355-1.434
	s28.656-21.014,33.432-32.477c4.775-11.461,11.939-39.639-0.957-60.652c-12.893-21.014-27.221-35.341-47.758-37.251
	C157.738-50.96,116.188-48.572,101.861-3.202z"/>
</svg>
