<?xml version="1.0" encoding="utf-8"?>
<!-- Generator: Adobe Illustrator 16.0.0, SVG Export Plug-In . SVG Version: 6.00 Build 0)  -->
<!DOCTYPE svg PUBLIC "-//W3C//DTD SVG 1.1//EN" "http://www.w3.org/Graphics/SVG/1.1/DTD/svg11.dtd">
<svg version="1.1" id="Layer_1" xmlns="http://www.w3.org/2000/svg" xmlns:xlink="http://www.w3.org/1999/xlink" x="0px" y="0px"
	 width="249.105px" height="535.475px" viewBox="0 0 249.105 535.475" enable-background="new 0 0 249.105 535.475"
	 xml:space="preserve">
<path fill="#231F20" d="M347.068-99.005c0,0-12.887,8.813-4.75,21.699c8.139,12.887,27.127,36.62,27.127,42.723
	c0,6.104-4.068,18.309-9.494,27.805c-5.426,9.494-20.344,34.586-30.516,44.079c-10.172,9.491-61.709,64.421-61.709,64.421
	s27.803-42.043,47.467-63.744c19.666-21.7,33.91-40.689,27.805-48.148c-6.104-7.458-14.92-16.274-21.023-25.09
	c-6.102-8.814-12.883-28.481-12.883-28.481S321.299-86.119,347.068-99.005z"/>
</svg>
