<?xml version="1.0" encoding="utf-8"?>
<!-- Generator: Adobe Illustrator 16.0.0, SVG Export Plug-In . SVG Version: 6.00 Build 0)  -->
<!DOCTYPE svg PUBLIC "-//W3C//DTD SVG 1.1//EN" "http://www.w3.org/Graphics/SVG/1.1/DTD/svg11.dtd">
<svg version="1.1" id="Layer_1" xmlns="http://www.w3.org/2000/svg" xmlns:xlink="http://www.w3.org/1999/xlink" x="0px" y="0px"
	 width="249.105px" height="535.475px" viewBox="0 0 249.105 535.475" enable-background="new 0 0 249.105 535.475"
	 xml:space="preserve">
<path fill="#231F20" d="M11.718,66.448c0,0-22.446,25.789-19.581,35.818c2.866,10.029,4.777,16.715,11.94,22.446
	c7.164,5.731,17.192,15.282,51.579,16.238c34.385,0.954,67.816-2.389,108.41-18.626c40.596-16.238,104.592-47.28,130.859-49.669
	c26.266-2.388,40.115,3.343,45.848,16.238c5.73,12.895,10.029,33.908,9.074,42.504c-0.955,8.597-8.119,12.417-8.119,12.417
	s5.73-21.49-4.775-28.654c-10.508-7.164-43.938-5.252-57.311,1.434s-83.1,32.952-113.188,47.28
	c-30.088,14.328-108.888,33.908-145.185,13.373C-15.027,156.71-41.294,124.712,11.718,66.448z"/>
</svg>
