<?xml version="1.0" encoding="utf-8"?>
<!-- Generator: Adobe Illustrator 16.0.0, SVG Export Plug-In . SVG Version: 6.00 Build 0)  -->
<!DOCTYPE svg PUBLIC "-//W3C//DTD SVG 1.1//EN" "http://www.w3.org/Graphics/SVG/1.1/DTD/svg11.dtd">
<svg version="1.1" id="Layer_1" xmlns="http://www.w3.org/2000/svg" xmlns:xlink="http://www.w3.org/1999/xlink" x="0px" y="0px"
	 width="249.105px" height="535.475px" viewBox="0 0 249.105 535.475" enable-background="new 0 0 249.105 535.475"
	 xml:space="preserve">
<path fill="#231F20" d="M305.021-79.34c0,0-15.598,14.92-8.135,43.401c7.459,28.481,18.309,63.743,33.904,80.698
	c15.598,16.955,31.193,45.436,37.975,54.251c6.783,8.815,2.715,17.631-0.678,27.125c-3.393,9.495-15.596,27.804-22.377,35.942
	c-6.781,8.137-14.92,17.632-14.92,17.632s17.633-24.415,14.242-41.368c-3.391-16.952-16.955-40.008-33.908-60.352
	c-16.953-20.346-39.334-61.033-40.01-82.734C270.437-26.446,268.404-47.469,305.021-79.34z"/>
</svg>
