<?xml version="1.0" encoding="utf-8"?>
<!-- Generator: Adobe Illustrator 16.0.0, SVG Export Plug-In . SVG Version: 6.00 Build 0)  -->
<!DOCTYPE svg PUBLIC "-//W3C//DTD SVG 1.1//EN" "http://www.w3.org/Graphics/SVG/1.1/DTD/svg11.dtd">
<svg version="1.1" id="Layer_1" xmlns="http://www.w3.org/2000/svg" xmlns:xlink="http://www.w3.org/1999/xlink" x="0px" y="0px"
	 width="249.105px" height="535.475px" viewBox="0 0 249.105 535.475" enable-background="new 0 0 249.105 535.475"
	 xml:space="preserve">
<path fill="#231F20" d="M328.234,187.354c0,0-8.596,8.596-4.775,14.805c3.82,6.208,12.418,16.238,21.492,22.924
	c9.074,6.687,27.221,20.059,34.385,25.312c7.164,5.252,11.463,10.984,10.508,14.326c-0.955,3.344-13.85,14.805-19.104,19.104
	s-21.014,14.805-21.014,14.805s3.82-7.162-0.479-13.85c-4.297-6.686-15.281-19.103-25.789-25.79
	c-10.506-6.686-32.475-20.536-29.133-32.953C297.67,213.621,313.908,194.995,328.234,187.354z"/>
</svg>
