<?xml version="1.0" encoding="utf-8"?>
<!-- Generator: Adobe Illustrator 16.0.0, SVG Export Plug-In . SVG Version: 6.00 Build 0)  -->
<!DOCTYPE svg PUBLIC "-//W3C//DTD SVG 1.1//EN" "http://www.w3.org/Graphics/SVG/1.1/DTD/svg11.dtd">
<svg version="1.1" id="Layer_1" xmlns="http://www.w3.org/2000/svg" xmlns:xlink="http://www.w3.org/1999/xlink" x="0px" y="0px"
	 width="249.105px" height="535.475px" viewBox="0 0 249.105 535.475" enable-background="new 0 0 249.105 535.475"
	 xml:space="preserve">
<path fill="#231F20" d="M49.804,152.49c0,0-16.716,15.761-21.491,24.356c-4.776,8.598-18.148,41.551-8.118,54.445
	c10.027,12.895,15.76,20.535,33.43,19.104c17.67-1.434,52.534-12.418,74.026-24.357c21.49-11.939,66.861-34.863,91.219-36.773
	c24.355-1.91,58.264-0.478,65.906,8.118c7.641,8.597,7.164,10.03,7.641,21.97c0.479,11.939-1.91,36.773-6.209,44.415
	c-4.297,7.642-9.074,9.074-9.074,9.074s12.418-12.895,1.434-26.745s-44.416-24.357-67.34-16.716s-70.682,28.655-81.666,34.864
	c-10.985,6.208-41.073,22.446-53.967,25.313c-12.895,2.865-56.832,13.85-67.816-12.896C-3.208,249.918-11.804,204.547,49.804,152.49
	z"/>
</svg>
