<?xml version="1.0" encoding="utf-8"?>
<!-- Generator: Adobe Illustrator 16.0.0, SVG Export Plug-In . SVG Version: 6.00 Build 0)  -->
<!DOCTYPE svg PUBLIC "-//W3C//DTD SVG 1.1//EN" "http://www.w3.org/Graphics/SVG/1.1/DTD/svg11.dtd">
<svg version="1.1" id="Layer_1" xmlns="http://www.w3.org/2000/svg" xmlns:xlink="http://www.w3.org/1999/xlink" x="0px" y="0px"
	 width="249.105px" height="535.475px" viewBox="0 0 249.105 535.475" enable-background="new 0 0 249.105 535.475"
	 xml:space="preserve">
<path fill="#231F20" d="M161.203,43.045c0,0-27.701-52.533-28.18-71.16c-0.477-18.625-2.863-28.654,5.732-44.414
	c8.596-15.761,27.223-33.432,42.982-32.477c15.76,0.956,32.475,9.552,36.773,16.716s7.164,23.878,4.299,31.998
	c-2.865,8.118-19.104,27.7-25.312,33.431s-11.939,7.643-11.939,7.643s21.014-31.045,5.254-39.64
	c-15.76-8.597-34.863-1.911-40.117,16.715C145.765-20.671,138.756-21.427,161.203,43.045z"/>
</svg>
