<?xml version="1.0" encoding="utf-8"?>
<!-- Generator: Adobe Illustrator 16.0.0, SVG Export Plug-In . SVG Version: 6.00 Build 0)  -->
<!DOCTYPE svg PUBLIC "-//W3C//DTD SVG 1.1//EN" "http://www.w3.org/Graphics/SVG/1.1/DTD/svg11.dtd">
<svg version="1.1" id="Layer_1" xmlns="http://www.w3.org/2000/svg" xmlns:xlink="http://www.w3.org/1999/xlink" x="0px" y="0px"
	 width="249.105px" height="535.475px" viewBox="0 0 249.105 535.475" enable-background="new 0 0 249.105 535.475"
	 xml:space="preserve">
<path fill="#231F20" d="M141.984,197.229c0,0-12.205,31.191-5.426,35.939c6.783,4.748,32.551,23.736,61.033,13.562
	c28.482-10.172,64.424-39.332,81.377-52.216c16.951-12.884,43.398-35.263,59.674-39.331c16.277-4.07,27.125-3.389,28.482-0.678
	s3.391,5.424,3.391,5.424v-44.758c0,0-27.125-4.745-33.229-0.676c-6.102,4.068-34.584,16.951-54.25,31.192
	s-45.434,40.013-58.998,47.471C210.476,200.618,171.146,218.93,141.984,197.229z"/>
</svg>
