<?xml version="1.0" encoding="utf-8"?>
<!-- Generator: Adobe Illustrator 16.0.0, SVG Export Plug-In . SVG Version: 6.00 Build 0)  -->
<!DOCTYPE svg PUBLIC "-//W3C//DTD SVG 1.1//EN" "http://www.w3.org/Graphics/SVG/1.1/DTD/svg11.dtd">
<svg version="1.1" id="Layer_1" xmlns="http://www.w3.org/2000/svg" xmlns:xlink="http://www.w3.org/1999/xlink" x="0px" y="0px"
	 width="249.105px" height="535.475px" viewBox="0 0 249.105 535.475" enable-background="new 0 0 249.105 535.475"
	 xml:space="preserve">
<path fill="#231F20" d="M140.629,222.319c0,0,0-58.996,22.379-75.95c22.377-16.954,43.398-29.837,61.709-30.517
	c18.309-0.68,52.895,6.104,67.137,22.379c14.24,16.275,25.766,49.502,26.445,64.422s-4.066,39.332-9.492,48.148
	c-5.426,8.814-30.855,42.721-59.338,44.754c-28.482,2.035-61.031,2.035-74.934-12.205c-11.18-11.453-26.445-34.586-27.803-40.01
	s-6.104-17.63-6.104-17.63l37.297-6.104c0,0,0.68,12.206,11.529,22.378c10.848,10.174,27.803,23.395,50.182,15.934
	c22.379-7.459,40.012-21.359,40.688-39.668c0.68-18.311,0.676-38.654-14.92-48.826s-28.818-16.955-48.146-11.191
	c-17.436,5.199-33.568,14.242-35.941,32.552c-2.373,18.309-2.373,23.396-2.373,23.396L140.629,222.319z"/>
</svg>
