<?xml version="1.0" encoding="utf-8"?>
<!-- Generator: Adobe Illustrator 16.0.0, SVG Export Plug-In . SVG Version: 6.00 Build 0)  -->
<!DOCTYPE svg PUBLIC "-//W3C//DTD SVG 1.1//EN" "http://www.w3.org/Graphics/SVG/1.1/DTD/svg11.dtd">
<svg version="1.1" id="Layer_1" xmlns="http://www.w3.org/2000/svg" xmlns:xlink="http://www.w3.org/1999/xlink" x="0px" y="0px"
	 width="249.105px" height="535.475px" viewBox="0 0 249.105 535.475" enable-background="new 0 0 249.105 535.475"
	 xml:space="preserve">
<path fill="#231F20" d="M344.951,166.817c0,0,7.641-8.596,8.117-22.445c0.479-13.85-8.596-55.4-11.461-91.219
	s-6.688-64.474-6.688-79.756c0-15.283,1.434-26.744,1.434-26.744s33.432,1.432,39.162,0c5.73-1.434,10.984-2.389,10.984-2.389
	s-12.416,7.164-12.416,10.984s1.432,70.204,5.73,91.219c4.299,21.014,10.506,59.697,11.939,71.158
	c1.432,11.463-3.82,17.193-7.641,21.492C380.291,143.417,351.636,163.474,344.951,166.817z"/>
</svg>
