<?xml version="1.0" encoding="utf-8"?>
<!-- Generator: Adobe Illustrator 16.0.0, SVG Export Plug-In . SVG Version: 6.00 Build 0)  -->
<!DOCTYPE svg PUBLIC "-//W3C//DTD SVG 1.1//EN" "http://www.w3.org/Graphics/SVG/1.1/DTD/svg11.dtd">
<svg version="1.1" id="Layer_1" xmlns="http://www.w3.org/2000/svg" xmlns:xlink="http://www.w3.org/1999/xlink" x="0px" y="0px"
	 width="249.105px" height="535.475px" viewBox="0 0 249.105 535.475" enable-background="new 0 0 249.105 535.475"
	 xml:space="preserve">
<path fill="#231F20" d="M41.207,13.991c0,0-5.73,8.597-4.298,18.148c1.432,9.552,9.074,37.729,19.103,54.444
	c10.03,16.716,30.089,58.265,38.207,73.548s21.969,39.64,21.491,48.713c-0.478,9.074-2.865,7.643-11.462,18.148
	s-23.401,22.925-23.401,22.925s8.119-11.463,5.73-17.671c-2.388-6.209-27.699-54.922-37.251-69.729
	c-9.552-14.804-41.55-79.277-43.938-93.604c-2.387-14.328,0-26.745,0-26.745L41.207,13.991z"/>
</svg>
