<?xml version="1.0" encoding="utf-8"?>
<!-- Generator: Adobe Illustrator 16.0.0, SVG Export Plug-In . SVG Version: 6.00 Build 0)  -->
<!DOCTYPE svg PUBLIC "-//W3C//DTD SVG 1.1//EN" "http://www.w3.org/Graphics/SVG/1.1/DTD/svg11.dtd">
<svg version="1.1" id="Layer_1" xmlns="http://www.w3.org/2000/svg" xmlns:xlink="http://www.w3.org/1999/xlink" x="0px" y="0px"
	 width="249.105px" height="535.475px" viewBox="0 0 249.105 535.475" enable-background="new 0 0 249.105 535.475"
	 xml:space="preserve">
<path fill="#231F20" d="M332.828,204.8c0,0-6.105-10.852-11.531-13.564c-5.424-2.712-37.973-15.596-49.502-23.055
	c-11.529-7.461-28.482-12.209-26.449-27.805c2.035-15.596,12.887-44.078,24.416-55.607c11.527-11.527,46.111-40.688,46.111-40.688
	s-54.252,52.215-46.793,69.846c7.461,17.634,16.953,21.025,32.551,27.128c15.598,6.104,36.621,10.17,39.332,15.597
	c2.713,5.426,0,12.206-4.068,22.377C332.828,189.201,332.148,193.95,332.828,204.8z"/>
</svg>
