<?xml version="1.0" encoding="utf-8"?>
<!-- Generator: Adobe Illustrator 16.0.0, SVG Export Plug-In . SVG Version: 6.00 Build 0)  -->
<!DOCTYPE svg PUBLIC "-//W3C//DTD SVG 1.1//EN" "http://www.w3.org/Graphics/SVG/1.1/DTD/svg11.dtd">
<svg version="1.1" id="Layer_1" xmlns="http://www.w3.org/2000/svg" xmlns:xlink="http://www.w3.org/1999/xlink" x="0px" y="0px"
	 width="249.105px" height="535.475px" viewBox="0 0 249.105 535.475" enable-background="new 0 0 249.105 535.475"
	 xml:space="preserve">
<path fill="#231F20" d="M304.426,237.864c0,0-4.596-40.06,17.072-80.111c21.67-40.053,42.023-78.142,57.127-112.284
	c15.105-34.142,31.52-76.171,29.549-98.495c-1.971-22.322-7.223-34.142-26.922-34.142c-19.697,0-51.215,1.97-51.215,1.97
	s25.611,0.654,32.176,13.131c6.562,12.478,11.158,42.023,2.623,66.319c-8.533,24.297-24.947,57.781-45.961,92.585
	c-21.016,34.804-46.625,78.799-49.906,97.84s-3.939,66.978-3.939,66.978L304.426,237.864z"/>
</svg>
