<?xml version="1.0" encoding="utf-8"?>
<!-- Generator: Adobe Illustrator 16.0.0, SVG Export Plug-In . SVG Version: 6.00 Build 0)  -->
<!DOCTYPE svg PUBLIC "-//W3C//DTD SVG 1.1//EN" "http://www.w3.org/Graphics/SVG/1.1/DTD/svg11.dtd">
<svg version="1.1" id="Layer_1" xmlns="http://www.w3.org/2000/svg" xmlns:xlink="http://www.w3.org/1999/xlink" x="0px" y="0px"
	 width="249.105px" height="535.475px" viewBox="0 0 249.105 535.475" enable-background="new 0 0 249.105 535.475"
	 xml:space="preserve">
<path fill="#231F20" d="M113.1-58.003c0,0,18.306,37.296-6.784,61.709C81.226,28.12,58.17,49.821,46.642,59.992
	c-11.53,10.173-32.551,31.872-38.654,40.011c-6.103,8.138-8.14,12.207-8.14,12.207l44.759,33.906c0,0-8.136-9.493-6.103-19.666
	c2.033-10.172,18.988-31.195,44.079-51.539c25.09-20.344,56.286-42.724,63.745-69.848c7.459-27.125,7.459-42.044,6.779-50.183
	c-0.678-8.138-2.711-13.562-2.711-13.562S118.525-58.68,113.1-58.003z"/>
</svg>
