<?xml version="1.0" encoding="utf-8"?>
<!-- Generator: Adobe Illustrator 16.0.0, SVG Export Plug-In . SVG Version: 6.00 Build 0)  -->
<!DOCTYPE svg PUBLIC "-//W3C//DTD SVG 1.1//EN" "http://www.w3.org/Graphics/SVG/1.1/DTD/svg11.dtd">
<svg version="1.1" id="Layer_1" xmlns="http://www.w3.org/2000/svg" xmlns:xlink="http://www.w3.org/1999/xlink" x="0px" y="0px"
	 width="249.105px" height="535.475px" viewBox="0 0 249.105 535.475" enable-background="new 0 0 249.105 535.475"
	 xml:space="preserve">
<path fill="#231F20" d="M41.61-19.57H2.448c0,0,4.069-27.465,11.698-35.094c7.628-7.628,28.481-25.938,42.723-26.448
	c14.24-0.508,30.517,0.509,45.266,10.173c14.749,9.663,22.886,21.361,25.94,32.042c3.051,10.681,2.033,28.991,0.506,36.112
	c-1.523,7.119-7.12,25.43-22.377,35.093C90.946,41.97,78.739,49.092,59.92,46.039c-18.818-3.051-36.619-11.188-43.739-20.852
	S3.465,2.808,2.956-3.295S1.939-16.01,1.939-16.01l39.671,1.526c0,0-2.543,7.121,4.577,12.715
	c7.12,5.596,14.241,15.259,27.975,8.139C87.893-0.752,93.996-7.364,91.963-18.045c-2.035-10.681-4.578-20.853-15.769-22.378
	C65.006-41.948,44.662-40.932,41.61-19.57z"/>
</svg>
