<?xml version="1.0" encoding="utf-8"?>
<!-- Generator: Adobe Illustrator 16.0.0, SVG Export Plug-In . SVG Version: 6.00 Build 0)  -->
<!DOCTYPE svg PUBLIC "-//W3C//DTD SVG 1.1//EN" "http://www.w3.org/Graphics/SVG/1.1/DTD/svg11.dtd">
<svg version="1.1" id="Layer_1" xmlns="http://www.w3.org/2000/svg" xmlns:xlink="http://www.w3.org/1999/xlink" x="0px" y="0px"
	 width="249.105px" height="535.475px" viewBox="0 0 249.105 535.475" enable-background="new 0 0 249.105 535.475"
	 xml:space="preserve">
<path fill="#231F20" d="M210.886-54.74l26.447,22.886c0,0,17.291-10.172,26.445-9.154c9.156,1.016,17.293,14.75,19.326,18.31
	c2.035,3.56,0,15.767-2.543,19.326S264.799,10.87,258.185,10.87s-17.801,1.018-21.361-8.139c-3.559-9.154-7.629-16.782-5.594-20.851
	c2.035-4.068,4.068-9.665,4.068-9.665l-30.518-22.887c0,0-14.748,18.818-14.748,26.447s-0.508,30.007,11.189,43.231
	c11.697,13.225,32.043,25.432,47.299,27.466c15.258,2.034,41.197-3.562,48.826-11.19c7.627-7.629,15.768-22.377,18.309-35.094
	c2.543-12.714,3.562-34.076-4.576-45.774c-8.139-11.697-22.381-21.869-35.094-26.447c-12.717-4.577-35.092-5.595-43.232-1.525
	C224.617-69.49,210.886-54.74,210.886-54.74z"/>
</svg>
