<?xml version="1.0" encoding="utf-8"?>
<!-- Generator: Adobe Illustrator 16.0.0, SVG Export Plug-In . SVG Version: 6.00 Build 0)  -->
<!DOCTYPE svg PUBLIC "-//W3C//DTD SVG 1.1//EN" "http://www.w3.org/Graphics/SVG/1.1/DTD/svg11.dtd">
<svg version="1.1" id="Layer_1" xmlns="http://www.w3.org/2000/svg" xmlns:xlink="http://www.w3.org/1999/xlink" x="0px" y="0px"
	 width="249.105px" height="535.475px" viewBox="0 0 249.105 535.475" enable-background="new 0 0 249.105 535.475"
	 xml:space="preserve">
<path fill="#231F20" d="M86.752,182.735c0,0-8.645,13.223-9.66,19.834c-1.018,6.613-3.055,20.854-3.055,20.854
	s-8.643-6.611-20.851-10.172c-12.206-3.561-43.739-15.768-54.421-21.361c-10.68-5.596-25.938-14.242-25.938-18.311
	s3.561-16.783,7.12-25.938c3.56-9.156,3.051-16.276,15.769-26.957C8.43,110.004,27.249,94.746,27.249,94.746
	s-40.181,32.041-35.604,41.195c4.578,9.157,11.188,17.293,25.431,22.379C31.317,163.407,75.057,180.19,86.752,182.735z"/>
</svg>
