<?xml version="1.0" encoding="utf-8"?>
<!-- Generator: Adobe Illustrator 16.0.0, SVG Export Plug-In . SVG Version: 6.00 Build 0)  -->
<!DOCTYPE svg PUBLIC "-//W3C//DTD SVG 1.1//EN" "http://www.w3.org/Graphics/SVG/1.1/DTD/svg11.dtd">
<svg version="1.1" id="Layer_1" xmlns="http://www.w3.org/2000/svg" xmlns:xlink="http://www.w3.org/1999/xlink" x="0px" y="0px"
	 width="249.105px" height="535.475px" viewBox="0 0 249.105 535.475" enable-background="new 0 0 249.105 535.475"
	 xml:space="preserve">
<path fill="#231F20" d="M56.218,111.133c0,0-21.014,22.327-24.295,39.398s-11.158,56.47,28.893,55.157
	c40.053-1.312,100.467-13.135,126.075-16.417c25.609-3.282,37.43,0.003,43.338,11.165c5.91,11.162,5.256,32.176,3.941,45.307
	c-1.316,13.132-5.912,27.581-5.912,27.581s6.564-24.956-2.627-30.866s-33.484-11.157-58.438-6.564
	c-24.955,4.594-82.081,19.038-102.436,16.414C44.4,249.683-40.305,214.88,56.218,111.133z"/>
</svg>
