<?xml version="1.0" encoding="utf-8"?>
<!-- Generator: Adobe Illustrator 16.0.0, SVG Export Plug-In . SVG Version: 6.00 Build 0)  -->
<!DOCTYPE svg PUBLIC "-//W3C//DTD SVG 1.1//EN" "http://www.w3.org/Graphics/SVG/1.1/DTD/svg11.dtd">
<svg version="1.1" id="Layer_1" xmlns="http://www.w3.org/2000/svg" xmlns:xlink="http://www.w3.org/1999/xlink" x="0px" y="0px"
	 width="249.105px" height="535.475px" viewBox="0 0 249.105 535.475" enable-background="new 0 0 249.105 535.475"
	 xml:space="preserve">
<path fill="#231F20" d="M18.723,44.006c0,0,0.509,23.904,23.396,25.938c22.888,2.034,47.81,3.052,117.487-28.991
	c69.678-32.041,130.203-61.032,149.529-57.98c19.326,3.051,24.922,2.542,32.041,15.767c7.123,13.223,8.646,26.447,9.154,38.654
	c0.51,12.205-2.031,26.445-2.031,26.445s-1.018-34.076-17.803-38.145s-26.957-2.033-55.947,7.63s-104.77,47.3-136.305,58.997
	c-31.533,11.697-65.098,24.922-90.531,17.801c-25.43-7.121-35.094-24.922-35.094-24.922S16.181,48.582,18.723,44.006z"/>
</svg>
