<?xml version="1.0" encoding="utf-8"?>
<!-- Generator: Adobe Illustrator 16.0.0, SVG Export Plug-In . SVG Version: 6.00 Build 0)  -->
<!DOCTYPE svg PUBLIC "-//W3C//DTD SVG 1.1//EN" "http://www.w3.org/Graphics/SVG/1.1/DTD/svg11.dtd">
<svg version="1.1" id="Layer_1" xmlns="http://www.w3.org/2000/svg" xmlns:xlink="http://www.w3.org/1999/xlink" x="0px" y="0px"
	 width="249.105px" height="535.475px" viewBox="0 0 249.105 535.475" enable-background="new 0 0 249.105 535.475"
	 xml:space="preserve">
<path fill="#231F20" d="M62.983,94.934l37.977,7.46c0,0,5.424-18.312,11.528-24.414c6.103-6.104,29.163-20.344,42.723-16.273
	c13.561,4.068,14.92,3.393,26.447,12.883c11.527,9.493,18.986,26.447,19.664,35.939c0.68,9.496-4.068,24.414-10.172,29.842
	c-6.104,5.424-19.664,18.306-33.229,18.985s-33.906-5.424-40.009-10.849c-6.104-5.427-14.24-13.564-14.24-13.564
	s-23.735,22.381-25.769,23.736c-2.035,1.356,15.596,19.667,23.733,24.412c8.137,4.748,29.839,18.311,54.251,16.275
	c24.412-2.033,57.641-21.021,63.066-28.482c5.426-7.459,15.598-37.975,16.273-52.217c0.68-14.239-1.357-42.045-16.273-58.998
	c-14.92-16.953-37.979-36.617-65.102-36.617c-27.125,0-51.537,6.105-59.676,14.92C86.039,46.784,71.119,56.281,62.983,94.934z"/>
</svg>
