<?xml version="1.0" encoding="utf-8"?>
<!-- Generator: Adobe Illustrator 16.0.0, SVG Export Plug-In . SVG Version: 6.00 Build 0)  -->
<!DOCTYPE svg PUBLIC "-//W3C//DTD SVG 1.1//EN" "http://www.w3.org/Graphics/SVG/1.1/DTD/svg11.dtd">
<svg version="1.1" id="Layer_1" xmlns="http://www.w3.org/2000/svg" xmlns:xlink="http://www.w3.org/1999/xlink" x="0px" y="0px"
	 width="249.105px" height="535.475px" viewBox="0 0 249.105 535.475" enable-background="new 0 0 249.105 535.475"
	 xml:space="preserve">
<path fill="#231F20" d="M-11.736,104.237c0,0,0-22.379,11.191-31.535c11.188-9.152,46.791-31.531,62.56-44.754
	C77.78,14.723,95.073-4.602,99.141-24.438c4.069-19.835,1.018-30.009-5.086-34.078c-6.103-4.069-22.887-2.543-22.887-2.543
	s10.68-11.698,20.854-14.749c10.17-3.052,27.914-1.502,31.023,0.508c8.646,5.595,10.171,24.922,7.628,32.042
	c-2.545,7.12-13.733,31.534-34.585,48.316C75.237,21.844,12.679,66.6,5.557,72.194C-1.562,77.79-8.682,84.401-11.736,104.237z"/>
</svg>
