<?xml version="1.0" encoding="utf-8"?>
<!-- Generator: Adobe Illustrator 16.0.0, SVG Export Plug-In . SVG Version: 6.00 Build 0)  -->
<!DOCTYPE svg PUBLIC "-//W3C//DTD SVG 1.1//EN" "http://www.w3.org/Graphics/SVG/1.1/DTD/svg11.dtd">
<svg version="1.1" id="Layer_1" xmlns="http://www.w3.org/2000/svg" xmlns:xlink="http://www.w3.org/1999/xlink" x="0px" y="0px"
	 width="249.105px" height="535.475px" viewBox="0 0 249.105 535.475" enable-background="new 0 0 249.105 535.475"
	 xml:space="preserve">
<path fill="#231F20" d="M99.872-11.569c0,0-10.68-13.733-16.784-14.749c-6.104-1.019-22.379-1.019-25.43,4.068
	C54.607-17.163,43.925-5.975,49.52,3.18c5.594,9.155,8.139,16.784,18.309,18.31c10.174,1.525,26.957-8.136,26.957-8.136
	l24.922,23.395c0,0-12.206,16.784-24.412,20.343c-12.207,3.561-40.688,8.139-54.93-3.05C26.125,42.852,9.85,21.998,9.34,8.266
	c-0.508-13.73,1.018-40.689,11.697-50.86c10.684-10.173,26.447-22.888,41.705-23.395c15.26-0.508,31.027-5.087,46.283,8.646
	c15.258,13.73,20.851,23.904,20.851,23.904L99.872-11.569z"/>
</svg>
