<?xml version="1.0" encoding="utf-8"?>
<!-- Generator: Adobe Illustrator 16.0.0, SVG Export Plug-In . SVG Version: 6.00 Build 0)  -->
<!DOCTYPE svg PUBLIC "-//W3C//DTD SVG 1.1//EN" "http://www.w3.org/Graphics/SVG/1.1/DTD/svg11.dtd">
<svg version="1.1" id="Layer_1" xmlns="http://www.w3.org/2000/svg" xmlns:xlink="http://www.w3.org/1999/xlink" x="0px" y="0px"
	 width="249.105px" height="535.475px" viewBox="0 0 249.105 535.475" enable-background="new 0 0 249.105 535.475"
	 xml:space="preserve">
<path fill="#231F20" d="M253.123-73.6c0,0-15.26,0.509-14.75,13.224c0.508,12.715,7.631,96.635,8.137,126.641
	c0.51,30.007,10.172,113.928,10.172,131.729c0,17.8-1.018,26.446-1.018,26.446l-56.961,27.975c0,0,18.816-14.75,19.834-25.941
	c1.016-11.188-5.088-106.805-6.613-145.968c-1.523-39.163-6.611-113.926-8.646-127.658c-2.033-13.732-2.033-23.395-2.033-23.395
	S246.51-73.092,253.123-73.6z"/>
</svg>
