<?xml version="1.0" encoding="utf-8"?>
<!-- Generator: Adobe Illustrator 16.0.0, SVG Export Plug-In . SVG Version: 6.00 Build 0)  -->
<!DOCTYPE svg PUBLIC "-//W3C//DTD SVG 1.1//EN" "http://www.w3.org/Graphics/SVG/1.1/DTD/svg11.dtd">
<svg version="1.1" id="Layer_1" xmlns="http://www.w3.org/2000/svg" xmlns:xlink="http://www.w3.org/1999/xlink" x="0px" y="0px"
	 width="249.105px" height="535.475px" viewBox="0 0 249.105 535.475" enable-background="new 0 0 249.105 535.475"
	 xml:space="preserve">
<path fill="#231F20" d="M275.48,41.893c0,0-22.889,10.682-22.889,30.008c0,19.328,6.102,51.37,17.291,68.662
	c11.189,17.291,23.904,59.506,23.904,59.506s-5.088,8.137-11.188,21.869c-6.105,13.734-13.734,30.01-18.312,37.639
	c-4.576,7.628-9.662,8.137-9.662,8.137s19.836-19.834,13.225-38.146c-6.613-18.31-21.869-56.962-32.551-85.444
	c-10.682-28.481-15.26-48.825-7.119-61.032C236.316,70.885,259.203,49.524,275.48,41.893z"/>
</svg>
