<?xml version="1.0" encoding="utf-8"?>
<!-- Generator: Adobe Illustrator 16.0.0, SVG Export Plug-In . SVG Version: 6.00 Build 0)  -->
<!DOCTYPE svg PUBLIC "-//W3C//DTD SVG 1.1//EN" "http://www.w3.org/Graphics/SVG/1.1/DTD/svg11.dtd">
<svg version="1.1" id="Layer_1" xmlns="http://www.w3.org/2000/svg" xmlns:xlink="http://www.w3.org/1999/xlink" x="0px" y="0px"
	 width="249.105px" height="535.475px" viewBox="0 0 249.105 535.475" enable-background="new 0 0 249.105 535.475"
	 xml:space="preserve">
<path fill="#231F20" d="M199.662,213.251c0,0,12.207-4.068,17.803-13.732s9.156-14.75,9.156-14.75s46.791,25.939,60.521,33.061
	c13.732,7.119,28.482,20.852,30.518,25.428c2.033,4.578,0,9.154-4.07,17.293c-4.068,8.139-10.682,26.448-17.291,34.077
	c-6.611,7.629-28.99,12.717-34.078,15.768c-5.084,3.051,30.52-14.24,32.553-24.922c2.031-10.68-5.086-19.327-21.869-30.516
	S205.258,219.354,199.662,213.251z"/>
</svg>
