<?xml version="1.0" encoding="utf-8"?>
<!-- Generator: Adobe Illustrator 16.0.0, SVG Export Plug-In . SVG Version: 6.00 Build 0)  -->
<!DOCTYPE svg PUBLIC "-//W3C//DTD SVG 1.1//EN" "http://www.w3.org/Graphics/SVG/1.1/DTD/svg11.dtd">
<svg version="1.1" id="Layer_1" xmlns="http://www.w3.org/2000/svg" xmlns:xlink="http://www.w3.org/1999/xlink" x="0px" y="0px"
	 width="249.105px" height="535.475px" viewBox="0 0 249.105 535.475" enable-background="new 0 0 249.105 535.475"
	 xml:space="preserve">
<path fill="#231F20" d="M211.842,170.887c0,0-75.51-110.313-84.047-136.58c-8.538-26.267-24.956-87.987-9.196-107.687
	c8.204-10.257,22.981-21.014,61.067-3.286c38.086,17.729,34.805,18.383,54.504,19.699c19.697,1.315,27.578-3.282,27.578-3.282
	l-17.73,45.966c0,0-9.195,9.849-20.357,3.282c-11.16-6.567-54.502-30.861-67.633-28.891s-31.519-5.251-28.891,19.699
	C129.765,4.759,140.105,75.928,211.842,170.887z"/>
</svg>
