<?xml version="1.0" encoding="utf-8"?>
<!-- Generator: Adobe Illustrator 16.0.0, SVG Export Plug-In . SVG Version: 6.00 Build 0)  -->
<!DOCTYPE svg PUBLIC "-//W3C//DTD SVG 1.1//EN" "http://www.w3.org/Graphics/SVG/1.1/DTD/svg11.dtd">
<svg version="1.1" id="Layer_1" xmlns="http://www.w3.org/2000/svg" xmlns:xlink="http://www.w3.org/1999/xlink" x="0px" y="0px"
	 width="249.105px" height="535.475px" viewBox="0 0 249.105 535.475" enable-background="new 0 0 249.105 535.475"
	 xml:space="preserve">
<path fill="#231F20" d="M210.238-70.567c0,0-63.064,0.51-65.609,4.07c-2.545,3.559-8.139,15.257-10.174,30.006
	c-2.035,14.751-9.154,54.42-12.712,81.886c-3.562,27.465-8.139,68.661-11.699,100.194s-6.611,71.203-11.188,89.005
	c-4.577,17.801-11.188,26.448-16.784,32.041c-5.596,5.596-8.646,5.596-8.646,5.596s43.232-4.069,49.332-6.105
	c6.107-2.033,10.681-6.102,12.718-16.275c2.035-10.17,5.594-37.635,8.645-72.729c3.055-35.095,21.871-153.6,23.904-178.012
	c2.033-24.413,4.068-46.791,6.611-51.37C177.179-56.835,190.912-69.04,210.238-70.567z"/>
</svg>
