<?xml version="1.0" encoding="utf-8"?>
<!-- Generator: Adobe Illustrator 16.0.0, SVG Export Plug-In . SVG Version: 6.00 Build 0)  -->
<!DOCTYPE svg PUBLIC "-//W3C//DTD SVG 1.1//EN" "http://www.w3.org/Graphics/SVG/1.1/DTD/svg11.dtd">
<svg version="1.1" id="Layer_1" xmlns="http://www.w3.org/2000/svg" xmlns:xlink="http://www.w3.org/1999/xlink" x="0px" y="0px"
	 width="249.105px" height="535.475px" viewBox="0 0 249.105 535.475" enable-background="new 0 0 249.105 535.475"
	 xml:space="preserve">
<path fill="#231F20" d="M325.41,77.064c0,0-5.086-8.138-15.258-6.104c-10.172,2.035-18.311,11.189-34.076,28.99
	c-15.768,17.801-38.148,46.792-45.268,49.844c-7.119,3.051-14.24-2.035-14.24-2.035l-2.033-48.316c0,0,2.543,11.697,10.172,6.102
	c7.631-5.594,14.24-15.766,23.904-30.006c9.664-14.241,27.973-36.111,42.723-39.162c14.75-3.052,22.377,1.018,25.43,3.051
	C319.814,41.462,325.41,77.064,325.41,77.064z"/>
</svg>
