<?xml version="1.0" encoding="utf-8"?>
<!-- Generator: Adobe Illustrator 16.0.0, SVG Export Plug-In . SVG Version: 6.00 Build 0)  -->
<!DOCTYPE svg PUBLIC "-//W3C//DTD SVG 1.1//EN" "http://www.w3.org/Graphics/SVG/1.1/DTD/svg11.dtd">
<svg version="1.1" id="Layer_1" xmlns="http://www.w3.org/2000/svg" xmlns:xlink="http://www.w3.org/1999/xlink" x="0px" y="0px"
	 width="249.105px" height="535.475px" viewBox="0 0 249.105 535.475" enable-background="new 0 0 249.105 535.475"
	 xml:space="preserve">
<path fill="#231F20" d="M14.428,222.387c0,0,9.662,12.716,41.195,10.681c31.533-2.033,60.016-6.612,82.392-9.662
	c22.379-3.053,38.654-5.087,45.775-2.545c7.121,2.545,9.664,8.646,10.17,12.715c0.512,4.068-3.559,41.197-3.559,41.197
	s-2.035-15.765-11.188-16.275c-9.158-0.508-48.826,7.629-73.748,10.681c-24.923,3.053-52.896,5.594-69.68,3.561
	c-16.783-2.035-30.515-13.222-30.515-13.222S9.34,229,14.428,222.387z"/>
</svg>
