<?xml version="1.0" encoding="utf-8"?>
<!-- Generator: Adobe Illustrator 16.0.0, SVG Export Plug-In . SVG Version: 6.00 Build 0)  -->
<!DOCTYPE svg PUBLIC "-//W3C//DTD SVG 1.1//EN" "http://www.w3.org/Graphics/SVG/1.1/DTD/svg11.dtd">
<svg version="1.1" id="Layer_1" xmlns="http://www.w3.org/2000/svg" xmlns:xlink="http://www.w3.org/1999/xlink" x="0px" y="0px"
	 width="249.105px" height="535.475px" viewBox="0 0 249.105 535.475" enable-background="new 0 0 249.105 535.475"
	 xml:space="preserve">
<path fill="#231F20" d="M80.142,193.925c0,0,8.14-15.26,1.018-28.482c-7.122-13.225-30.008-47.301-41.197-68.663
	C28.774,75.418,13.516,35.748,12.498,25.067s1.527-22.378,1.527-22.378l53.909-40.688l18.817,13.224
	c0,0-17.799,22.887-18.817,26.956c-1.018,4.069-6.102,10.68-5.593,17.292c0.507,6.612-1.018-13.732-5.087-21.869
	c-4.068-8.138-11.697-15.768-11.697-15.768s-2.544,2.035-3.051,11.699c-0.511,9.664-2.036,21.869,10.68,49.843
	c12.715,27.973,30.517,66.117,38.652,80.359c8.14,14.241,17.295,25.43,17.295,25.43S87.77,184.26,80.142,193.925z"/>
</svg>
