<?xml version="1.0" encoding="utf-8"?>
<!-- Generator: Adobe Illustrator 16.0.0, SVG Export Plug-In . SVG Version: 6.00 Build 0)  -->
<!DOCTYPE svg PUBLIC "-//W3C//DTD SVG 1.1//EN" "http://www.w3.org/Graphics/SVG/1.1/DTD/svg11.dtd">
<svg version="1.1" id="Layer_1" xmlns="http://www.w3.org/2000/svg" xmlns:xlink="http://www.w3.org/1999/xlink" x="0px" y="0px"
	 width="249.105px" height="535.475px" viewBox="0 0 249.105 535.475" enable-background="new 0 0 249.105 535.475"
	 xml:space="preserve">
<path fill="#231F20" d="M285.289-80.893c0,0-11.188,10.68,0.51,29.498c11.697,18.819,50.352,78.833,62.559,96.634
	c12.205,17.801,23.902,44.248,26.445,47.299c2.545,3.053,0.51,14.244-1.018,20.346c-1.525,6.103-12.207,32.042-14.746,37.637
	c-2.547,5.594-5.596,13.731-5.596,13.731s4.068-26.954-6.104-43.231c-10.172-16.275-30.516-55.945-46.283-79.341
	s-47.301-75.781-49.844-82.394c-2.545-6.612-7.119-11.697-7.119-11.697S280.711-78.859,285.289-80.893z"/>
</svg>
