<?xml version="1.0" encoding="utf-8"?>
<!-- Generator: Adobe Illustrator 16.0.0, SVG Export Plug-In . SVG Version: 6.00 Build 0)  -->
<!DOCTYPE svg PUBLIC "-//W3C//DTD SVG 1.1//EN" "http://www.w3.org/Graphics/SVG/1.1/DTD/svg11.dtd">
<svg version="1.1" id="Layer_1" xmlns="http://www.w3.org/2000/svg" xmlns:xlink="http://www.w3.org/1999/xlink" x="0px" y="0px"
	 width="249.105px" height="535.475px" viewBox="0 0 249.105 535.475" enable-background="new 0 0 249.105 535.475"
	 xml:space="preserve">
<path fill="#231F20" d="M175.76,26.593c0,0-13.732-15.767-24.922-13.223c-11.189,2.542-19.326,8.646-21.359,18.31
	c-2.035,9.663-1.018,21.87,7.119,25.43s17.801,7.629,25.939,3.051c8.135-4.577,14.24-7.121,15.764-11.189
	c1.527-4.068,1.527-4.068,1.527-4.068v-6.104l33.568,21.871c0,0-9.154,19.834-17.803,24.922
	c-8.645,5.084-30.514,21.867-58.486,11.188c-27.973-10.68-36.62-25.43-41.707-36.109c-5.086-10.682-10.173-28.991-3.051-43.741
	c7.12-14.749,10.68-24.921,26.446-32.042c15.768-7.12,28.481-14.241,44.247-10.172c15.768,4.069,24.414,6.612,31.027,13.733
	c6.609,7.12,13.223,18.309,13.223,18.309L175.76,26.593z"/>
</svg>
