<?xml version="1.0" encoding="utf-8"?>
<!-- Generator: Adobe Illustrator 16.0.0, SVG Export Plug-In . SVG Version: 6.00 Build 0)  -->
<!DOCTYPE svg PUBLIC "-//W3C//DTD SVG 1.1//EN" "http://www.w3.org/Graphics/SVG/1.1/DTD/svg11.dtd">
<svg version="1.1" id="Layer_1" xmlns="http://www.w3.org/2000/svg" xmlns:xlink="http://www.w3.org/1999/xlink" x="0px" y="0px"
	 width="249.105px" height="535.475px" viewBox="0 0 249.105 535.475" enable-background="new 0 0 249.105 535.475"
	 xml:space="preserve">
<path fill="#231F20" d="M170.888,149.693c0,0-24.41,27.466-25.428,31.025c-1.018,3.561-4.578,14.75-4.578,14.75
	s-1.018-13.225-6.104-19.328S94.6,145.625,73.747,132.4c-20.853-13.223-29.499-16.782-29.499-22.377
	c0-5.596,10.173-19.328,17.802-27.465c7.629-8.138,34.585-22.888,34.585-22.888s-26.956,19.327-18.31,28.482
	c8.646,9.155,39.672,29.499,57.471,38.653C153.597,135.961,162.244,146.642,170.888,149.693z"/>
</svg>
