<?xml version="1.0" encoding="utf-8"?>
<!-- Generator: Adobe Illustrator 16.0.0, SVG Export Plug-In . SVG Version: 6.00 Build 0)  -->
<!DOCTYPE svg PUBLIC "-//W3C//DTD SVG 1.1//EN" "http://www.w3.org/Graphics/SVG/1.1/DTD/svg11.dtd">
<svg version="1.1" id="Layer_1" xmlns="http://www.w3.org/2000/svg" xmlns:xlink="http://www.w3.org/1999/xlink" x="0px" y="0px"
	 width="249.105px" height="535.475px" viewBox="0 0 249.105 535.475" enable-background="new 0 0 249.105 535.475"
	 xml:space="preserve">
<path fill="#231F20" d="M186.189,86.919c0,0-10.174,34.586-7.629,38.654c2.543,4.068,8.137,10.172,22.379,11.697
	c14.24,1.526,38.652,0,63.574-4.576c24.922-4.578,63.574-11.698,71.713-8.139c8.139,3.561,12.713,10.682,14.24,15.259
	c1.525,4.577,2.545,7.629,2.545,7.629s4.574-31.534,3.051-41.706c-1.527-10.172-5.086-17.8-12.207-19.326
	c-7.119-1.525-40.688-1.018-59.506,4.069C265.531,95.565,193.31,107.262,186.189,86.919z"/>
</svg>
