<?xml version="1.0" encoding="utf-8"?>
<!-- Generator: Adobe Illustrator 16.0.0, SVG Export Plug-In . SVG Version: 6.00 Build 0)  -->
<!DOCTYPE svg PUBLIC "-//W3C//DTD SVG 1.1//EN" "http://www.w3.org/Graphics/SVG/1.1/DTD/svg11.dtd">
<svg version="1.1" id="Layer_1" xmlns="http://www.w3.org/2000/svg" xmlns:xlink="http://www.w3.org/1999/xlink" x="0px" y="0px"
	 width="249.105px" height="535.475px" viewBox="0 0 249.105 535.475" enable-background="new 0 0 249.105 535.475"
	 xml:space="preserve">
<path fill="#231F20" d="M227.818-73.774c0,0-6.105,7.121,4.576,24.414c10.68,17.292,49.844,91.04,49.844,91.04
	s22.887,43.23,23.904,50.351c1.016,7.121-8.139,18.311-15.258,24.922c-7.121,6.611-15.768,15.766-15.768,15.766
	s3.561-10.68-3.051-24.919c-6.613-14.242-36.619-69.681-48.318-89.515c-11.699-19.835-30.008-53.403-31.023-57.472
	c-1.018-4.069-5.086-6.103-3.053-8.138C191.707-49.36,222.73-69.197,227.818-73.774z"/>
</svg>
