<?xml version="1.0" encoding="utf-8"?>
<!-- Generator: Adobe Illustrator 16.0.0, SVG Export Plug-In . SVG Version: 6.00 Build 0)  -->
<!DOCTYPE svg PUBLIC "-//W3C//DTD SVG 1.1//EN" "http://www.w3.org/Graphics/SVG/1.1/DTD/svg11.dtd">
<svg version="1.1" id="Layer_1" xmlns="http://www.w3.org/2000/svg" xmlns:xlink="http://www.w3.org/1999/xlink" x="0px" y="0px"
	 width="249.105px" height="535.475px" viewBox="0 0 249.105 535.475" enable-background="new 0 0 249.105 535.475"
	 xml:space="preserve">
<path fill="#231F20" d="M199.922,202.372c0,0-36.111-3.051-32.551-25.939c3.559-22.887,19.836-42.213,29.5-45.773
	c9.66-3.561,50.859-6.611,77.814,2.035c26.955,8.645,90.023,43.229,109.35,43.738s26.445,2.543,31.533-6.609
	c5.086-9.156,12.205-29.5,12.205-29.5s-12.205,68.66-51.877,67.135c-39.67-1.525-74.256-30.517-111.893-42.213
	c-37.637-11.699-97.143-23.906-91.037,6.61C179.068,202.372,194.836,201.354,199.922,202.372z"/>
</svg>
