<?xml version="1.0" encoding="utf-8"?>
<!-- Generator: Adobe Illustrator 16.0.0, SVG Export Plug-In . SVG Version: 6.00 Build 0)  -->
<!DOCTYPE svg PUBLIC "-//W3C//DTD SVG 1.1//EN" "http://www.w3.org/Graphics/SVG/1.1/DTD/svg11.dtd">
<svg version="1.1" id="Layer_1" xmlns="http://www.w3.org/2000/svg" xmlns:xlink="http://www.w3.org/1999/xlink" x="0px" y="0px"
	 width="249.105px" height="535.475px" viewBox="0 0 249.105 535.475" enable-background="new 0 0 249.105 535.475"
	 xml:space="preserve">
<path fill="#231F20" d="M40.652-59.533c0,0-12.206,10.682-12.206,18.311c0,7.628,10.682,35.093,21.87,43.741
	c11.19,8.645,41.706,36.109,52.386,45.264s18.817,16.783,17.293,24.92c-1.527,8.14-15.258,27.466-18.309,32.553
	c-3.052,5.086-9.664,16.275-9.664,16.275s7.628-17.801,2.033-25.939c-5.594-8.137-27.464-27.973-47.301-44.755
	C26.92,34.051,10.135,18.284,5.557,5.568C0.98-7.146-3.596-18.336-0.545-23.93C2.506-29.525,33.023-55.464,40.652-59.533z"/>
</svg>
