<?xml version="1.0" encoding="utf-8"?>
<!-- Generator: Adobe Illustrator 16.0.0, SVG Export Plug-In . SVG Version: 6.00 Build 0)  -->
<!DOCTYPE svg PUBLIC "-//W3C//DTD SVG 1.1//EN" "http://www.w3.org/Graphics/SVG/1.1/DTD/svg11.dtd">
<svg version="1.1" id="Layer_1" xmlns="http://www.w3.org/2000/svg" xmlns:xlink="http://www.w3.org/1999/xlink" x="0px" y="0px"
	 width="249.105px" height="535.475px" viewBox="0 0 249.105 535.475" enable-background="new 0 0 249.105 535.475"
	 xml:space="preserve">
<path fill="#231F20" d="M-44.842,107.82c0,0-6.781,11.525,3.391,14.916c10.174,3.393,25.771,10.174,42.726,3.393
	c16.951-6.781,35.262-12.206,52.893-20.344c17.632-8.139,47.47-21.021,47.47-21.021s-0.68,19.665,0,29.836
	c0.68,10.174,2.035,13.564,2.035,13.564s-12.208-0.678-17.633,1.355c-5.424,2.035-67.134,35.263-86.802,35.263
	c-19.666,0-42.044-8.138-42.044-8.138S-56.37,118.667-44.842,107.82z"/>
</svg>
