<?xml version="1.0" encoding="utf-8"?>
<!-- Generator: Adobe Illustrator 16.0.0, SVG Export Plug-In . SVG Version: 6.00 Build 0)  -->
<!DOCTYPE svg PUBLIC "-//W3C//DTD SVG 1.1//EN" "http://www.w3.org/Graphics/SVG/1.1/DTD/svg11.dtd">
<svg version="1.1" id="Layer_1" xmlns="http://www.w3.org/2000/svg" xmlns:xlink="http://www.w3.org/1999/xlink" x="0px" y="0px"
	 width="249.105px" height="535.475px" viewBox="0 0 249.105 535.475" enable-background="new 0 0 249.105 535.475"
	 xml:space="preserve">
<path fill="#231F20" d="M36.545,208.089c0,0,14.749,12.713,46.283,11.696c31.53-1.018,47.808,4.069,58.998,6.612
	c11.189,2.541,20.852,7.119,21.869,18.818c1.018,11.695,1.018,25.428-3.559,32.042c-4.578,6.611-22.381,20.344-22.381,20.344
	s22.381-27.463,12.207-32.551c-10.172-5.086-25.428-10.68-50.86-11.698c-25.428-1.017-50.859-2.542-62.558-6.103
	c-8.271-2.518-24.921-18.817-24.921-18.817L36.545,208.089z"/>
</svg>
