<?xml version="1.0" encoding="utf-8"?>
<!-- Generator: Adobe Illustrator 16.0.0, SVG Export Plug-In . SVG Version: 6.00 Build 0)  -->
<!DOCTYPE svg PUBLIC "-//W3C//DTD SVG 1.1//EN" "http://www.w3.org/Graphics/SVG/1.1/DTD/svg11.dtd">
<svg version="1.1" id="Layer_1" xmlns="http://www.w3.org/2000/svg" xmlns:xlink="http://www.w3.org/1999/xlink" x="0px" y="0px"
	 width="249.105px" height="535.475px" viewBox="0 0 249.105 535.475" enable-background="new 0 0 249.105 535.475"
	 xml:space="preserve">
<path fill="#231F20" d="M105.321-66.31c0,0,33.212-1.88,38.851,0c5.643,1.879,11.908,16.92,11.908,25.692
	s-2.508,25.066-11.908,35.72c-9.398,10.652-13.162,18.174-32.587,32.586c-19.426,14.414-40.73,27.572-53.89,40.106
	C44.533,80.329,35.76,112.288,35.76,112.288S10.065,73.436,11.321,69.049c1.255-4.387,9.398-18.8,19.424-26.319
	c10.029-7.52,69.561-43.865,78.335-58.28C117.852-29.965,119.106-56.284,105.321-66.31z"/>
</svg>
