<?xml version="1.0" encoding="utf-8"?>
<!-- Generator: Adobe Illustrator 16.0.0, SVG Export Plug-In . SVG Version: 6.00 Build 0)  -->
<!DOCTYPE svg PUBLIC "-//W3C//DTD SVG 1.1//EN" "http://www.w3.org/Graphics/SVG/1.1/DTD/svg11.dtd">
<svg version="1.1" id="Layer_1" xmlns="http://www.w3.org/2000/svg" xmlns:xlink="http://www.w3.org/1999/xlink" x="0px" y="0px"
	 width="249.105px" height="535.475px" viewBox="0 0 249.105 535.475" enable-background="new 0 0 249.105 535.475"
	 xml:space="preserve">
<path fill="#231F20" d="M6.933,104.141c0,0,68.308-1.881,88.358-0.627c20.054,1.254,38.851,15.04,43.867,20.68
	c5.014,5.641,6.268,15.04,3.762,19.427c-2.508,4.386-12.533,16.294-48.878,32.587c-36.347,16.293-48.257,26.945-50.761,38.852
	c-2.507,11.908-3.761,26.32-3.761,26.32s-23.186-30.078-24.439-37.6c-1.254-7.52,1.254-26.32,15.041-34.467
	c13.785-8.146,62.663-30.079,70.184-37.6c7.521-7.52,7.521-12.533-0.625-15.039C91.532,114.169,24.481,102.261,6.933,104.141z"/>
</svg>
