<?xml version="1.0" encoding="utf-8"?>
<!-- Generator: Adobe Illustrator 16.0.0, SVG Export Plug-In . SVG Version: 6.00 Build 0)  -->
<!DOCTYPE svg PUBLIC "-//W3C//DTD SVG 1.1//EN" "http://www.w3.org/Graphics/SVG/1.1/DTD/svg11.dtd">
<svg version="1.1" id="Layer_1" xmlns="http://www.w3.org/2000/svg" xmlns:xlink="http://www.w3.org/1999/xlink" x="0px" y="0px"
	 width="249.105px" height="535.475px" viewBox="0 0 249.105 535.475" enable-background="new 0 0 249.105 535.475"
	 xml:space="preserve">
<path fill="#231F20" d="M176.14,4.803c0,0-23.908-42.854-73.346-47.036c0,0-60.169,7.811-70.912,22.475
	C21.137-5.095,3.653,26.922,7.585,48.321c3.932,21.398,5.148,57.489,35.834,73.635c30.681,16.146,66.731,26.963,89.493,15.016
	c22.764-11.95,44.209-29.252,49.646-55.962C187.998,54.297,189.449,22.225,176.14,4.803z M145.924,67.718
	c-3.121,15.309-15.408,25.223-28.454,32.071c-13.048,6.849-33.708,0.648-51.288-8.603c-17.584-9.255-18.284-29.937-20.536-42.201
	c-2.252-12.266,7.766-30.614,13.925-39.018c6.156-8.403,40.635-12.876,40.635-12.876c28.338,2.396,42.04,26.953,42.04,26.953
	C149.869,34.03,149.039,52.41,145.924,67.718z"/>
</svg>
