<?xml version="1.0" encoding="utf-8"?>
<!-- Generator: Adobe Illustrator 16.0.0, SVG Export Plug-In . SVG Version: 6.00 Build 0)  -->
<!DOCTYPE svg PUBLIC "-//W3C//DTD SVG 1.1//EN" "http://www.w3.org/Graphics/SVG/1.1/DTD/svg11.dtd">
<svg version="1.1" id="Layer_1" xmlns="http://www.w3.org/2000/svg" xmlns:xlink="http://www.w3.org/1999/xlink" x="0px" y="0px"
	 width="249.105px" height="535.475px" viewBox="0 0 249.105 535.475" enable-background="new 0 0 249.105 535.475"
	 xml:space="preserve">
<path fill="#231F20" d="M103.892-118.857c0,0-5.91,3.94,3.939,11.82c9.85,7.879,210.125,194.362,231.793,212.748
	c21.668,18.387,63.033,59.093,61.721,64.349c-1.312,5.255-12.477,15.101-13.789,23.638c-1.312,8.538-6.564,22.985-12.473,32.835
	c-5.912,9.85-12.479,11.161-12.479,11.161s17.07-20.357,11.162-32.176c-5.91-11.82-130.668-122.134-145.115-137.893
	C214.205,51.866,84.851-71.579,82.88-77.489C80.909-83.398,92.726-110.319,103.892-118.857z"/>
</svg>
