<?xml version="1.0" encoding="utf-8"?>
<!-- Generator: Adobe Illustrator 16.0.0, SVG Export Plug-In . SVG Version: 6.00 Build 0)  -->
<!DOCTYPE svg PUBLIC "-//W3C//DTD SVG 1.1//EN" "http://www.w3.org/Graphics/SVG/1.1/DTD/svg11.dtd">
<svg version="1.1" id="Layer_1" xmlns="http://www.w3.org/2000/svg" xmlns:xlink="http://www.w3.org/1999/xlink" x="0px" y="0px"
	 width="249.105px" height="535.475px" viewBox="0 0 249.105 535.475" enable-background="new 0 0 249.105 535.475"
	 xml:space="preserve">
<path fill="#231F20" d="M103.238,55.152c0,0-26.27,28.232-26.926,30.86c-0.654,2.628-8.535,11.161,9.85,34.8
	c18.389,23.64,33.488,32.835,49.907,44.653c16.416,11.82,43.336,33.488,43.336,39.398s-1.314,15.102-6.566,19.041
	c-5.252,3.94-16.412,17.071-16.412,17.071s38.742-24.951,45.305-38.74c6.566-13.789,17.072-25.604-4.596-40.71
	c-21.67-15.104-53.191-39.402-67.635-52.533C115.056,95.862,99.954,82.731,103.238,55.152z"/>
</svg>
