<?xml version="1.0" encoding="utf-8"?>
<!-- Generator: Adobe Illustrator 16.0.0, SVG Export Plug-In . SVG Version: 6.00 Build 0)  -->
<!DOCTYPE svg PUBLIC "-//W3C//DTD SVG 1.1//EN" "http://www.w3.org/Graphics/SVG/1.1/DTD/svg11.dtd">
<svg version="1.1" id="Layer_1" xmlns="http://www.w3.org/2000/svg" xmlns:xlink="http://www.w3.org/1999/xlink" x="0px" y="0px"
	 width="249.105px" height="535.475px" viewBox="0 0 249.105 535.475" enable-background="new 0 0 249.105 535.475"
	 xml:space="preserve">
<path fill="#231F20" d="M141.322,240.816c0,0,23.814-41.985,40.734-75.825c16.916-33.84,20.049-47,20.049-47
	s-26.945,71.439-31.959,79.586c-5.01,8.146-10.65,11.281-5.01,12.533c5.639,1.254,43.234,10.653,61.408,16.293
	c18.176,5.641,33.842,7.521,42.615,13.16c8.773,5.641,11.279,11.28,11.279,11.28l-22.561,50.759c0,0,2.508-18.799-6.893-24.439
	s-51.385-14.413-69.561-20.053C163.254,251.47,150.722,250.843,141.322,240.816z"/>
</svg>
