<?xml version="1.0" encoding="utf-8"?>
<!-- Generator: Adobe Illustrator 16.0.0, SVG Export Plug-In . SVG Version: 6.00 Build 0)  -->
<!DOCTYPE svg PUBLIC "-//W3C//DTD SVG 1.1//EN" "http://www.w3.org/Graphics/SVG/1.1/DTD/svg11.dtd">
<svg version="1.1" id="Layer_1" xmlns="http://www.w3.org/2000/svg" xmlns:xlink="http://www.w3.org/1999/xlink" x="0px" y="0px"
	 width="249.105px" height="535.475px" viewBox="0 0 249.105 535.475" enable-background="new 0 0 249.105 535.475"
	 xml:space="preserve">
<path fill="#231F20" d="M44.14-118.198c0,0-9.85,5.248-3.939,14.443c5.91,9.196,84.051,86.021,98.495,97.841
	c14.443,11.819,210.121,202.242,210.121,202.242s9.191,6.566,7.223,14.447c-1.971,7.88-11.82,18.383-13.133,28.891
	s-6.566,28.236-6.566,28.236s1.973-19.703-4.594-26.925c-6.568-7.222-158.908-154.964-158.908-154.964S22.471-57.786,19.844-61.071
	c-2.627-3.286-9.195-5.256-4.598-13.135C19.844-82.086,31.667-112.289,44.14-118.198z"/>
</svg>
