<?xml version="1.0" encoding="utf-8"?>
<!-- Generator: Adobe Illustrator 16.0.0, SVG Export Plug-In . SVG Version: 6.00 Build 0)  -->
<!DOCTYPE svg PUBLIC "-//W3C//DTD SVG 1.1//EN" "http://www.w3.org/Graphics/SVG/1.1/DTD/svg11.dtd">
<svg version="1.1" id="Layer_1" xmlns="http://www.w3.org/2000/svg" xmlns:xlink="http://www.w3.org/1999/xlink" x="0px" y="0px"
	 width="249.105px" height="535.475px" viewBox="0 0 249.105 535.475" enable-background="new 0 0 249.105 535.475"
	 xml:space="preserve">
<path fill="#231F20" d="M31.346,51.424l0.626,36.346c0,0,6.265,23.188,39.479,17.548c33.212-5.641,70.814-11.282,109.039-32.588
	c38.227-21.306,66.426-35.719,85.225-38.225c18.801-2.508,34.469-8.149,46.375-1.255c11.906,6.894,20.682,33.214,20.682,33.214
	s-1.258-45.121-7.521-57.654c-6.268-12.532-18.801-26.944-45.121-19.426c-26.318,7.52-90.236,34.467-120.945,50.133
	C128.476,55.182,65.184,88.397,31.346,51.424z"/>
</svg>
