<?xml version="1.0" encoding="utf-8"?>
<!-- Generator: Adobe Illustrator 16.0.0, SVG Export Plug-In . SVG Version: 6.00 Build 0)  -->
<!DOCTYPE svg PUBLIC "-//W3C//DTD SVG 1.1//EN" "http://www.w3.org/Graphics/SVG/1.1/DTD/svg11.dtd">
<svg version="1.1" id="Layer_1" xmlns="http://www.w3.org/2000/svg" xmlns:xlink="http://www.w3.org/1999/xlink" x="0px" y="0px"
	 width="249.105px" height="535.475px" viewBox="0 0 249.105 535.475" enable-background="new 0 0 249.105 535.475"
	 xml:space="preserve">
<path fill="#231F20" d="M170.763,161.254c0,0-27.066,34.372-28.969,41.257c-1.906,6.889,1.146,30.711,10.502,43.277
	c9.354,12.567,22.459,29.534,59.43,29.663s106.562-8.401,146.023-3.25c39.461,5.15,60.125,9.607,67.625,15.902
	c7.496,6.293,8.738,10.684,8.738,10.684l8.307-46.345c0,0-13.1-17.594-53.826-18.989c-40.729-1.394-104.035,2.146-142.266,2.639
	C208.101,236.583,146.043,242.007,170.763,161.254z"/>
</svg>
