<?xml version="1.0" encoding="utf-8"?>
<!-- Generator: Adobe Illustrator 16.0.0, SVG Export Plug-In . SVG Version: 6.00 Build 0)  -->
<!DOCTYPE svg PUBLIC "-//W3C//DTD SVG 1.1//EN" "http://www.w3.org/Graphics/SVG/1.1/DTD/svg11.dtd">
<svg version="1.1" id="Layer_1" xmlns="http://www.w3.org/2000/svg" xmlns:xlink="http://www.w3.org/1999/xlink" x="0px" y="0px"
	 width="249.105px" height="535.475px" viewBox="0 0 249.105 535.475" enable-background="new 0 0 249.105 535.475"
	 xml:space="preserve">
<path fill="#231F20" d="M252.168-59.298l-36.66,8.461c0,0,0,18.8-5.641,28.199c-5.641,9.4-34.781,64.859-37.6,71.439
	c-2.82,6.58-8.459,29.141,0,41.359c8.461,12.221,18.799,20.68,23.498,22.561c4.699,1.88,4.699,1.88,4.699,1.88
	s-7.518-8.46-2.82-31.021c4.703-22.559,16.922-46.998,35.721-74.259c18.803-27.26,20.682-42.3,21.621-49.819
	C255.927-48.017,256.865-50.837,252.168-59.298z"/>
</svg>
