<?xml version="1.0" encoding="utf-8"?>
<!-- Generator: Adobe Illustrator 16.0.0, SVG Export Plug-In . SVG Version: 6.00 Build 0)  -->
<!DOCTYPE svg PUBLIC "-//W3C//DTD SVG 1.1//EN" "http://www.w3.org/Graphics/SVG/1.1/DTD/svg11.dtd">
<svg version="1.1" id="Layer_1" xmlns="http://www.w3.org/2000/svg" xmlns:xlink="http://www.w3.org/1999/xlink" x="0px" y="0px"
	 width="249.105px" height="535.475px" viewBox="0 0 249.105 535.475" enable-background="new 0 0 249.105 535.475"
	 xml:space="preserve">
<path fill="#231F20" d="M48.92-20.565c0,0-6.895,5.64,0,13.159c6.894,7.521,20.053,24.439,37.599,34.467s27.575,16.92,33.84,26.32
	c6.266,9.4,5.014,12.533,5.014,12.533s-31.332,32.585-38.854,37.6c-7.521,5.014-13.786,7.52-13.786,7.52
	s25.064-20.053,18.173-28.826c-6.894-8.773-21.934-18.799-37.601-28.826C37.642,43.354,23.228,25.182,18.213,20.169
	c-5.012-5.014-3.76-15.666-3.76-15.666S40.774-17.432,48.92-20.565z"/>
</svg>
