<?xml version="1.0" encoding="utf-8"?>
<!-- Generator: Adobe Illustrator 16.0.0, SVG Export Plug-In . SVG Version: 6.00 Build 0)  -->
<!DOCTYPE svg PUBLIC "-//W3C//DTD SVG 1.1//EN" "http://www.w3.org/Graphics/SVG/1.1/DTD/svg11.dtd">
<svg version="1.1" id="Layer_1" xmlns="http://www.w3.org/2000/svg" xmlns:xlink="http://www.w3.org/1999/xlink" x="0px" y="0px"
	 width="249.105px" height="535.475px" viewBox="0 0 249.105 535.475" enable-background="new 0 0 249.105 535.475"
	 xml:space="preserve">
<path fill="#231F20" d="M158.969,158.183l2.818,45.12c0,0,47.002-0.939,56.4,3.76c9.4,4.7,13.162,9.4,10.34,16.92
	c-2.818,7.52-10.34,22.56-26.32,42.301c-15.979,19.739-43.238,44.18-46.059,66.739c-2.82,22.561,1.881,47,1.881,47
	s-9.402-53.58,36.66-87.42c46.059-33.84,65.799-44.163,65.799-70.5c0-27.261-7.521-44.18-21.619-51.7
	C228.607,164.932,185.287,157.244,158.969,158.183z"/>
</svg>
