<?xml version="1.0" encoding="utf-8"?>
<!-- Generator: Adobe Illustrator 16.0.0, SVG Export Plug-In . SVG Version: 6.00 Build 0)  -->
<!DOCTYPE svg PUBLIC "-//W3C//DTD SVG 1.1//EN" "http://www.w3.org/Graphics/SVG/1.1/DTD/svg11.dtd">
<svg version="1.1" id="Layer_1" xmlns="http://www.w3.org/2000/svg" xmlns:xlink="http://www.w3.org/1999/xlink" x="0px" y="0px"
	 width="249.105px" height="535.475px" viewBox="0 0 249.105 535.475" enable-background="new 0 0 249.105 535.475"
	 xml:space="preserve">
<path fill="#231F20" d="M95.049-35.455c0,0-16.919-30.079-51.7-32.899c0,0-42.301,5.641-49.819,15.98
	c-7.521,10.34-19.739,32.899-16.919,47.938c2.817,15.04,3.761,40.42,25.38,51.7c21.619,11.279,46.998,18.8,62.978,10.34
	c15.98-8.46,31.02-20.68,34.78-39.479C103.51-0.675,104.448-23.236,95.049-35.455z M62.851,4.884
	c-1.465,7.322-7.323,12.082-13.545,15.375c-6.222,3.295-16.106,0.366-24.526-4.026c-8.419-4.392-8.786-14.276-9.883-20.134
	c-1.099-5.857,3.662-14.643,6.586-18.668c2.93-4.027,19.403-6.225,19.403-6.225c13.546,1.1,20.134,12.812,20.134,12.812
	C64.682-11.223,64.315-2.437,62.851,4.884z"/>
</svg>
