<?xml version="1.0" encoding="utf-8"?>
<!-- Generator: Adobe Illustrator 16.0.0, SVG Export Plug-In . SVG Version: 6.00 Build 0)  -->
<!DOCTYPE svg PUBLIC "-//W3C//DTD SVG 1.1//EN" "http://www.w3.org/Graphics/SVG/1.1/DTD/svg11.dtd">
<svg version="1.1" id="Layer_1" xmlns="http://www.w3.org/2000/svg" xmlns:xlink="http://www.w3.org/1999/xlink" x="0px" y="0px"
	 width="249.105px" height="535.475px" viewBox="0 0 249.105 535.475" enable-background="new 0 0 249.105 535.475"
	 xml:space="preserve">
<path fill="#231F20" d="M138.773-1.457c-2.033-12.715-12.205-36.111-27.463-42.724C96.05-50.79,59.941-62.49,28.407-37.06
	c0,0-17.801,21.363-18.311,30.518C9.59,2.611,8.571,25.499,21.288,40.248c12.713,14.749,21.868,30.517,44.754,31.534
	c22.889,1.018,50.352-10.68,57.473-23.396C130.636,35.671,140.808,11.258,138.773-1.457z M94.921,25.772
	c-2.969,5.309-14.435,10.191-23.985,9.768c-9.553-0.425-13.376-7.006-18.682-13.162C46.948,16.22,47.37,6.67,47.583,2.846
	c0.212-3.82,7.645-12.738,7.645-12.738c13.16-10.612,28.232-5.731,34.602-2.969c6.367,2.756,10.611,12.524,11.462,17.829
	C102.14,10.276,97.895,20.466,94.921,25.772z"/>
</svg>
