<?xml version="1.0" encoding="utf-8"?>
<!-- Generator: Adobe Illustrator 16.0.0, SVG Export Plug-In . SVG Version: 6.00 Build 0)  -->
<!DOCTYPE svg PUBLIC "-//W3C//DTD SVG 1.1//EN" "http://www.w3.org/Graphics/SVG/1.1/DTD/svg11.dtd">
<svg version="1.1" id="Layer_1" xmlns="http://www.w3.org/2000/svg" xmlns:xlink="http://www.w3.org/1999/xlink" x="0px" y="0px"
	 width="249.105px" height="535.475px" viewBox="0 0 249.105 535.475" enable-background="new 0 0 249.105 535.475"
	 xml:space="preserve">
<path fill="#231F20" d="M279.095-16.403c-2.035-12.715-12.207-36.11-27.465-42.724c-15.258-6.609-51.369-18.309-82.902,7.121
	c0,0-17.801,21.362-18.309,30.518c-0.51,9.153-1.527,32.041,11.189,46.79c12.715,14.749,21.867,30.517,44.758,31.534
	c22.885,1.018,50.35-10.68,57.471-23.396C270.959,20.725,281.131-3.688,279.095-16.403z M235.246,10.827
	c-2.975,5.309-14.438,10.191-23.99,9.768c-9.553-0.425-13.375-7.006-18.68-13.162c-5.305-6.157-4.883-15.708-4.67-19.531
	c0.211-3.82,7.641-12.738,7.641-12.738c13.164-10.611,28.232-5.73,34.604-2.969c6.369,2.757,10.613,12.524,11.463,17.83
	C242.463-4.669,238.219,5.52,235.246,10.827z"/>
</svg>
