<?xml version="1.0" encoding="utf-8"?>
<!-- Generator: Adobe Illustrator 16.0.0, SVG Export Plug-In . SVG Version: 6.00 Build 0)  -->
<!DOCTYPE svg PUBLIC "-//W3C//DTD SVG 1.1//EN" "http://www.w3.org/Graphics/SVG/1.1/DTD/svg11.dtd">
<svg version="1.1" id="Layer_1" xmlns="http://www.w3.org/2000/svg" xmlns:xlink="http://www.w3.org/1999/xlink" x="0px" y="0px"
	 width="249.105px" height="535.475px" viewBox="0 0 249.105 535.475" enable-background="new 0 0 249.105 535.475"
	 xml:space="preserve">
<path fill="#231F20" d="M105.907,17.121c0,0,12.534-85.853,18.172-96.506c5.641-10.651,5.014-20.052,8.149-18.799
	c3.133,1.252,4.385,8.772,9.398,13.159s21.934,20.054,28.199,26.319c6.268,6.267,10.025,13.159,8.145,20.054
	c-1.877,6.893-21.303,52.639-21.303,52.639s8.145-22.559,2.506-29.453c-5.643-6.893-20.682-20.679-24.441-24.439
	c-3.76-3.76-8.771-10.653-8.771-10.653S109.039-5.438,105.907,17.121z"/>
</svg>
