<?xml version="1.0" encoding="utf-8"?>
<!-- Generator: Adobe Illustrator 16.0.0, SVG Export Plug-In . SVG Version: 6.00 Build 0)  -->
<!DOCTYPE svg PUBLIC "-//W3C//DTD SVG 1.1//EN" "http://www.w3.org/Graphics/SVG/1.1/DTD/svg11.dtd">
<svg version="1.1" id="Layer_1" xmlns="http://www.w3.org/2000/svg" xmlns:xlink="http://www.w3.org/1999/xlink" x="0px" y="0px"
	 width="249.105px" height="535.475px" viewBox="0 0 249.105 535.475" enable-background="new 0 0 249.105 535.475"
	 xml:space="preserve">
<path fill="#231F20" d="M-14.984,132.86l7.519-41.361c0,0,2.508,15.041,23.814,14.413c21.307-0.626,66.426-15.666,101.52-28.826
	c35.094-13.16,56.399-21.934,88.36-27.573c31.959-5.639,49.506-7.52,60.785-5.639s21.934,5.013,21.934,5.013
	s0.625,31.96-1.256,39.479c-1.879,7.52-5.012,14.412-5.012,14.412s5.643-15.039-9.398-19.425
	c-15.041-4.388-39.48-1.253-77.078,9.399c-37.602,10.65-66.426,23.814-106.533,35.719C49.563,140.378,18.227,157.927-14.984,132.86z
	"/>
</svg>
