<?xml version="1.0" encoding="utf-8"?>
<!-- Generator: Adobe Illustrator 16.0.0, SVG Export Plug-In . SVG Version: 6.00 Build 0)  -->
<!DOCTYPE svg PUBLIC "-//W3C//DTD SVG 1.1//EN" "http://www.w3.org/Graphics/SVG/1.1/DTD/svg11.dtd">
<svg version="1.1" id="Layer_1" xmlns="http://www.w3.org/2000/svg" xmlns:xlink="http://www.w3.org/1999/xlink" x="0px" y="0px"
	 width="249.105px" height="535.475px" viewBox="0 0 249.105 535.475" enable-background="new 0 0 249.105 535.475"
	 xml:space="preserve">
<path fill="#231F20" d="M186.119,12.308l-27.574,25.066c0,0,21.309,28.199,51.387,31.959c30.08,3.762,53.266-1.254,68.307-10.025
	c15.041-8.773,17.547-11.906,23.814-21.307c6.266-9.4,11.906-19.428,13.16-25.066c1.252-5.639,1.879-18.801,1.879-18.801
	L281.998-6.49c0,0-3.133,13.787-9.4,21.932c-6.266,8.146-18.174,15.041-28.199,17.547c-10.027,2.506-27.576,1.881-36.973-2.506
	C198.025,26.094,186.744,14.813,186.119,12.308z"/>
</svg>
