<?xml version="1.0" encoding="utf-8"?>
<!-- Generator: Adobe Illustrator 16.0.0, SVG Export Plug-In . SVG Version: 6.00 Build 0)  -->
<!DOCTYPE svg PUBLIC "-//W3C//DTD SVG 1.1//EN" "http://www.w3.org/Graphics/SVG/1.1/DTD/svg11.dtd">
<svg version="1.1" id="Layer_1" xmlns="http://www.w3.org/2000/svg" xmlns:xlink="http://www.w3.org/1999/xlink" x="0px" y="0px"
	 width="249.105px" height="535.475px" viewBox="0 0 249.105 535.475" enable-background="new 0 0 249.105 535.475"
	 xml:space="preserve">
<path fill="#231F20" d="M240.011-100.49l-1.879,36.975c0,0-35.719,1.252-45.119,15.037c-9.4,13.787-18.178,21.934-15.668,34.468
	c2.508,12.533,4.387,20.681,6.893,23.814c2.506,3.132,13.16,14.411,13.16,14.411l6.266,7.521l-21.932,26.948
	c0,0-28.201-24.44-32.586-39.481c-4.389-15.041-9.4-35.094-5.641-48.254s3.133-28.828,15.039-39.48
	c11.908-10.654,32.586-24.441,43.869-27.572C213.691-99.237,232.49-101.744,240.011-100.49z"/>
</svg>
