<?xml version="1.0" encoding="utf-8"?>
<!-- Generator: Adobe Illustrator 16.0.0, SVG Export Plug-In . SVG Version: 6.00 Build 0)  -->
<!DOCTYPE svg PUBLIC "-//W3C//DTD SVG 1.1//EN" "http://www.w3.org/Graphics/SVG/1.1/DTD/svg11.dtd">
<svg version="1.1" id="Layer_1" xmlns="http://www.w3.org/2000/svg" xmlns:xlink="http://www.w3.org/1999/xlink" x="0px" y="0px"
	 width="249.105px" height="535.475px" viewBox="0 0 249.105 535.475" enable-background="new 0 0 249.105 535.475"
	 xml:space="preserve">
<path fill="#231F20" d="M175.539-7.745l-1.881,37.601c0,0,25.695,3.133,36.348-6.268s25.066-20.052,28.199-34.465
	c3.133-14.415,6.893-30.708,2.506-40.105c-4.385-9.402-13.158-23.814-20.68-30.08c-7.521-6.269-30.705-15.041-36.346-13.162
	c-5.641,1.881-10.654,0.628-10.654,0.628l1.881,36.972c0,0,17.547,3.135,21.936,6.268c4.385,3.135,8.143,12.535,6.264,20.68
	c-1.879,8.146-6.268,14.412-10.654,16.295C188.072-11.504,179.299-6.49,175.539-7.745z"/>
</svg>
