<?xml version="1.0" encoding="utf-8"?>
<!-- Generator: Adobe Illustrator 16.0.0, SVG Export Plug-In . SVG Version: 6.00 Build 0)  -->
<!DOCTYPE svg PUBLIC "-//W3C//DTD SVG 1.1//EN" "http://www.w3.org/Graphics/SVG/1.1/DTD/svg11.dtd">
<svg version="1.1" id="Layer_1" xmlns="http://www.w3.org/2000/svg" xmlns:xlink="http://www.w3.org/1999/xlink" x="0px" y="0px"
	 width="249.105px" height="535.475px" viewBox="0 0 249.105 535.475" enable-background="new 0 0 249.105 535.475"
	 xml:space="preserve">
<path fill="#231F20" d="M20.053-5.237c0,0-11.905,18.172-3.762,27.574c8.146,9.398,62.667,85.225,79.588,104.65
	c16.918,19.426,33.213,43.241,40.735,52.641c7.52,9.4,10.025,25.692,10.025,25.692s-20.053,24.44-22.561,32.586
	c-2.508,8.146-4.387,13.161-4.387,13.161s-3.762-29.454-11.906-41.986c-8.148-12.534-49.505-77.08-68.933-98.387
	C19.426,89.389-13.161,35.494-13.161,35.494S10.653,2.282,20.053-5.237z"/>
</svg>
