<?xml version="1.0" encoding="utf-8"?>
<!-- Generator: Adobe Illustrator 16.0.0, SVG Export Plug-In . SVG Version: 6.00 Build 0)  -->
<!DOCTYPE svg PUBLIC "-//W3C//DTD SVG 1.1//EN" "http://www.w3.org/Graphics/SVG/1.1/DTD/svg11.dtd">
<svg version="1.1" id="Layer_1" xmlns="http://www.w3.org/2000/svg" xmlns:xlink="http://www.w3.org/1999/xlink" x="0px" y="0px"
	 width="249.105px" height="535.475px" viewBox="0 0 249.105 535.475" enable-background="new 0 0 249.105 535.475"
	 xml:space="preserve">
<path fill="#231F20" d="M-6.213,181.11l6.27-35.717c0,0,4.387,14.412,17.546,15.039c13.161,0.626,52.011-3.134,89.61-16.919
	c37.601-13.788,50.132-19.428,80.841-30.708c30.707-11.28,48.254-15.039,59.533-14.412c11.279,0.625,11.279,0.625,11.279,0.625
	s5.016,31.335,3.76,41.359c-1.254,10.025-4.387,15.667-4.387,15.667s5.014-21.306-9.398-20.052
	c-14.414,1.25-54.52,9.4-91.494,24.439c-36.974,15.038-89.614,35.72-110.917,38.227C25.123,201.163,8.828,199.91-6.213,181.11z"/>
</svg>
