<?xml version="1.0" encoding="utf-8"?>
<!-- Generator: Adobe Illustrator 16.0.0, SVG Export Plug-In . SVG Version: 6.00 Build 0)  -->
<!DOCTYPE svg PUBLIC "-//W3C//DTD SVG 1.1//EN" "http://www.w3.org/Graphics/SVG/1.1/DTD/svg11.dtd">
<svg version="1.1" id="Layer_1" xmlns="http://www.w3.org/2000/svg" xmlns:xlink="http://www.w3.org/1999/xlink" x="0px" y="0px"
	 width="249.105px" height="535.475px" viewBox="0 0 249.105 535.475" enable-background="new 0 0 249.105 535.475"
	 xml:space="preserve">
<path fill="#231F20" d="M183.611,167.094l28.199-33.213c0,0,6.27,25.067,30.707,26.32c24.441,1.254,41.984,7.521,87.732-21.307
	c45.746-28.826,97.135-59.531,139.748-111.545c42.609-52.014,78.957-85.227,93.998-102.146
	c15.041-16.918,21.932-20.054,40.732-21.307c18.799-1.254,52.639,1.254,52.639,1.254s9.4,8.147,10.654,11.28
	c1.256,3.132-1.881,11.279-1.881,11.279s-9.398-11.909-18.799-12.534s-33.84,6.893-55.775,30.079
	c-21.93,23.188-80.838,88.362-127.838,137.241c-46.998,48.88-125.33,110.919-182.359,115.933
	C224.345,203.44,201.781,189.027,183.611,167.094z"/>
</svg>
