<?xml version="1.0" encoding="utf-8"?>
<!-- Generator: Adobe Illustrator 16.0.0, SVG Export Plug-In . SVG Version: 6.00 Build 0)  -->
<!DOCTYPE svg PUBLIC "-//W3C//DTD SVG 1.1//EN" "http://www.w3.org/Graphics/SVG/1.1/DTD/svg11.dtd">
<svg version="1.1" id="Layer_1" xmlns="http://www.w3.org/2000/svg" xmlns:xlink="http://www.w3.org/1999/xlink" x="0px" y="0px"
	 width="249.105px" height="535.475px" viewBox="0 0 249.105 535.475" enable-background="new 0 0 249.105 535.475"
	 xml:space="preserve">
<path fill="#231F20" d="M292.14,142.717c0,0,1.152-43.089-6.316-51.131c-7.471-8.041-23.553-20.681-45.961-12.063
	c-22.404,8.617-86.746,42.514-118.917,51.131c-32.172,8.617-75.258,21.258-91.344,3.447c-16.086-17.81-16.086-30.45-16.086-30.45
	s-5.17,44.238,2.299,54.002c7.467,9.766,18.381,25.276,51.127,22.406c32.746-2.872,62.62-13.213,97.088-28.724
	s82.154-43.665,97.088-37.343C276.054,120.313,287.547,123.187,292.14,142.717z"/>
</svg>
