<?xml version="1.0" encoding="utf-8"?>
<!-- Generator: Adobe Illustrator 16.0.0, SVG Export Plug-In . SVG Version: 6.00 Build 0)  -->
<!DOCTYPE svg PUBLIC "-//W3C//DTD SVG 1.1//EN" "http://www.w3.org/Graphics/SVG/1.1/DTD/svg11.dtd">
<svg version="1.1" id="Layer_1" xmlns="http://www.w3.org/2000/svg" xmlns:xlink="http://www.w3.org/1999/xlink" x="0px" y="0px"
	 width="249.105px" height="535.475px" viewBox="0 0 249.105 535.475" enable-background="new 0 0 249.105 535.475"
	 xml:space="preserve">
<path fill="#231F20" d="M-3.289,101.295L10.497,66.83c0,0,8.146,14.414,30.707,5.639c22.561-8.773,66.423-40.106,88.985-65.172
	c22.562-25.067,77.709-68.309,95.254-77.082c17.545-8.771,43.867-11.904,43.867-11.904s11.279,15.666,15.666,22.56
	s21.307,36.347,21.307,36.347s-16.92-25.695-36.348-20.682c-19.428,5.015-35.717,7.52-63.918,30.707s-36.35,38.227-73.947,68.307
	c-37.6,30.08-76.453,53.895-93.373,56.4C21.779,114.455,3.605,108.189-3.289,101.295z"/>
</svg>
