<?xml version="1.0" encoding="utf-8"?>
<!-- Generator: Adobe Illustrator 16.0.0, SVG Export Plug-In . SVG Version: 6.00 Build 0)  -->
<!DOCTYPE svg PUBLIC "-//W3C//DTD SVG 1.1//EN" "http://www.w3.org/Graphics/SVG/1.1/DTD/svg11.dtd">
<svg version="1.1" id="Layer_1" xmlns="http://www.w3.org/2000/svg" xmlns:xlink="http://www.w3.org/1999/xlink" x="0px" y="0px"
	 width="249.105px" height="535.475px" viewBox="0 0 249.105 535.475" enable-background="new 0 0 249.105 535.475"
	 xml:space="preserve">
<path fill="#231F20" d="M189.951-94.851l0.627,39.481c0,0-13.16-3.763-18.803,0c-5.639,3.759-15.039,13.158-13.781,18.172
	c1.252,5.013-1.258,15.666,3.758,20.053c5.014,4.387,8.773,9.399,13.787,9.399s8.146-1.88,8.146-1.88l-1.254,40.107
	c0,0-16.922,1.254-23.812-1.881c-6.891-3.133-30.08-18.172-34.467-27.572c-4.387-9.4-9.398-39.478-6.268-47
	c3.133-7.521,14.417-31.959,28.202-38.227C159.873-90.464,172.406-96.104,189.951-94.851z"/>
</svg>
