<?xml version="1.0" encoding="utf-8"?>
<!-- Generator: Adobe Illustrator 16.0.0, SVG Export Plug-In . SVG Version: 6.00 Build 0)  -->
<!DOCTYPE svg PUBLIC "-//W3C//DTD SVG 1.1//EN" "http://www.w3.org/Graphics/SVG/1.1/DTD/svg11.dtd">
<svg version="1.1" id="Layer_1" xmlns="http://www.w3.org/2000/svg" xmlns:xlink="http://www.w3.org/1999/xlink" x="0px" y="0px"
	 width="249.105px" height="535.475px" viewBox="0 0 249.105 535.475" enable-background="new 0 0 249.105 535.475"
	 xml:space="preserve">
<path fill="#231F20" d="M6.186,151.326c0,0,4.386,21.306,30.081,18.8c25.692-2.507,66.426-11.906,99.012-33.214
	c32.584-21.306,43.867-28.826,76.453-37.599c32.586-8.774,55.771-9.4,55.771-9.4l13.787,40.732c0,0-16.922-4.385-34.467-1.252
	c-17.547,3.132-72.064,22.56-92.746,36.346C133.4,179.526,83.267,202.714,58.2,205.219s-47.001-8.773-50.134-11.908
	c-3.132-3.131-6.891-5.012-6.891-5.012L6.186,151.326z"/>
</svg>
