<?xml version="1.0" encoding="utf-8"?>
<!-- Generator: Adobe Illustrator 16.0.0, SVG Export Plug-In . SVG Version: 6.00 Build 0)  -->
<!DOCTYPE svg PUBLIC "-//W3C//DTD SVG 1.1//EN" "http://www.w3.org/Graphics/SVG/1.1/DTD/svg11.dtd">
<svg version="1.1" id="Layer_1" xmlns="http://www.w3.org/2000/svg" xmlns:xlink="http://www.w3.org/1999/xlink" x="0px" y="0px"
	 width="249.105px" height="535.475px" viewBox="0 0 249.105 535.475" enable-background="new 0 0 249.105 535.475"
	 xml:space="preserve">
<path fill="#231F20" d="M206.799,5.317c0,0-8.148-13.162-14.412-15.667c-6.266-2.505-23.189-1.253-29.455,3.134
	c-6.264,4.387-11.279,15.039-9.398,23.812c1.879,8.773,6.264,17.547,13.158,19.428c6.895,1.879,13.162,5.012,20.055,2.506
	c6.895-2.506,19.428-14.413,19.428-14.413l23.186,21.933c0,0-11.904,17.547-28.199,23.814c-16.295,6.266-43.867,10.025-50.762,3.133
	c-6.893-6.893-22.559-21.307-27.572-33.84c-5.014-12.533-13.787-30.707-3.133-49.507c10.654-18.8,20.052-32.585,33.212-36.347
	c13.16-3.76,28.826-6.894,40.105-1.879c11.281,5.013,27.574,10.652,33.213,16.293c5.641,5.641,13.16,29.453,13.16,29.453
	L206.799,5.317z"/>
</svg>
