<?xml version="1.0" encoding="utf-8"?>
<!-- Generator: Adobe Illustrator 16.0.0, SVG Export Plug-In . SVG Version: 6.00 Build 0)  -->
<!DOCTYPE svg PUBLIC "-//W3C//DTD SVG 1.1//EN" "http://www.w3.org/Graphics/SVG/1.1/DTD/svg11.dtd">
<svg version="1.1" id="Layer_1" xmlns="http://www.w3.org/2000/svg" xmlns:xlink="http://www.w3.org/1999/xlink" x="0px" y="0px"
	 width="249.105px" height="535.475px" viewBox="0 0 249.105 535.475" enable-background="new 0 0 249.105 535.475"
	 xml:space="preserve">
<path fill="#231F20" d="M12.943,177.186v39.062c0,0,7.469,23.553,35.617,22.406c28.15-1.147,54.002-7.469,76.406-19.534
	c22.405-12.063,62.047-36.769,71.811-34.468c9.766,2.298,16.66,9.192,17.809,12.639c1.148,3.447,2.299,7.47,2.299,7.47l1.148-44.81
	c0,0-5.746-12.063-16.66-12.063c-10.916,0-21.256,0.571-35.043,9.189c-13.789,8.617-37.34,20.109-52.278,28.151
	C99.115,193.27,26.156,213.38,12.943,177.186z"/>
</svg>
