<?xml version="1.0" encoding="utf-8"?>
<!-- Generator: Adobe Illustrator 16.0.0, SVG Export Plug-In . SVG Version: 6.00 Build 0)  -->
<!DOCTYPE svg PUBLIC "-//W3C//DTD SVG 1.1//EN" "http://www.w3.org/Graphics/SVG/1.1/DTD/svg11.dtd">
<svg version="1.1" id="Layer_1" xmlns="http://www.w3.org/2000/svg" xmlns:xlink="http://www.w3.org/1999/xlink" x="0px" y="0px"
	 width="249.105px" height="535.475px" viewBox="0 0 249.105 535.475" enable-background="new 0 0 249.105 535.475"
	 xml:space="preserve">
<path fill="#231F20" d="M120.094,167.094c0,0-3.762,6.893,8.144,11.28c11.908,4.388,38.225,11.282,67.68,6.894
	c29.455-4.385,46.375-6.268,74.574-8.146c28.199-1.88,41.357-2.505,50.131,0.628c8.775,3.134,13.162,13.159,13.787,18.799
	c0.627,5.642-5.012,40.105-5.012,40.105s4.385-25.064-18.176-23.812c-22.559,1.254-73.318,1.881-107.158,5.641
	s-57.025,5.015-68.932,2.508c-11.908-2.508-26.321-13.788-26.321-13.788S115.705,173.986,120.094,167.094z"/>
</svg>
