<?xml version="1.0" encoding="utf-8"?>
<!-- Generator: Adobe Illustrator 16.0.0, SVG Export Plug-In . SVG Version: 6.00 Build 0)  -->
<!DOCTYPE svg PUBLIC "-//W3C//DTD SVG 1.1//EN" "http://www.w3.org/Graphics/SVG/1.1/DTD/svg11.dtd">
<svg version="1.1" id="Layer_1" xmlns="http://www.w3.org/2000/svg" xmlns:xlink="http://www.w3.org/1999/xlink" x="0px" y="0px"
	 width="249.105px" height="535.475px" viewBox="0 0 249.105 535.475" enable-background="new 0 0 249.105 535.475"
	 xml:space="preserve">
<path fill="#231F20" d="M9.402-3.558c0,0-3.137,12.532,18.174,13.159c21.306,0.628,40.733,0,75.824-1.254
	c35.092-1.252,48.881-1.879,60.161-1.879s13.785,5.016,16.291,13.785c2.508,8.775,3.135,40.734,3.135,40.734
	s-1.252-16.295-15.664-15.039C152.906,47.2,97.76,50.333,66.427,49.081c-31.334-1.252-45.748-1.881-50.135-4.389
	c-4.385-2.507-10.025-5.638-10.025-5.638S5.642,2.081,9.402-3.558z"/>
</svg>
