<?xml version="1.0" encoding="utf-8"?>
<!-- Generator: Adobe Illustrator 16.0.0, SVG Export Plug-In . SVG Version: 6.00 Build 0)  -->
<!DOCTYPE svg PUBLIC "-//W3C//DTD SVG 1.1//EN" "http://www.w3.org/Graphics/SVG/1.1/DTD/svg11.dtd">
<svg version="1.1" id="Layer_1" xmlns="http://www.w3.org/2000/svg" xmlns:xlink="http://www.w3.org/1999/xlink" x="0px" y="0px"
	 width="249.105px" height="535.475px" viewBox="0 0 249.105 535.475" enable-background="new 0 0 249.105 535.475"
	 xml:space="preserve">
<path fill="#231F20" d="M138.892-76.049c0,0-20.683,18.173-17.55,39.479c3.135,21.305,3.135,31.96,23.814,53.893
	c20.684,21.933,34.469,36.346,52.643,50.133c18.172,13.787,27.574,30.08,33.838,31.959c6.268,1.881,10.027,1.881,10.027,1.881
	s-12.533,7.521-18.172,18.174c-5.639,10.652-15.039,34.465-15.039,34.465s1.252-21.306-6.895-31.332
	c-8.145-10.027-52.643-49.506-72.691-68.305C108.812,35.494,91.893,7.926,92.52-10.25C93.143-28.424,114.452-50.983,138.892-76.049z
	"/>
</svg>
