<?xml version="1.0" encoding="utf-8"?>
<!-- Generator: Adobe Illustrator 16.0.0, SVG Export Plug-In . SVG Version: 6.00 Build 0)  -->
<!DOCTYPE svg PUBLIC "-//W3C//DTD SVG 1.1//EN" "http://www.w3.org/Graphics/SVG/1.1/DTD/svg11.dtd">
<svg version="1.1" id="Layer_1" xmlns="http://www.w3.org/2000/svg" xmlns:xlink="http://www.w3.org/1999/xlink" x="0px" y="0px"
	 width="249.105px" height="535.475px" viewBox="0 0 249.105 535.475" enable-background="new 0 0 249.105 535.475"
	 xml:space="preserve">
<path fill="#231F20" d="M278.351,40.727c0,0-24.057-42.77-73.508-46.779c0,0-60.145,8.021-70.838,22.721
	c-10.692,14.703-28.064,46.779-24.056,68.165c4.006,21.385,5.348,57.472,36.087,73.51c30.74,16.038,66.826,26.731,89.545,14.702
	c22.725-12.028,44.109-29.404,49.453-56.136C290.383,90.18,291.719,58.102,278.351,40.727z M248.353,103.748
	c-3.066,15.319-15.32,25.277-28.344,32.17c-13.02,6.893-33.703,0.767-51.314-8.425c-17.617-9.193-18.389-29.873-20.684-42.129
	c-2.293-12.256,7.66-30.639,13.791-39.063c6.125-8.427,40.588-13.021,40.588-13.021c28.348,2.297,42.135,26.807,42.135,26.807
	C252.183,70.046,251.416,88.428,248.353,103.748z"/>
</svg>
