<?xml version="1.0" encoding="utf-8"?>
<!-- Generator: Adobe Illustrator 16.0.0, SVG Export Plug-In . SVG Version: 6.00 Build 0)  -->
<!DOCTYPE svg PUBLIC "-//W3C//DTD SVG 1.1//EN" "http://www.w3.org/Graphics/SVG/1.1/DTD/svg11.dtd">
<svg version="1.1" id="Layer_1" xmlns="http://www.w3.org/2000/svg" xmlns:xlink="http://www.w3.org/1999/xlink" x="0px" y="0px"
	 width="249.105px" height="535.475px" viewBox="0 0 249.105 535.475" enable-background="new 0 0 249.105 535.475"
	 xml:space="preserve">
<path fill="#231F20" d="M112.018,184.015c0,0,22.556,13.785,47.625,3.759c25.07-10.025,77.709-43.865,77.709-43.865
	s-4.389,21.305-1.254,34.465c3.133,13.16,5.012,36.975,6.895,40.107c1.879,3.133-0.629,5.013-0.629,5.013
	s-24.441,19.427-28.824,23.187c-4.387,3.76-7.521,7.521-7.521,7.521s10.652-16.294,8.146-26.32
	c-2.508-10.028-11.277-30.081-9.4-38.854c1.879-8.771,2.506-11.908,8.775-18.798c6.262-6.896,12.533-14.413,12.533-14.413
	s-50.762,30.077-67.055,35.718C142.722,197.174,127.683,194.041,112.018,184.015z"/>
</svg>
