<?xml version="1.0" encoding="utf-8"?>
<!-- Generator: Adobe Illustrator 16.0.0, SVG Export Plug-In . SVG Version: 6.00 Build 0)  -->
<!DOCTYPE svg PUBLIC "-//W3C//DTD SVG 1.1//EN" "http://www.w3.org/Graphics/SVG/1.1/DTD/svg11.dtd">
<svg version="1.1" id="Layer_1" xmlns="http://www.w3.org/2000/svg" xmlns:xlink="http://www.w3.org/1999/xlink" x="0px" y="0px"
	 width="249.105px" height="535.475px" viewBox="0 0 249.105 535.475" enable-background="new 0 0 249.105 535.475"
	 xml:space="preserve">
<path fill="#231F20" d="M3.576,23.588c0,0,2.508,9.4,30.706,13.16c28.2,3.762,67.681,1.254,88.358-0.626
	c20.681-1.878,50.132-5.64,51.386-0.628c1.256,5.016-0.625,21.308-1.881,26.32c-1.252,5.014-7.518,24.441-7.518,24.441
	s0-18.801-4.387-16.922c-4.387,1.881-11.277,1.881-51.384,3.762c-40.109,1.879-80.215,5.014-93.373-2.506
	C2.323,63.067-3.316,58.684-3.316,58.684S1.071,29.853,3.576,23.588z"/>
</svg>
