<?xml version="1.0" encoding="utf-8"?>
<!-- Generator: Adobe Illustrator 16.0.0, SVG Export Plug-In . SVG Version: 6.00 Build 0)  -->
<!DOCTYPE svg PUBLIC "-//W3C//DTD SVG 1.1//EN" "http://www.w3.org/Graphics/SVG/1.1/DTD/svg11.dtd">
<svg version="1.1" id="Layer_1" xmlns="http://www.w3.org/2000/svg" xmlns:xlink="http://www.w3.org/1999/xlink" x="0px" y="0px"
	 width="249.105px" height="535.475px" viewBox="0 0 249.105 535.475" enable-background="new 0 0 249.105 535.475"
	 xml:space="preserve">
<path fill="#231F20" d="M189.734-69.324c0,0-0.035-0.701-0.088-1.952c-0.426-10-1.965-55.361,4.955-62.279
	c7.785-7.786,25.301-18.492,36.008-15.573c10.705,2.92,37.469,14.113,31.143,38.442c-6.326,24.331-17.518,47.688-44.281,63.746
	s-89.535,54.5-104.62,70.557c-15.085,16.059-42.335,50.607-31.144,80.775c11.193,30.172,26.277,36.496,34.062,31.144
	c7.787-5.354,15.572-12.651,15.572-12.651s-11.192,28.223-25.79,29.195c-14.599,0.975-40.39-21.408-39.901-45.252
	c0.486-23.846,0-56.447,42.82-88.562c42.822-32.116,113.378-70.071,120.679-86.615c7.299-16.545,8.758-15.572,5.352-25.306
	c-3.406-9.73-17.518-18.491-25.303-13.137c-7.785,5.353-17.588,16.119-19.5,36.768"/>
</svg>
