<?xml version="1.0" encoding="utf-8"?>
<!-- Generator: Adobe Illustrator 16.0.0, SVG Export Plug-In . SVG Version: 6.00 Build 0)  -->
<!DOCTYPE svg PUBLIC "-//W3C//DTD SVG 1.1//EN" "http://www.w3.org/Graphics/SVG/1.1/DTD/svg11.dtd">
<svg version="1.1" id="Layer_1" xmlns="http://www.w3.org/2000/svg" xmlns:xlink="http://www.w3.org/1999/xlink" x="0px" y="0px"
	 width="249.105px" height="535.475px" viewBox="0 0 249.105 535.475" enable-background="new 0 0 249.105 535.475"
	 xml:space="preserve">
<path fill="#231F20" d="M4.964,259.407c0,0,2.92-56.448,26.276-82.238c23.357-25.789,39.902-54.014,101.214-91.967
	c61.312-37.953,81.75-57.905,109.973-82.722c28.223-24.818,42.334-42.334,43.793-53.04c1.461-10.706,0.488-27.737,0.488-27.737
	h42.82c0,0,0.973,34.063-8.273,50.121c-9.244,16.059-48.174,51.094-89.533,85.157c-41.363,34.062-90.021,68.61-119.219,93.426
	c-29.194,24.817-44.28,38.929-53.039,65.694c-8.759,26.762-8.759,42.82-8.759,42.82L4.964,259.407z"/>
</svg>
