<?xml version="1.0" encoding="utf-8"?>
<!-- Generator: Adobe Illustrator 16.0.0, SVG Export Plug-In . SVG Version: 6.00 Build 0)  -->
<!DOCTYPE svg PUBLIC "-//W3C//DTD SVG 1.1//EN" "http://www.w3.org/Graphics/SVG/1.1/DTD/svg11.dtd">
<svg version="1.1" id="Layer_1" xmlns="http://www.w3.org/2000/svg" xmlns:xlink="http://www.w3.org/1999/xlink" x="0px" y="0px"
	 width="249.105px" height="535.475px" viewBox="0 0 249.105 535.475" enable-background="new 0 0 249.105 535.475"
	 xml:space="preserve">
<path fill="#231F20" d="M43.406-71.484c0,0-14.599,15.085-0.486,29.196c14.111,14.111,40.874,36.494,75.91,53.527
	c35.035,17.03,88.56,35.035,138.681,56.934c50.121,21.895,88.562,42.82,97.32,56.932c8.76,14.111,16.059,33.575,11.68,57.907
	c-4.379,24.327-12.166,32.114-16.545,36.979c-4.381,4.866-8.758,8.271-8.758,8.271s31.141-42.82-0.973-64.23
	c-32.117-21.409-37.957-33.088-104.621-56.932c-66.666-23.844-134.302-51.095-157.66-66.664
	C54.598,24.863,28.321-2.874,25.403-17.958C22.483-33.043,26.375-56.399,43.406-71.484z"/>
</svg>
